<svg xmlns="http://www.w3.org/2000/svg" xmlns:xlink="http://www.w3.org/1999/xlink" width="600" height="400" viewBox="0 0 2400 1600">
<defs>
  <clipPath id="clip310">
    <rect x="0" y="0" width="2400" height="1600"></rect>
  </clipPath>
</defs>
<path clip-path="url(#clip310)" d="M0 1600 L2400 1600 L2400 0 L0 0  Z" fill="#ffffff" fill-rule="evenodd" fill-opacity="1"></path>
<defs>
  <clipPath id="clip311">
    <rect x="480" y="0" width="1681" height="1600"></rect>
  </clipPath>
</defs>
<path clip-path="url(#clip310)" d="M203.964 1423.18 L2352.76 1423.18 L2352.76 47.2441 L203.964 47.2441  Z" fill="#ffffff" fill-rule="evenodd" fill-opacity="1"></path>
<defs>
  <clipPath id="clip312">
    <rect x="203" y="47" width="2150" height="1377"></rect>
  </clipPath>
</defs>
<polyline clip-path="url(#clip312)" style="stroke:#000000; stroke-linecap:round; stroke-linejoin:round; stroke-width:2; stroke-opacity:0.1; fill:none" points="526.348,1423.18 526.348,47.2441 "></polyline>
<polyline clip-path="url(#clip312)" style="stroke:#000000; stroke-linecap:round; stroke-linejoin:round; stroke-width:2; stroke-opacity:0.1; fill:none" points="853.31,1423.18 853.31,47.2441 "></polyline>
<polyline clip-path="url(#clip312)" style="stroke:#000000; stroke-linecap:round; stroke-linejoin:round; stroke-width:2; stroke-opacity:0.1; fill:none" points="1180.27,1423.18 1180.27,47.2441 "></polyline>
<polyline clip-path="url(#clip312)" style="stroke:#000000; stroke-linecap:round; stroke-linejoin:round; stroke-width:2; stroke-opacity:0.1; fill:none" points="1507.23,1423.18 1507.23,47.2441 "></polyline>
<polyline clip-path="url(#clip312)" style="stroke:#000000; stroke-linecap:round; stroke-linejoin:round; stroke-width:2; stroke-opacity:0.1; fill:none" points="1834.19,1423.18 1834.19,47.2441 "></polyline>
<polyline clip-path="url(#clip312)" style="stroke:#000000; stroke-linecap:round; stroke-linejoin:round; stroke-width:2; stroke-opacity:0.1; fill:none" points="2161.16,1423.18 2161.16,47.2441 "></polyline>
<polyline clip-path="url(#clip310)" style="stroke:#000000; stroke-linecap:round; stroke-linejoin:round; stroke-width:4; stroke-opacity:1; fill:none" points="203.964,1423.18 2352.76,1423.18 "></polyline>
<polyline clip-path="url(#clip310)" style="stroke:#000000; stroke-linecap:round; stroke-linejoin:round; stroke-width:4; stroke-opacity:1; fill:none" points="526.348,1423.18 526.348,1404.28 "></polyline>
<polyline clip-path="url(#clip310)" style="stroke:#000000; stroke-linecap:round; stroke-linejoin:round; stroke-width:4; stroke-opacity:1; fill:none" points="853.31,1423.18 853.31,1404.28 "></polyline>
<polyline clip-path="url(#clip310)" style="stroke:#000000; stroke-linecap:round; stroke-linejoin:round; stroke-width:4; stroke-opacity:1; fill:none" points="1180.27,1423.18 1180.27,1404.28 "></polyline>
<polyline clip-path="url(#clip310)" style="stroke:#000000; stroke-linecap:round; stroke-linejoin:round; stroke-width:4; stroke-opacity:1; fill:none" points="1507.23,1423.18 1507.23,1404.28 "></polyline>
<polyline clip-path="url(#clip310)" style="stroke:#000000; stroke-linecap:round; stroke-linejoin:round; stroke-width:4; stroke-opacity:1; fill:none" points="1834.19,1423.18 1834.19,1404.28 "></polyline>
<polyline clip-path="url(#clip310)" style="stroke:#000000; stroke-linecap:round; stroke-linejoin:round; stroke-width:4; stroke-opacity:1; fill:none" points="2161.16,1423.18 2161.16,1404.28 "></polyline>
<path clip-path="url(#clip310)" d="M516.626 1451.02 L534.982 1451.02 L534.982 1454.96 L520.908 1454.96 L520.908 1463.43 Q521.927 1463.08 522.945 1462.92 Q523.964 1462.73 524.982 1462.73 Q530.769 1462.73 534.149 1465.9 Q537.528 1469.08 537.528 1474.49 Q537.528 1480.07 534.056 1483.17 Q530.584 1486.25 524.264 1486.25 Q522.089 1486.25 519.82 1485.88 Q517.575 1485.51 515.167 1484.77 L515.167 1480.07 Q517.251 1481.2 519.473 1481.76 Q521.695 1482.32 524.172 1482.32 Q528.177 1482.32 530.514 1480.21 Q532.852 1478.1 532.852 1474.49 Q532.852 1470.88 530.514 1468.77 Q528.177 1466.67 524.172 1466.67 Q522.297 1466.67 520.422 1467.08 Q518.57 1467.5 516.626 1468.38 L516.626 1451.02 Z" fill="#000000" fill-rule="nonzero" fill-opacity="1"></path><path clip-path="url(#clip310)" d="M827.997 1481.64 L835.636 1481.64 L835.636 1455.28 L827.326 1456.95 L827.326 1452.69 L835.59 1451.02 L840.266 1451.02 L840.266 1481.64 L847.904 1481.64 L847.904 1485.58 L827.997 1485.58 L827.997 1481.64 Z" fill="#000000" fill-rule="nonzero" fill-opacity="1"></path><path clip-path="url(#clip310)" d="M867.349 1454.1 Q863.738 1454.1 861.909 1457.66 Q860.103 1461.2 860.103 1468.33 Q860.103 1475.44 861.909 1479.01 Q863.738 1482.55 867.349 1482.55 Q870.983 1482.55 872.789 1479.01 Q874.617 1475.44 874.617 1468.33 Q874.617 1461.2 872.789 1457.66 Q870.983 1454.1 867.349 1454.1 M867.349 1450.39 Q873.159 1450.39 876.214 1455 Q879.293 1459.58 879.293 1468.33 Q879.293 1477.06 876.214 1481.67 Q873.159 1486.25 867.349 1486.25 Q861.539 1486.25 858.46 1481.67 Q855.404 1477.06 855.404 1468.33 Q855.404 1459.58 858.46 1455 Q861.539 1450.39 867.349 1450.39 Z" fill="#000000" fill-rule="nonzero" fill-opacity="1"></path><path clip-path="url(#clip310)" d="M1155.46 1481.64 L1163.1 1481.64 L1163.1 1455.28 L1154.79 1456.95 L1154.79 1452.69 L1163.05 1451.02 L1167.72 1451.02 L1167.72 1481.64 L1175.36 1481.64 L1175.36 1485.58 L1155.46 1485.58 L1155.46 1481.64 Z" fill="#000000" fill-rule="nonzero" fill-opacity="1"></path><path clip-path="url(#clip310)" d="M1184.85 1451.02 L1203.21 1451.02 L1203.21 1454.96 L1189.14 1454.96 L1189.14 1463.43 Q1190.16 1463.08 1191.17 1462.92 Q1192.19 1462.73 1193.21 1462.73 Q1199 1462.73 1202.38 1465.9 Q1205.76 1469.08 1205.76 1474.49 Q1205.76 1480.07 1202.28 1483.17 Q1198.81 1486.25 1192.49 1486.25 Q1190.32 1486.25 1188.05 1485.88 Q1185.8 1485.51 1183.4 1484.77 L1183.4 1480.07 Q1185.48 1481.2 1187.7 1481.76 Q1189.92 1482.32 1192.4 1482.32 Q1196.41 1482.32 1198.74 1480.21 Q1201.08 1478.1 1201.08 1474.49 Q1201.08 1470.88 1198.74 1468.77 Q1196.41 1466.67 1192.4 1466.67 Q1190.53 1466.67 1188.65 1467.08 Q1186.8 1467.5 1184.85 1468.38 L1184.85 1451.02 Z" fill="#000000" fill-rule="nonzero" fill-opacity="1"></path><path clip-path="url(#clip310)" d="M1486.01 1481.64 L1502.33 1481.64 L1502.33 1485.58 L1480.38 1485.58 L1480.38 1481.64 Q1483.04 1478.89 1487.63 1474.26 Q1492.23 1469.61 1493.41 1468.27 Q1495.66 1465.74 1496.54 1464.01 Q1497.44 1462.25 1497.44 1460.56 Q1497.44 1457.8 1495.5 1456.07 Q1493.58 1454.33 1490.47 1454.33 Q1488.27 1454.33 1485.82 1455.09 Q1483.39 1455.86 1480.61 1457.41 L1480.61 1452.69 Q1483.44 1451.55 1485.89 1450.97 Q1488.34 1450.39 1490.38 1450.39 Q1495.75 1450.39 1498.95 1453.08 Q1502.14 1455.77 1502.14 1460.26 Q1502.14 1462.39 1501.33 1464.31 Q1500.54 1466.2 1498.44 1468.8 Q1497.86 1469.47 1494.76 1472.69 Q1491.65 1475.88 1486.01 1481.64 Z" fill="#000000" fill-rule="nonzero" fill-opacity="1"></path><path clip-path="url(#clip310)" d="M1522.14 1454.1 Q1518.53 1454.1 1516.7 1457.66 Q1514.89 1461.2 1514.89 1468.33 Q1514.89 1475.44 1516.7 1479.01 Q1518.53 1482.55 1522.14 1482.55 Q1525.77 1482.55 1527.58 1479.01 Q1529.41 1475.44 1529.41 1468.33 Q1529.41 1461.2 1527.58 1457.66 Q1525.77 1454.1 1522.14 1454.1 M1522.14 1450.39 Q1527.95 1450.39 1531.01 1455 Q1534.08 1459.58 1534.08 1468.33 Q1534.08 1477.06 1531.01 1481.67 Q1527.95 1486.25 1522.14 1486.25 Q1516.33 1486.25 1513.25 1481.67 Q1510.2 1477.06 1510.2 1468.33 Q1510.2 1459.58 1513.25 1455 Q1516.33 1450.39 1522.14 1450.39 Z" fill="#000000" fill-rule="nonzero" fill-opacity="1"></path><path clip-path="url(#clip310)" d="M1813.47 1481.64 L1829.78 1481.64 L1829.78 1485.58 L1807.84 1485.58 L1807.84 1481.64 Q1810.5 1478.89 1815.09 1474.26 Q1819.69 1469.61 1820.87 1468.27 Q1823.12 1465.74 1824 1464.01 Q1824.9 1462.25 1824.9 1460.56 Q1824.9 1457.8 1822.96 1456.07 Q1821.03 1454.33 1817.93 1454.33 Q1815.73 1454.33 1813.28 1455.09 Q1810.85 1455.86 1808.07 1457.41 L1808.07 1452.69 Q1810.9 1451.55 1813.35 1450.97 Q1815.8 1450.39 1817.84 1450.39 Q1823.21 1450.39 1826.41 1453.08 Q1829.6 1455.77 1829.6 1460.26 Q1829.6 1462.39 1828.79 1464.31 Q1828 1466.2 1825.9 1468.8 Q1825.32 1469.47 1822.22 1472.69 Q1819.11 1475.88 1813.47 1481.64 Z" fill="#000000" fill-rule="nonzero" fill-opacity="1"></path><path clip-path="url(#clip310)" d="M1839.65 1451.02 L1858 1451.02 L1858 1454.96 L1843.93 1454.96 L1843.93 1463.43 Q1844.95 1463.08 1845.97 1462.92 Q1846.98 1462.73 1848 1462.73 Q1853.79 1462.73 1857.17 1465.9 Q1860.55 1469.08 1860.55 1474.49 Q1860.55 1480.07 1857.08 1483.17 Q1853.6 1486.25 1847.28 1486.25 Q1845.11 1486.25 1842.84 1485.88 Q1840.6 1485.51 1838.19 1484.77 L1838.19 1480.07 Q1840.27 1481.2 1842.49 1481.76 Q1844.72 1482.32 1847.19 1482.32 Q1851.2 1482.32 1853.53 1480.21 Q1855.87 1478.1 1855.87 1474.49 Q1855.87 1470.88 1853.53 1468.77 Q1851.2 1466.67 1847.19 1466.67 Q1845.32 1466.67 1843.44 1467.08 Q1841.59 1467.5 1839.65 1468.38 L1839.65 1451.02 Z" fill="#000000" fill-rule="nonzero" fill-opacity="1"></path><path clip-path="url(#clip310)" d="M2150 1466.95 Q2153.36 1467.66 2155.23 1469.93 Q2157.13 1472.2 2157.13 1475.53 Q2157.13 1480.65 2153.61 1483.45 Q2150.09 1486.25 2143.61 1486.25 Q2141.43 1486.25 2139.12 1485.81 Q2136.83 1485.39 2134.37 1484.54 L2134.37 1480.02 Q2136.32 1481.16 2138.63 1481.74 Q2140.95 1482.32 2143.47 1482.32 Q2147.87 1482.32 2150.16 1480.58 Q2152.48 1478.84 2152.48 1475.53 Q2152.48 1472.48 2150.32 1470.77 Q2148.19 1469.03 2144.37 1469.03 L2140.35 1469.03 L2140.35 1465.19 L2144.56 1465.19 Q2148.01 1465.19 2149.84 1463.82 Q2151.67 1462.43 2151.67 1459.84 Q2151.67 1457.18 2149.77 1455.77 Q2147.89 1454.33 2144.37 1454.33 Q2142.45 1454.33 2140.25 1454.75 Q2138.05 1455.16 2135.42 1456.04 L2135.42 1451.88 Q2138.08 1451.14 2140.39 1450.77 Q2142.73 1450.39 2144.79 1450.39 Q2150.11 1450.39 2153.22 1452.83 Q2156.32 1455.23 2156.32 1459.35 Q2156.32 1462.22 2154.67 1464.21 Q2153.03 1466.18 2150 1466.95 Z" fill="#000000" fill-rule="nonzero" fill-opacity="1"></path><path clip-path="url(#clip310)" d="M2175.99 1454.1 Q2172.38 1454.1 2170.55 1457.66 Q2168.75 1461.2 2168.75 1468.33 Q2168.75 1475.44 2170.55 1479.01 Q2172.38 1482.55 2175.99 1482.55 Q2179.63 1482.55 2181.43 1479.01 Q2183.26 1475.44 2183.26 1468.33 Q2183.26 1461.2 2181.43 1457.66 Q2179.63 1454.1 2175.99 1454.1 M2175.99 1450.39 Q2181.8 1450.39 2184.86 1455 Q2187.94 1459.58 2187.94 1468.33 Q2187.94 1477.06 2184.86 1481.67 Q2181.8 1486.25 2175.99 1486.25 Q2170.18 1486.25 2167.11 1481.67 Q2164.05 1477.06 2164.05 1468.33 Q2164.05 1459.58 2167.11 1455 Q2170.18 1450.39 2175.99 1450.39 Z" fill="#000000" fill-rule="nonzero" fill-opacity="1"></path><path clip-path="url(#clip310)" d="M1216.17 1522.08 L1216.17 1528.35 Q1212.51 1526.6 1209.26 1525.74 Q1206.01 1524.88 1202.99 1524.88 Q1197.74 1524.88 1194.87 1526.92 Q1192.04 1528.96 1192.04 1532.71 Q1192.04 1535.87 1193.92 1537.49 Q1195.83 1539.08 1201.11 1540.07 L1204.99 1540.86 Q1212.19 1542.23 1215.59 1545.7 Q1219.03 1549.14 1219.03 1554.93 Q1219.03 1561.84 1214.38 1565.4 Q1209.77 1568.97 1200.83 1568.97 Q1197.45 1568.97 1193.63 1568.2 Q1189.84 1567.44 1185.77 1565.94 L1185.77 1559.32 Q1189.69 1561.52 1193.44 1562.63 Q1197.2 1563.75 1200.83 1563.75 Q1206.33 1563.75 1209.32 1561.58 Q1212.32 1559.42 1212.32 1555.41 Q1212.32 1551.91 1210.15 1549.93 Q1208.02 1547.96 1203.12 1546.97 L1199.2 1546.21 Q1192.01 1544.78 1188.79 1541.72 Q1185.58 1538.67 1185.58 1533.22 Q1185.58 1526.92 1190 1523.29 Q1194.46 1519.66 1202.26 1519.66 Q1205.6 1519.66 1209.07 1520.27 Q1212.54 1520.87 1216.17 1522.08 Z" fill="#000000" fill-rule="nonzero" fill-opacity="1"></path><path clip-path="url(#clip310)" d="M1234.6 1522.27 L1234.6 1532.4 L1246.66 1532.4 L1246.66 1536.95 L1234.6 1536.95 L1234.6 1556.3 Q1234.6 1560.66 1235.77 1561.9 Q1236.98 1563.14 1240.64 1563.14 L1246.66 1563.14 L1246.66 1568.04 L1240.64 1568.04 Q1233.86 1568.04 1231.29 1565.53 Q1228.71 1562.98 1228.71 1556.3 L1228.71 1536.95 L1224.41 1536.95 L1224.41 1532.4 L1228.71 1532.4 L1228.71 1522.27 L1234.6 1522.27 Z" fill="#000000" fill-rule="nonzero" fill-opacity="1"></path><path clip-path="url(#clip310)" d="M1275.02 1537.87 Q1274.03 1537.3 1272.85 1537.04 Q1271.71 1536.76 1270.31 1536.76 Q1265.34 1536.76 1262.67 1540 Q1260.03 1543.22 1260.03 1549.27 L1260.03 1568.04 L1254.14 1568.04 L1254.14 1532.4 L1260.03 1532.4 L1260.03 1537.93 Q1261.87 1534.69 1264.83 1533.13 Q1267.79 1531.54 1272.03 1531.54 Q1272.63 1531.54 1273.36 1531.63 Q1274.09 1531.7 1274.99 1531.85 L1275.02 1537.87 Z" fill="#000000" fill-rule="nonzero" fill-opacity="1"></path><path clip-path="url(#clip310)" d="M1281.16 1532.4 L1287.02 1532.4 L1287.02 1568.04 L1281.16 1568.04 L1281.16 1532.4 M1281.16 1518.52 L1287.02 1518.52 L1287.02 1525.93 L1281.16 1525.93 L1281.16 1518.52 Z" fill="#000000" fill-rule="nonzero" fill-opacity="1"></path><path clip-path="url(#clip310)" d="M1322.73 1537.81 L1322.73 1518.52 L1328.59 1518.52 L1328.59 1568.04 L1322.73 1568.04 L1322.73 1562.7 Q1320.88 1565.88 1318.05 1567.44 Q1315.25 1568.97 1311.3 1568.97 Q1304.84 1568.97 1300.77 1563.81 Q1296.72 1558.65 1296.72 1550.25 Q1296.72 1541.85 1300.77 1536.69 Q1304.84 1531.54 1311.3 1531.54 Q1315.25 1531.54 1318.05 1533.1 Q1320.88 1534.62 1322.73 1537.81 M1302.77 1550.25 Q1302.77 1556.71 1305.41 1560.4 Q1308.09 1564.07 1312.73 1564.07 Q1317.38 1564.07 1320.06 1560.4 Q1322.73 1556.71 1322.73 1550.25 Q1322.73 1543.79 1320.06 1540.13 Q1317.38 1536.44 1312.73 1536.44 Q1308.09 1536.44 1305.41 1540.13 Q1302.77 1543.79 1302.77 1550.25 Z" fill="#000000" fill-rule="nonzero" fill-opacity="1"></path><path clip-path="url(#clip310)" d="M1371.14 1548.76 L1371.14 1551.62 L1344.21 1551.62 Q1344.59 1557.67 1347.84 1560.85 Q1351.12 1564 1356.94 1564 Q1360.32 1564 1363.47 1563.17 Q1366.65 1562.35 1369.77 1560.69 L1369.77 1566.23 Q1366.62 1567.57 1363.31 1568.27 Q1360 1568.97 1356.59 1568.97 Q1348.06 1568.97 1343.07 1564 Q1338.1 1559.04 1338.1 1550.57 Q1338.1 1541.82 1342.81 1536.69 Q1347.55 1531.54 1355.58 1531.54 Q1362.77 1531.54 1366.94 1536.18 Q1371.14 1540.8 1371.14 1548.76 M1365.28 1547.04 Q1365.22 1542.23 1362.58 1539.37 Q1359.97 1536.5 1355.64 1536.5 Q1350.74 1536.5 1347.78 1539.27 Q1344.85 1542.04 1344.4 1547.07 L1365.28 1547.04 Z" fill="#000000" fill-rule="nonzero" fill-opacity="1"></path><polyline clip-path="url(#clip312)" style="stroke:#000000; stroke-linecap:round; stroke-linejoin:round; stroke-width:2; stroke-opacity:0.1; fill:none" points="203.964,1384.24 2352.76,1384.24 "></polyline>
<polyline clip-path="url(#clip312)" style="stroke:#000000; stroke-linecap:round; stroke-linejoin:round; stroke-width:2; stroke-opacity:0.1; fill:none" points="203.964,965.512 2352.76,965.512 "></polyline>
<polyline clip-path="url(#clip312)" style="stroke:#000000; stroke-linecap:round; stroke-linejoin:round; stroke-width:2; stroke-opacity:0.1; fill:none" points="203.964,546.785 2352.76,546.785 "></polyline>
<polyline clip-path="url(#clip312)" style="stroke:#000000; stroke-linecap:round; stroke-linejoin:round; stroke-width:2; stroke-opacity:0.1; fill:none" points="203.964,128.058 2352.76,128.058 "></polyline>
<polyline clip-path="url(#clip310)" style="stroke:#000000; stroke-linecap:round; stroke-linejoin:round; stroke-width:4; stroke-opacity:1; fill:none" points="203.964,1423.18 203.964,47.2441 "></polyline>
<polyline clip-path="url(#clip310)" style="stroke:#000000; stroke-linecap:round; stroke-linejoin:round; stroke-width:4; stroke-opacity:1; fill:none" points="203.964,1384.24 222.861,1384.24 "></polyline>
<polyline clip-path="url(#clip310)" style="stroke:#000000; stroke-linecap:round; stroke-linejoin:round; stroke-width:4; stroke-opacity:1; fill:none" points="203.964,965.512 222.861,965.512 "></polyline>
<polyline clip-path="url(#clip310)" style="stroke:#000000; stroke-linecap:round; stroke-linejoin:round; stroke-width:4; stroke-opacity:1; fill:none" points="203.964,546.785 222.861,546.785 "></polyline>
<polyline clip-path="url(#clip310)" style="stroke:#000000; stroke-linecap:round; stroke-linejoin:round; stroke-width:4; stroke-opacity:1; fill:none" points="203.964,128.058 222.861,128.058 "></polyline>
<path clip-path="url(#clip310)" d="M156.019 1370.04 Q152.408 1370.04 150.579 1373.6 Q148.774 1377.14 148.774 1384.27 Q148.774 1391.38 150.579 1394.94 Q152.408 1398.49 156.019 1398.49 Q159.653 1398.49 161.459 1394.94 Q163.288 1391.38 163.288 1384.27 Q163.288 1377.14 161.459 1373.6 Q159.653 1370.04 156.019 1370.04 M156.019 1366.33 Q161.829 1366.33 164.885 1370.94 Q167.964 1375.52 167.964 1384.27 Q167.964 1393 164.885 1397.61 Q161.829 1402.19 156.019 1402.19 Q150.209 1402.19 147.13 1397.61 Q144.075 1393 144.075 1384.27 Q144.075 1375.52 147.13 1370.94 Q150.209 1366.33 156.019 1366.33 Z" fill="#000000" fill-rule="nonzero" fill-opacity="1"></path><path clip-path="url(#clip310)" d="M116.668 978.856 L124.306 978.856 L124.306 952.491 L115.996 954.158 L115.996 949.898 L124.26 948.232 L128.936 948.232 L128.936 978.856 L136.575 978.856 L136.575 982.792 L116.668 982.792 L116.668 978.856 Z" fill="#000000" fill-rule="nonzero" fill-opacity="1"></path><path clip-path="url(#clip310)" d="M156.019 951.31 Q152.408 951.31 150.579 954.875 Q148.774 958.417 148.774 965.546 Q148.774 972.653 150.579 976.218 Q152.408 979.759 156.019 979.759 Q159.653 979.759 161.459 976.218 Q163.288 972.653 163.288 965.546 Q163.288 958.417 161.459 954.875 Q159.653 951.31 156.019 951.31 M156.019 947.607 Q161.829 947.607 164.885 952.213 Q167.964 956.796 167.964 965.546 Q167.964 974.273 164.885 978.88 Q161.829 983.463 156.019 983.463 Q150.209 983.463 147.13 978.88 Q144.075 974.273 144.075 965.546 Q144.075 956.796 147.13 952.213 Q150.209 947.607 156.019 947.607 Z" fill="#000000" fill-rule="nonzero" fill-opacity="1"></path><path clip-path="url(#clip310)" d="M119.885 560.13 L136.204 560.13 L136.204 564.065 L114.26 564.065 L114.26 560.13 Q116.922 557.375 121.505 552.746 Q126.112 548.093 127.292 546.75 Q129.538 544.227 130.417 542.491 Q131.32 540.732 131.32 539.042 Q131.32 536.287 129.376 534.551 Q127.455 532.815 124.353 532.815 Q122.154 532.815 119.7 533.579 Q117.269 534.343 114.492 535.894 L114.492 531.172 Q117.316 530.037 119.769 529.459 Q122.223 528.88 124.26 528.88 Q129.63 528.88 132.825 531.565 Q136.019 534.25 136.019 538.741 Q136.019 540.871 135.209 542.792 Q134.422 544.69 132.316 547.283 Q131.737 547.954 128.635 551.172 Q125.533 554.366 119.885 560.13 Z" fill="#000000" fill-rule="nonzero" fill-opacity="1"></path><path clip-path="url(#clip310)" d="M156.019 532.584 Q152.408 532.584 150.579 536.148 Q148.774 539.69 148.774 546.82 Q148.774 553.926 150.579 557.491 Q152.408 561.033 156.019 561.033 Q159.653 561.033 161.459 557.491 Q163.288 553.926 163.288 546.82 Q163.288 539.69 161.459 536.148 Q159.653 532.584 156.019 532.584 M156.019 528.88 Q161.829 528.88 164.885 533.486 Q167.964 538.07 167.964 546.82 Q167.964 555.547 164.885 560.153 Q161.829 564.736 156.019 564.736 Q150.209 564.736 147.13 560.153 Q144.075 555.547 144.075 546.82 Q144.075 538.07 147.13 533.486 Q150.209 528.88 156.019 528.88 Z" fill="#000000" fill-rule="nonzero" fill-opacity="1"></path><path clip-path="url(#clip310)" d="M130.024 126.704 Q133.38 127.422 135.255 129.69 Q137.154 131.959 137.154 135.292 Q137.154 140.408 133.635 143.209 Q130.117 146.01 123.635 146.01 Q121.459 146.01 119.144 145.57 Q116.853 145.153 114.399 144.297 L114.399 139.783 Q116.343 140.917 118.658 141.496 Q120.973 142.074 123.496 142.074 Q127.894 142.074 130.186 140.338 Q132.501 138.602 132.501 135.292 Q132.501 132.237 130.348 130.524 Q128.218 128.787 124.399 128.787 L120.371 128.787 L120.371 124.945 L124.584 124.945 Q128.033 124.945 129.862 123.579 Q131.691 122.19 131.691 119.598 Q131.691 116.936 129.792 115.524 Q127.917 114.089 124.399 114.089 Q122.478 114.089 120.279 114.505 Q118.08 114.922 115.441 115.801 L115.441 111.635 Q118.103 110.894 120.418 110.524 Q122.755 110.153 124.816 110.153 Q130.14 110.153 133.242 112.584 Q136.343 114.991 136.343 119.112 Q136.343 121.982 134.7 123.973 Q133.056 125.94 130.024 126.704 Z" fill="#000000" fill-rule="nonzero" fill-opacity="1"></path><path clip-path="url(#clip310)" d="M156.019 113.857 Q152.408 113.857 150.579 117.422 Q148.774 120.963 148.774 128.093 Q148.774 135.2 150.579 138.764 Q152.408 142.306 156.019 142.306 Q159.653 142.306 161.459 138.764 Q163.288 135.2 163.288 128.093 Q163.288 120.963 161.459 117.422 Q159.653 113.857 156.019 113.857 M156.019 110.153 Q161.829 110.153 164.885 114.76 Q167.964 119.343 167.964 128.093 Q167.964 136.82 164.885 141.426 Q161.829 146.01 156.019 146.01 Q150.209 146.01 147.13 141.426 Q144.075 136.82 144.075 128.093 Q144.075 119.343 147.13 114.76 Q150.209 110.153 156.019 110.153 Z" fill="#000000" fill-rule="nonzero" fill-opacity="1"></path><path clip-path="url(#clip310)" d="M16.4842 1054.1 L16.4842 1045.44 L56.238 1024.37 L16.4842 1024.37 L16.4842 1018.14 L64.0042 1018.14 L64.0042 1026.79 L24.2503 1047.86 L64.0042 1047.86 L64.0042 1054.1 L16.4842 1054.1 Z" fill="#000000" fill-rule="nonzero" fill-opacity="1"></path><path clip-path="url(#clip310)" d="M49.9359 1006.2 L28.3562 1006.2 L28.3562 1000.34 L49.7131 1000.34 Q54.7739 1000.34 57.3202 998.37 Q59.8346 996.397 59.8346 992.45 Q59.8346 987.708 56.8109 984.97 Q53.7872 982.201 48.5673 982.201 L28.3562 982.201 L28.3562 976.345 L64.0042 976.345 L64.0042 982.201 L58.5296 982.201 Q61.7762 984.334 63.3676 987.167 Q64.9272 989.968 64.9272 993.691 Q64.9272 999.834 61.1078 1003.02 Q57.2883 1006.2 49.9359 1006.2 M27.4968 991.463 L27.4968 991.463 Z" fill="#000000" fill-rule="nonzero" fill-opacity="1"></path><path clip-path="url(#clip310)" d="M35.1993 936.527 Q31.2526 934.331 29.3747 931.276 Q27.4968 928.22 27.4968 924.082 Q27.4968 918.512 31.4117 915.489 Q35.2948 912.465 42.4881 912.465 L64.0042 912.465 L64.0042 918.353 L42.679 918.353 Q37.5546 918.353 35.072 920.168 Q32.5894 921.982 32.5894 925.706 Q32.5894 930.257 35.6131 932.899 Q38.6368 935.541 43.8567 935.541 L64.0042 935.541 L64.0042 941.429 L42.679 941.429 Q37.5228 941.429 35.072 943.243 Q32.5894 945.057 32.5894 948.845 Q32.5894 953.333 35.6449 955.975 Q38.6686 958.616 43.8567 958.616 L64.0042 958.616 L64.0042 964.505 L28.3562 964.505 L28.3562 958.616 L33.8944 958.616 Q30.616 956.611 29.0564 953.81 Q27.4968 951.009 27.4968 947.158 Q27.4968 943.275 29.4702 940.57 Q31.4436 937.832 35.1993 936.527 Z" fill="#000000" fill-rule="nonzero" fill-opacity="1"></path><path clip-path="url(#clip310)" d="M46.212 875.194 Q39.7508 875.194 36.0905 877.867 Q32.3984 880.509 32.3984 885.156 Q32.3984 889.803 36.0905 892.477 Q39.7508 895.119 46.212 895.119 Q52.6732 895.119 56.3653 892.477 Q60.0256 889.803 60.0256 885.156 Q60.0256 880.509 56.3653 877.867 Q52.6732 875.194 46.212 875.194 M33.7671 895.119 Q30.5842 893.272 29.0564 890.472 Q27.4968 887.639 27.4968 883.724 Q27.4968 877.231 32.6531 873.189 Q37.8093 869.115 46.212 869.115 Q54.6147 869.115 59.771 873.189 Q64.9272 877.231 64.9272 883.724 Q64.9272 887.639 63.3994 890.472 Q61.8398 893.272 58.657 895.119 L64.0042 895.119 L64.0042 901.007 L14.479 901.007 L14.479 895.119 L33.7671 895.119 Z" fill="#000000" fill-rule="nonzero" fill-opacity="1"></path><path clip-path="url(#clip310)" d="M44.7161 828.915 L47.5806 828.915 L47.5806 855.842 Q53.6281 855.46 56.8109 852.214 Q59.9619 848.935 59.9619 843.111 Q59.9619 839.737 59.1344 836.586 Q58.3069 833.403 56.6518 830.284 L62.1899 830.284 Q63.5267 833.435 64.227 836.745 Q64.9272 840.055 64.9272 843.461 Q64.9272 851.991 59.9619 856.988 Q54.9967 861.953 46.5303 861.953 Q37.7774 861.953 32.6531 857.243 Q27.4968 852.5 27.4968 844.479 Q27.4968 837.286 32.1438 833.117 Q36.7589 828.915 44.7161 828.915 M42.9973 834.772 Q38.1912 834.835 35.3266 837.477 Q32.4621 840.087 32.4621 844.416 Q32.4621 849.317 35.2312 852.277 Q38.0002 855.206 43.0292 855.651 L42.9973 834.772 Z" fill="#000000" fill-rule="nonzero" fill-opacity="1"></path><path clip-path="url(#clip310)" d="M33.8307 798.646 Q33.2578 799.633 33.0032 800.811 Q32.7167 801.956 32.7167 803.357 Q32.7167 808.322 35.9632 810.996 Q39.1779 813.637 45.2253 813.637 L64.0042 813.637 L64.0042 819.526 L28.3562 819.526 L28.3562 813.637 L33.8944 813.637 Q30.6479 811.791 29.0883 808.831 Q27.4968 805.871 27.4968 801.638 Q27.4968 801.033 27.5923 800.301 Q27.656 799.569 27.8151 798.678 L33.8307 798.646 Z" fill="#000000" fill-rule="nonzero" fill-opacity="1"></path><path clip-path="url(#clip310)" d="M32.4621 757.969 Q32.4621 762.68 36.1542 765.417 Q39.8145 768.155 46.212 768.155 Q52.6095 768.155 56.3017 765.449 Q59.9619 762.712 59.9619 757.969 Q59.9619 753.291 56.2698 750.553 Q52.5777 747.816 46.212 747.816 Q39.8781 747.816 36.186 750.553 Q32.4621 753.291 32.4621 757.969 M27.4968 757.969 Q27.4968 750.331 32.4621 745.97 Q37.4273 741.61 46.212 741.61 Q54.9649 741.61 59.9619 745.97 Q64.9272 750.331 64.9272 757.969 Q64.9272 765.64 59.9619 770.001 Q54.9649 774.329 46.212 774.329 Q37.4273 774.329 32.4621 770.001 Q27.4968 765.64 27.4968 757.969 Z" fill="#000000" fill-rule="nonzero" fill-opacity="1"></path><path clip-path="url(#clip310)" d="M14.479 713.855 L19.3487 713.855 L19.3487 719.457 Q19.3487 722.608 20.6219 723.849 Q21.895 725.059 25.2052 725.059 L28.3562 725.059 L28.3562 715.415 L32.9077 715.415 L32.9077 725.059 L64.0042 725.059 L64.0042 730.947 L32.9077 730.947 L32.9077 736.549 L28.3562 736.549 L28.3562 730.947 L25.8736 730.947 Q19.9216 730.947 17.2162 728.178 Q14.479 725.409 14.479 719.393 L14.479 713.855 Z" fill="#000000" fill-rule="nonzero" fill-opacity="1"></path><path clip-path="url(#clip310)" d="M20.1444 652.394 L26.9239 652.394 Q23.9002 655.641 22.4043 659.333 Q20.9083 662.993 20.9083 667.131 Q20.9083 675.279 25.9054 679.608 Q30.8707 683.936 40.2919 683.936 Q49.6813 683.936 54.6784 679.608 Q59.6436 675.279 59.6436 667.131 Q59.6436 662.993 58.1477 659.333 Q56.6518 655.641 53.6281 652.394 L60.3439 652.394 Q62.6355 655.768 63.7814 659.556 Q64.9272 663.311 64.9272 667.513 Q64.9272 678.303 58.3387 684.509 Q51.7183 690.716 40.2919 690.716 Q28.8336 690.716 22.2451 684.509 Q15.6248 678.303 15.6248 667.513 Q15.6248 663.248 16.7706 659.492 Q17.8846 655.704 20.1444 652.394 Z" fill="#000000" fill-rule="nonzero" fill-opacity="1"></path><path clip-path="url(#clip310)" d="M32.4621 628.905 Q32.4621 633.615 36.1542 636.353 Q39.8145 639.09 46.212 639.09 Q52.6095 639.09 56.3017 636.384 Q59.9619 633.647 59.9619 628.905 Q59.9619 624.226 56.2698 621.489 Q52.5777 618.751 46.212 618.751 Q39.8781 618.751 36.186 621.489 Q32.4621 624.226 32.4621 628.905 M27.4968 628.905 Q27.4968 621.266 32.4621 616.905 Q37.4273 612.545 46.212 612.545 Q54.9649 612.545 59.9619 616.905 Q64.9272 621.266 64.9272 628.905 Q64.9272 636.575 59.9619 640.936 Q54.9649 645.265 46.212 645.265 Q37.4273 645.265 32.4621 640.936 Q27.4968 636.575 27.4968 628.905 Z" fill="#000000" fill-rule="nonzero" fill-opacity="1"></path><path clip-path="url(#clip310)" d="M42.4881 573.205 L64.0042 573.205 L64.0042 579.061 L42.679 579.061 Q37.6183 579.061 35.1038 581.035 Q32.5894 583.008 32.5894 586.955 Q32.5894 591.697 35.6131 594.434 Q38.6368 597.172 43.8567 597.172 L64.0042 597.172 L64.0042 603.06 L28.3562 603.06 L28.3562 597.172 L33.8944 597.172 Q30.6797 595.071 29.0883 592.238 Q27.4968 589.374 27.4968 585.65 Q27.4968 579.507 31.3163 576.356 Q35.1038 573.205 42.4881 573.205 Z" fill="#000000" fill-rule="nonzero" fill-opacity="1"></path><path clip-path="url(#clip310)" d="M14.479 543.477 L19.3487 543.477 L19.3487 549.079 Q19.3487 552.23 20.6219 553.471 Q21.895 554.681 25.2052 554.681 L28.3562 554.681 L28.3562 545.036 L32.9077 545.036 L32.9077 554.681 L64.0042 554.681 L64.0042 560.569 L32.9077 560.569 L32.9077 566.171 L28.3562 566.171 L28.3562 560.569 L25.8736 560.569 Q19.9216 560.569 17.2162 557.8 Q14.479 555.031 14.479 549.015 L14.479 543.477 Z" fill="#000000" fill-rule="nonzero" fill-opacity="1"></path><path clip-path="url(#clip310)" d="M14.479 538.575 L14.479 532.719 L64.0042 532.719 L64.0042 538.575 L14.479 538.575 Z" fill="#000000" fill-rule="nonzero" fill-opacity="1"></path><path clip-path="url(#clip310)" d="M28.3562 520.465 L28.3562 514.608 L64.0042 514.608 L64.0042 520.465 L28.3562 520.465 M14.479 520.465 L14.479 514.608 L21.895 514.608 L21.895 520.465 L14.479 520.465 Z" fill="#000000" fill-rule="nonzero" fill-opacity="1"></path><path clip-path="url(#clip310)" d="M29.7248 476.701 L35.1993 476.701 Q33.8307 479.183 33.1623 481.698 Q32.4621 484.18 32.4621 486.727 Q32.4621 492.424 36.0905 495.575 Q39.6872 498.726 46.212 498.726 Q52.7369 498.726 56.3653 495.575 Q59.9619 492.424 59.9619 486.727 Q59.9619 484.18 59.2935 481.698 Q58.5933 479.183 57.2247 476.701 L62.6355 476.701 Q63.7814 479.151 64.3543 481.793 Q64.9272 484.403 64.9272 487.363 Q64.9272 495.416 59.8664 500.158 Q54.8057 504.901 46.212 504.901 Q37.491 504.901 32.4939 500.126 Q27.4968 495.32 27.4968 486.981 Q27.4968 484.276 28.0697 481.698 Q28.6108 479.12 29.7248 476.701 Z" fill="#000000" fill-rule="nonzero" fill-opacity="1"></path><path clip-path="url(#clip310)" d="M18.2347 460.723 L28.3562 460.723 L28.3562 448.66 L32.9077 448.66 L32.9077 460.723 L52.2594 460.723 Q56.6199 460.723 57.8613 459.545 Q59.1026 458.336 59.1026 454.675 L59.1026 448.66 L64.0042 448.66 L64.0042 454.675 Q64.0042 461.455 61.4897 464.033 Q58.9434 466.611 52.2594 466.611 L32.9077 466.611 L32.9077 470.908 L28.3562 470.908 L28.3562 466.611 L18.2347 466.611 L18.2347 460.723 Z" fill="#000000" fill-rule="nonzero" fill-opacity="1"></path><path clip-path="url(#clip310)" d="M29.4065 418.232 L34.9447 418.232 Q33.6716 420.714 33.035 423.388 Q32.3984 426.061 32.3984 428.926 Q32.3984 433.287 33.7352 435.483 Q35.072 437.647 37.7456 437.647 Q39.7826 437.647 40.9603 436.087 Q42.1061 434.528 43.1565 429.817 L43.6021 427.812 Q44.9389 421.574 47.3897 418.964 Q49.8086 416.322 54.1691 416.322 Q59.1344 416.322 62.0308 420.269 Q64.9272 424.184 64.9272 431.059 Q64.9272 433.923 64.3543 437.042 Q63.8132 440.13 62.6992 443.567 L56.6518 443.567 Q58.3387 440.321 59.198 437.17 Q60.0256 434.019 60.0256 430.931 Q60.0256 426.793 58.6251 424.565 Q57.1929 422.337 54.6147 422.337 Q52.2276 422.337 50.9545 423.961 Q49.6813 425.552 48.5037 430.995 L48.0262 433.032 Q46.8804 438.475 44.5251 440.894 Q42.138 443.312 38.0002 443.312 Q32.9713 443.312 30.2341 439.748 Q27.4968 436.183 27.4968 429.626 Q27.4968 426.38 27.9743 423.515 Q28.4517 420.651 29.4065 418.232 Z" fill="#000000" fill-rule="nonzero" fill-opacity="1"></path><circle clip-path="url(#clip312)" cx="264.778" cy="1384.24" r="14.4" fill="#009af9" fill-rule="evenodd" fill-opacity="1" stroke="#000000" stroke-opacity="1" stroke-width="3.2"></circle>
<circle clip-path="url(#clip312)" cx="330.171" cy="714.276" r="14.4" fill="#009af9" fill-rule="evenodd" fill-opacity="1" stroke="#000000" stroke-opacity="1" stroke-width="3.2"></circle>
<circle clip-path="url(#clip312)" cx="395.563" cy="1384.24" r="14.4" fill="#009af9" fill-rule="evenodd" fill-opacity="1" stroke="#000000" stroke-opacity="1" stroke-width="3.2"></circle>
<circle clip-path="url(#clip312)" cx="460.955" cy="379.294" r="14.4" fill="#009af9" fill-rule="evenodd" fill-opacity="1" stroke="#000000" stroke-opacity="1" stroke-width="3.2"></circle>
<circle clip-path="url(#clip312)" cx="526.348" cy="1384.24" r="14.4" fill="#009af9" fill-rule="evenodd" fill-opacity="1" stroke="#000000" stroke-opacity="1" stroke-width="3.2"></circle>
<circle clip-path="url(#clip312)" cx="591.74" cy="714.276" r="14.4" fill="#009af9" fill-rule="evenodd" fill-opacity="1" stroke="#000000" stroke-opacity="1" stroke-width="3.2"></circle>
<circle clip-path="url(#clip312)" cx="657.132" cy="1384.24" r="14.4" fill="#009af9" fill-rule="evenodd" fill-opacity="1" stroke="#000000" stroke-opacity="1" stroke-width="3.2"></circle>
<circle clip-path="url(#clip312)" cx="722.525" cy="211.804" r="14.4" fill="#009af9" fill-rule="evenodd" fill-opacity="1" stroke="#000000" stroke-opacity="1" stroke-width="3.2"></circle>
<circle clip-path="url(#clip312)" cx="787.917" cy="1384.24" r="14.4" fill="#009af9" fill-rule="evenodd" fill-opacity="1" stroke="#000000" stroke-opacity="1" stroke-width="3.2"></circle>
<circle clip-path="url(#clip312)" cx="853.31" cy="714.276" r="14.4" fill="#009af9" fill-rule="evenodd" fill-opacity="1" stroke="#000000" stroke-opacity="1" stroke-width="3.2"></circle>
<circle clip-path="url(#clip312)" cx="918.702" cy="1384.24" r="14.4" fill="#009af9" fill-rule="evenodd" fill-opacity="1" stroke="#000000" stroke-opacity="1" stroke-width="3.2"></circle>
<circle clip-path="url(#clip312)" cx="984.094" cy="379.294" r="14.4" fill="#009af9" fill-rule="evenodd" fill-opacity="1" stroke="#000000" stroke-opacity="1" stroke-width="3.2"></circle>
<circle clip-path="url(#clip312)" cx="1049.49" cy="1384.24" r="14.4" fill="#009af9" fill-rule="evenodd" fill-opacity="1" stroke="#000000" stroke-opacity="1" stroke-width="3.2"></circle>
<circle clip-path="url(#clip312)" cx="1114.88" cy="714.276" r="14.4" fill="#009af9" fill-rule="evenodd" fill-opacity="1" stroke="#000000" stroke-opacity="1" stroke-width="3.2"></circle>
<circle clip-path="url(#clip312)" cx="1180.27" cy="1384.24" r="14.4" fill="#009af9" fill-rule="evenodd" fill-opacity="1" stroke="#000000" stroke-opacity="1" stroke-width="3.2"></circle>
<circle clip-path="url(#clip312)" cx="1245.66" cy="128.058" r="14.4" fill="#009af9" fill-rule="evenodd" fill-opacity="1" stroke="#000000" stroke-opacity="1" stroke-width="3.2"></circle>
<circle clip-path="url(#clip312)" cx="1311.06" cy="1384.24" r="14.4" fill="#009af9" fill-rule="evenodd" fill-opacity="1" stroke="#000000" stroke-opacity="1" stroke-width="3.2"></circle>
<circle clip-path="url(#clip312)" cx="1376.45" cy="714.276" r="14.4" fill="#009af9" fill-rule="evenodd" fill-opacity="1" stroke="#000000" stroke-opacity="1" stroke-width="3.2"></circle>
<circle clip-path="url(#clip312)" cx="1441.84" cy="1384.24" r="14.4" fill="#009af9" fill-rule="evenodd" fill-opacity="1" stroke="#000000" stroke-opacity="1" stroke-width="3.2"></circle>
<circle clip-path="url(#clip312)" cx="1507.23" cy="379.294" r="14.4" fill="#009af9" fill-rule="evenodd" fill-opacity="1" stroke="#000000" stroke-opacity="1" stroke-width="3.2"></circle>
<circle clip-path="url(#clip312)" cx="1572.63" cy="1384.24" r="14.4" fill="#009af9" fill-rule="evenodd" fill-opacity="1" stroke="#000000" stroke-opacity="1" stroke-width="3.2"></circle>
<circle clip-path="url(#clip312)" cx="1638.02" cy="714.276" r="14.4" fill="#009af9" fill-rule="evenodd" fill-opacity="1" stroke="#000000" stroke-opacity="1" stroke-width="3.2"></circle>
<circle clip-path="url(#clip312)" cx="1703.41" cy="1384.24" r="14.4" fill="#009af9" fill-rule="evenodd" fill-opacity="1" stroke="#000000" stroke-opacity="1" stroke-width="3.2"></circle>
<circle clip-path="url(#clip312)" cx="1768.8" cy="211.804" r="14.4" fill="#009af9" fill-rule="evenodd" fill-opacity="1" stroke="#000000" stroke-opacity="1" stroke-width="3.2"></circle>
<circle clip-path="url(#clip312)" cx="1834.19" cy="1384.24" r="14.4" fill="#009af9" fill-rule="evenodd" fill-opacity="1" stroke="#000000" stroke-opacity="1" stroke-width="3.2"></circle>
<circle clip-path="url(#clip312)" cx="1899.59" cy="714.276" r="14.4" fill="#009af9" fill-rule="evenodd" fill-opacity="1" stroke="#000000" stroke-opacity="1" stroke-width="3.2"></circle>
<circle clip-path="url(#clip312)" cx="1964.98" cy="1384.24" r="14.4" fill="#009af9" fill-rule="evenodd" fill-opacity="1" stroke="#000000" stroke-opacity="1" stroke-width="3.2"></circle>
<circle clip-path="url(#clip312)" cx="2030.37" cy="379.294" r="14.4" fill="#009af9" fill-rule="evenodd" fill-opacity="1" stroke="#000000" stroke-opacity="1" stroke-width="3.2"></circle>
<circle clip-path="url(#clip312)" cx="2095.76" cy="1384.24" r="14.4" fill="#009af9" fill-rule="evenodd" fill-opacity="1" stroke="#000000" stroke-opacity="1" stroke-width="3.2"></circle>
<circle clip-path="url(#clip312)" cx="2161.16" cy="714.276" r="14.4" fill="#009af9" fill-rule="evenodd" fill-opacity="1" stroke="#000000" stroke-opacity="1" stroke-width="3.2"></circle>
<circle clip-path="url(#clip312)" cx="2226.55" cy="1384.24" r="14.4" fill="#009af9" fill-rule="evenodd" fill-opacity="1" stroke="#000000" stroke-opacity="1" stroke-width="3.2"></circle>
<circle clip-path="url(#clip312)" cx="2291.94" cy="86.1857" r="14.4" fill="#009af9" fill-rule="evenodd" fill-opacity="1" stroke="#000000" stroke-opacity="1" stroke-width="3.2"></circle>
<path clip-path="url(#clip310)" d="M275.59 196.789 L542.899 196.789 L542.899 93.1086 L275.59 93.1086  Z" fill="#ffffff" fill-rule="evenodd" fill-opacity="1"></path>
<polyline clip-path="url(#clip310)" style="stroke:#000000; stroke-linecap:round; stroke-linejoin:round; stroke-width:4; stroke-opacity:1; fill:none" points="275.59,196.789 542.899,196.789 542.899,93.1086 275.59,93.1086 275.59,196.789 "></polyline>
<circle clip-path="url(#clip310)" cx="371.092" cy="144.949" r="20.48" fill="#009af9" fill-rule="evenodd" fill-opacity="1" stroke="#000000" stroke-opacity="1" stroke-width="4.55111"></circle>
<path clip-path="url(#clip310)" d="M480.436 164.636 Q478.631 169.266 476.918 170.678 Q475.205 172.09 472.334 172.09 L468.932 172.09 L468.932 168.525 L471.432 168.525 Q473.191 168.525 474.163 167.692 Q475.135 166.858 476.316 163.756 L477.08 161.812 L466.594 136.303 L471.108 136.303 L479.209 156.581 L487.311 136.303 L491.825 136.303 L480.436 164.636 Z" fill="#000000" fill-rule="nonzero" fill-opacity="1"></path><path clip-path="url(#clip310)" d="M499.117 158.293 L506.756 158.293 L506.756 131.928 L498.445 133.595 L498.445 129.335 L506.709 127.669 L511.385 127.669 L511.385 158.293 L519.024 158.293 L519.024 162.229 L499.117 162.229 L499.117 158.293 Z" fill="#000000" fill-rule="nonzero" fill-opacity="1"></path></svg>