<svg xmlns="http://www.w3.org/2000/svg" xmlns:xlink="http://www.w3.org/1999/xlink" width="600" height="400" viewBox="0 0 2400 1600">
<defs>
  <clipPath id="clip980">
    <rect x="0" y="0" width="2400" height="1600"></rect>
  </clipPath>
</defs>
<path clip-path="url(#clip980)" d="M0 1600 L2400 1600 L2400 0 L0 0  Z" fill="#ffffff" fill-rule="evenodd" fill-opacity="1"></path>
<defs>
  <clipPath id="clip981">
    <rect x="480" y="0" width="1681" height="1600"></rect>
  </clipPath>
</defs>
<path clip-path="url(#clip980)" d="M247.459 1410.9 L2352.76 1410.9 L2352.76 47.2441 L247.459 47.2441  Z" fill="#ffffff" fill-rule="evenodd" fill-opacity="1"></path>
<defs>
  <clipPath id="clip982">
    <rect x="247" y="47" width="2106" height="1365"></rect>
  </clipPath>
</defs>
<polyline clip-path="url(#clip982)" style="stroke:#000000; stroke-linecap:round; stroke-linejoin:round; stroke-width:2; stroke-opacity:0.1; fill:none" points="361.295,1410.9 361.295,47.2441 "></polyline>
<polyline clip-path="url(#clip982)" style="stroke:#000000; stroke-linecap:round; stroke-linejoin:round; stroke-width:2; stroke-opacity:0.1; fill:none" points="985.864,1410.9 985.864,47.2441 "></polyline>
<polyline clip-path="url(#clip982)" style="stroke:#000000; stroke-linecap:round; stroke-linejoin:round; stroke-width:2; stroke-opacity:0.1; fill:none" points="1610.43,1410.9 1610.43,47.2441 "></polyline>
<polyline clip-path="url(#clip982)" style="stroke:#000000; stroke-linecap:round; stroke-linejoin:round; stroke-width:2; stroke-opacity:0.1; fill:none" points="2235,1410.9 2235,47.2441 "></polyline>
<polyline clip-path="url(#clip980)" style="stroke:#000000; stroke-linecap:round; stroke-linejoin:round; stroke-width:4; stroke-opacity:1; fill:none" points="247.459,1410.9 2352.76,1410.9 "></polyline>
<polyline clip-path="url(#clip980)" style="stroke:#000000; stroke-linecap:round; stroke-linejoin:round; stroke-width:4; stroke-opacity:1; fill:none" points="361.295,1410.9 361.295,1392 "></polyline>
<polyline clip-path="url(#clip980)" style="stroke:#000000; stroke-linecap:round; stroke-linejoin:round; stroke-width:4; stroke-opacity:1; fill:none" points="985.864,1410.9 985.864,1392 "></polyline>
<polyline clip-path="url(#clip980)" style="stroke:#000000; stroke-linecap:round; stroke-linejoin:round; stroke-width:4; stroke-opacity:1; fill:none" points="1610.43,1410.9 1610.43,1392 "></polyline>
<polyline clip-path="url(#clip980)" style="stroke:#000000; stroke-linecap:round; stroke-linejoin:round; stroke-width:4; stroke-opacity:1; fill:none" points="2235,1410.9 2235,1392 "></polyline>
<path clip-path="url(#clip980)" d="M182.407 1485.02 L190.046 1485.02 L190.046 1458.66 L181.736 1460.32 L181.736 1456.06 L190 1454.4 L194.676 1454.4 L194.676 1485.02 L202.315 1485.02 L202.315 1488.96 L182.407 1488.96 L182.407 1485.02 Z" fill="#000000" fill-rule="nonzero" fill-opacity="1"></path><path clip-path="url(#clip980)" d="M211.759 1483.08 L216.643 1483.08 L216.643 1488.96 L211.759 1488.96 L211.759 1483.08 Z" fill="#000000" fill-rule="nonzero" fill-opacity="1"></path><path clip-path="url(#clip980)" d="M240.995 1470.32 Q244.351 1471.04 246.226 1473.31 Q248.124 1475.58 248.124 1478.91 Q248.124 1484.03 244.606 1486.83 Q241.087 1489.63 234.606 1489.63 Q232.43 1489.63 230.115 1489.19 Q227.824 1488.77 225.37 1487.91 L225.37 1483.4 Q227.314 1484.54 229.629 1485.11 Q231.944 1485.69 234.467 1485.69 Q238.865 1485.69 241.157 1483.96 Q243.472 1482.22 243.472 1478.91 Q243.472 1475.85 241.319 1474.14 Q239.189 1472.41 235.37 1472.41 L231.342 1472.41 L231.342 1468.56 L235.555 1468.56 Q239.004 1468.56 240.833 1467.2 Q242.662 1465.81 242.662 1463.22 Q242.662 1460.55 240.763 1459.14 Q238.888 1457.71 235.37 1457.71 Q233.449 1457.71 231.25 1458.12 Q229.05 1458.54 226.412 1459.42 L226.412 1455.25 Q229.074 1454.51 231.388 1454.14 Q233.726 1453.77 235.787 1453.77 Q241.111 1453.77 244.212 1456.2 Q247.314 1458.61 247.314 1462.73 Q247.314 1465.6 245.671 1467.59 Q244.027 1469.56 240.995 1470.32 Z" fill="#000000" fill-rule="nonzero" fill-opacity="1"></path><path clip-path="url(#clip980)" d="M269.837 1458.47 L258.032 1476.92 L269.837 1476.92 L269.837 1458.47 M268.61 1454.4 L274.49 1454.4 L274.49 1476.92 L279.421 1476.92 L279.421 1480.81 L274.49 1480.81 L274.49 1488.96 L269.837 1488.96 L269.837 1480.81 L254.236 1480.81 L254.236 1476.29 L268.61 1454.4 Z" fill="#000000" fill-rule="nonzero" fill-opacity="1"></path><path clip-path="url(#clip980)" d="M299.999 1458.47 L288.194 1476.92 L299.999 1476.92 L299.999 1458.47 M298.772 1454.4 L304.652 1454.4 L304.652 1476.92 L309.582 1476.92 L309.582 1480.81 L304.652 1480.81 L304.652 1488.96 L299.999 1488.96 L299.999 1480.81 L284.397 1480.81 L284.397 1476.29 L298.772 1454.4 Z" fill="#000000" fill-rule="nonzero" fill-opacity="1"></path><path clip-path="url(#clip980)" d="M321.342 1485.02 L337.661 1485.02 L337.661 1488.96 L315.717 1488.96 L315.717 1485.02 Q318.379 1482.27 322.962 1477.64 Q327.568 1472.98 328.749 1471.64 Q330.994 1469.12 331.874 1467.38 Q332.777 1465.62 332.777 1463.93 Q332.777 1461.18 330.832 1459.44 Q328.911 1457.71 325.809 1457.71 Q323.61 1457.71 321.156 1458.47 Q318.726 1459.23 315.948 1460.79 L315.948 1456.06 Q318.772 1454.93 321.226 1454.35 Q323.68 1453.77 325.717 1453.77 Q331.087 1453.77 334.281 1456.46 Q337.476 1459.14 337.476 1463.63 Q337.476 1465.76 336.666 1467.68 Q335.879 1469.58 333.772 1472.17 Q333.193 1472.85 330.092 1476.06 Q326.99 1479.26 321.342 1485.02 Z" fill="#000000" fill-rule="nonzero" fill-opacity="1"></path><path clip-path="url(#clip980)" d="M361.642 1470.32 Q364.999 1471.04 366.874 1473.31 Q368.772 1475.58 368.772 1478.91 Q368.772 1484.03 365.253 1486.83 Q361.735 1489.63 355.254 1489.63 Q353.078 1489.63 350.763 1489.19 Q348.471 1488.77 346.017 1487.91 L346.017 1483.4 Q347.962 1484.54 350.277 1485.11 Q352.591 1485.69 355.115 1485.69 Q359.513 1485.69 361.804 1483.96 Q364.119 1482.22 364.119 1478.91 Q364.119 1475.85 361.966 1474.14 Q359.837 1472.41 356.017 1472.41 L351.99 1472.41 L351.99 1468.56 L356.203 1468.56 Q359.652 1468.56 361.48 1467.2 Q363.309 1465.81 363.309 1463.22 Q363.309 1460.55 361.411 1459.14 Q359.536 1457.71 356.017 1457.71 Q354.096 1457.71 351.897 1458.12 Q349.698 1458.54 347.059 1459.42 L347.059 1455.25 Q349.721 1454.51 352.036 1454.14 Q354.374 1453.77 356.434 1453.77 Q361.758 1453.77 364.86 1456.2 Q367.962 1458.61 367.962 1462.73 Q367.962 1465.6 366.318 1467.59 Q364.675 1469.56 361.642 1470.32 Z" fill="#000000" fill-rule="nonzero" fill-opacity="1"></path><path clip-path="url(#clip980)" d="M387.638 1457.48 Q384.027 1457.48 382.198 1461.04 Q380.392 1464.58 380.392 1471.71 Q380.392 1478.82 382.198 1482.38 Q384.027 1485.92 387.638 1485.92 Q391.272 1485.92 393.077 1482.38 Q394.906 1478.82 394.906 1471.71 Q394.906 1464.58 393.077 1461.04 Q391.272 1457.48 387.638 1457.48 M387.638 1453.77 Q393.448 1453.77 396.503 1458.38 Q399.582 1462.96 399.582 1471.71 Q399.582 1480.44 396.503 1485.04 Q393.448 1489.63 387.638 1489.63 Q381.827 1489.63 378.749 1485.04 Q375.693 1480.44 375.693 1471.71 Q375.693 1462.96 378.749 1458.38 Q381.827 1453.77 387.638 1453.77 Z" fill="#000000" fill-rule="nonzero" fill-opacity="1"></path><path clip-path="url(#clip980)" d="M435.971 1463.49 L425.392 1474.12 L435.971 1484.7 L433.216 1487.5 L422.591 1476.87 L411.966 1487.5 L409.235 1484.7 L419.79 1474.12 L409.235 1463.49 L411.966 1460.69 L422.591 1471.32 L433.216 1460.69 L435.971 1463.49 Z" fill="#000000" fill-rule="nonzero" fill-opacity="1"></path><path clip-path="url(#clip980)" d="M448.332 1485.02 L455.971 1485.02 L455.971 1458.66 L447.66 1460.32 L447.66 1456.06 L455.924 1454.4 L460.6 1454.4 L460.6 1485.02 L468.239 1485.02 L468.239 1488.96 L448.332 1488.96 L448.332 1485.02 Z" fill="#000000" fill-rule="nonzero" fill-opacity="1"></path><path clip-path="url(#clip980)" d="M487.683 1457.48 Q484.072 1457.48 482.244 1461.04 Q480.438 1464.58 480.438 1471.71 Q480.438 1478.82 482.244 1482.38 Q484.072 1485.92 487.683 1485.92 Q491.318 1485.92 493.123 1482.38 Q494.952 1478.82 494.952 1471.71 Q494.952 1464.58 493.123 1461.04 Q491.318 1457.48 487.683 1457.48 M487.683 1453.77 Q493.494 1453.77 496.549 1458.38 Q499.628 1462.96 499.628 1471.71 Q499.628 1480.44 496.549 1485.04 Q493.494 1489.63 487.683 1489.63 Q481.873 1489.63 478.795 1485.04 Q475.739 1480.44 475.739 1471.71 Q475.739 1462.96 478.795 1458.38 Q481.873 1453.77 487.683 1453.77 Z" fill="#000000" fill-rule="nonzero" fill-opacity="1"></path><path clip-path="url(#clip980)" d="M500.173 1458.35 L506.38 1458.35 L506.38 1436.93 L499.628 1438.28 L499.628 1434.82 L506.342 1433.47 L510.141 1433.47 L510.141 1458.35 L516.348 1458.35 L516.348 1461.55 L500.173 1461.55 L500.173 1458.35 Z" fill="#000000" fill-rule="nonzero" fill-opacity="1"></path><path clip-path="url(#clip980)" d="M524.68 1458.35 L530.886 1458.35 L530.886 1436.93 L524.134 1438.28 L524.134 1434.82 L530.849 1433.47 L534.648 1433.47 L534.648 1458.35 L540.854 1458.35 L540.854 1461.55 L524.68 1461.55 L524.68 1458.35 Z" fill="#000000" fill-rule="nonzero" fill-opacity="1"></path><path clip-path="url(#clip980)" d="M806.976 1485.02 L814.615 1485.02 L814.615 1458.66 L806.305 1460.32 L806.305 1456.06 L814.569 1454.4 L819.245 1454.4 L819.245 1485.02 L826.884 1485.02 L826.884 1488.96 L806.976 1488.96 L806.976 1485.02 Z" fill="#000000" fill-rule="nonzero" fill-opacity="1"></path><path clip-path="url(#clip980)" d="M836.328 1483.08 L841.212 1483.08 L841.212 1488.96 L836.328 1488.96 L836.328 1483.08 Z" fill="#000000" fill-rule="nonzero" fill-opacity="1"></path><path clip-path="url(#clip980)" d="M865.564 1470.32 Q868.92 1471.04 870.795 1473.31 Q872.693 1475.58 872.693 1478.91 Q872.693 1484.03 869.175 1486.83 Q865.656 1489.63 859.175 1489.63 Q856.999 1489.63 854.684 1489.19 Q852.393 1488.77 849.939 1487.91 L849.939 1483.4 Q851.883 1484.54 854.198 1485.11 Q856.513 1485.69 859.036 1485.69 Q863.434 1485.69 865.726 1483.96 Q868.041 1482.22 868.041 1478.91 Q868.041 1475.85 865.888 1474.14 Q863.758 1472.41 859.939 1472.41 L855.911 1472.41 L855.911 1468.56 L860.124 1468.56 Q863.573 1468.56 865.402 1467.2 Q867.231 1465.81 867.231 1463.22 Q867.231 1460.55 865.332 1459.14 Q863.457 1457.71 859.939 1457.71 Q858.018 1457.71 855.819 1458.12 Q853.619 1458.54 850.981 1459.42 L850.981 1455.25 Q853.643 1454.51 855.957 1454.14 Q858.295 1453.77 860.356 1453.77 Q865.68 1453.77 868.781 1456.2 Q871.883 1458.61 871.883 1462.73 Q871.883 1465.6 870.24 1467.59 Q868.596 1469.56 865.564 1470.32 Z" fill="#000000" fill-rule="nonzero" fill-opacity="1"></path><path clip-path="url(#clip980)" d="M894.406 1458.47 L882.601 1476.92 L894.406 1476.92 L894.406 1458.47 M893.179 1454.4 L899.059 1454.4 L899.059 1476.92 L903.99 1476.92 L903.99 1480.81 L899.059 1480.81 L899.059 1488.96 L894.406 1488.96 L894.406 1480.81 L878.805 1480.81 L878.805 1476.29 L893.179 1454.4 Z" fill="#000000" fill-rule="nonzero" fill-opacity="1"></path><path clip-path="url(#clip980)" d="M924.568 1458.47 L912.763 1476.92 L924.568 1476.92 L924.568 1458.47 M923.341 1454.4 L929.221 1454.4 L929.221 1476.92 L934.151 1476.92 L934.151 1480.81 L929.221 1480.81 L929.221 1488.96 L924.568 1488.96 L924.568 1480.81 L908.966 1480.81 L908.966 1476.29 L923.341 1454.4 Z" fill="#000000" fill-rule="nonzero" fill-opacity="1"></path><path clip-path="url(#clip980)" d="M945.911 1485.02 L962.23 1485.02 L962.23 1488.96 L940.286 1488.96 L940.286 1485.02 Q942.948 1482.27 947.531 1477.64 Q952.137 1472.98 953.318 1471.64 Q955.563 1469.12 956.443 1467.38 Q957.346 1465.62 957.346 1463.93 Q957.346 1461.18 955.401 1459.44 Q953.48 1457.71 950.378 1457.71 Q948.179 1457.71 945.725 1458.47 Q943.295 1459.23 940.517 1460.79 L940.517 1456.06 Q943.341 1454.93 945.795 1454.35 Q948.249 1453.77 950.286 1453.77 Q955.656 1453.77 958.85 1456.46 Q962.045 1459.14 962.045 1463.63 Q962.045 1465.76 961.235 1467.68 Q960.448 1469.58 958.341 1472.17 Q957.762 1472.85 954.661 1476.06 Q951.559 1479.26 945.911 1485.02 Z" fill="#000000" fill-rule="nonzero" fill-opacity="1"></path><path clip-path="url(#clip980)" d="M984.892 1458.47 L973.086 1476.92 L984.892 1476.92 L984.892 1458.47 M983.665 1454.4 L989.545 1454.4 L989.545 1476.92 L994.475 1476.92 L994.475 1480.81 L989.545 1480.81 L989.545 1488.96 L984.892 1488.96 L984.892 1480.81 L969.29 1480.81 L969.29 1476.29 L983.665 1454.4 Z" fill="#000000" fill-rule="nonzero" fill-opacity="1"></path><path clip-path="url(#clip980)" d="M1012.21 1457.48 Q1008.6 1457.48 1006.77 1461.04 Q1004.96 1464.58 1004.96 1471.71 Q1004.96 1478.82 1006.77 1482.38 Q1008.6 1485.92 1012.21 1485.92 Q1015.84 1485.92 1017.65 1482.38 Q1019.48 1478.82 1019.48 1471.71 Q1019.48 1464.58 1017.65 1461.04 Q1015.84 1457.48 1012.21 1457.48 M1012.21 1453.77 Q1018.02 1453.77 1021.07 1458.38 Q1024.15 1462.96 1024.15 1471.71 Q1024.15 1480.44 1021.07 1485.04 Q1018.02 1489.63 1012.21 1489.63 Q1006.4 1489.63 1003.32 1485.04 Q1000.26 1480.44 1000.26 1471.71 Q1000.26 1462.96 1003.32 1458.38 Q1006.4 1453.77 1012.21 1453.77 Z" fill="#000000" fill-rule="nonzero" fill-opacity="1"></path><path clip-path="url(#clip980)" d="M1060.54 1463.49 L1049.96 1474.12 L1060.54 1484.7 L1057.79 1487.5 L1047.16 1476.87 L1036.54 1487.5 L1033.8 1484.7 L1044.36 1474.12 L1033.8 1463.49 L1036.54 1460.69 L1047.16 1471.32 L1057.79 1460.69 L1060.54 1463.49 Z" fill="#000000" fill-rule="nonzero" fill-opacity="1"></path><path clip-path="url(#clip980)" d="M1072.9 1485.02 L1080.54 1485.02 L1080.54 1458.66 L1072.23 1460.32 L1072.23 1456.06 L1080.49 1454.4 L1085.17 1454.4 L1085.17 1485.02 L1092.81 1485.02 L1092.81 1488.96 L1072.9 1488.96 L1072.9 1485.02 Z" fill="#000000" fill-rule="nonzero" fill-opacity="1"></path><path clip-path="url(#clip980)" d="M1112.25 1457.48 Q1108.64 1457.48 1106.81 1461.04 Q1105.01 1464.58 1105.01 1471.71 Q1105.01 1478.82 1106.81 1482.38 Q1108.64 1485.92 1112.25 1485.92 Q1115.89 1485.92 1117.69 1482.38 Q1119.52 1478.82 1119.52 1471.71 Q1119.52 1464.58 1117.69 1461.04 Q1115.89 1457.48 1112.25 1457.48 M1112.25 1453.77 Q1118.06 1453.77 1121.12 1458.38 Q1124.2 1462.96 1124.2 1471.71 Q1124.2 1480.44 1121.12 1485.04 Q1118.06 1489.63 1112.25 1489.63 Q1106.44 1489.63 1103.36 1485.04 Q1100.31 1480.44 1100.31 1471.71 Q1100.31 1462.96 1103.36 1458.38 Q1106.44 1453.77 1112.25 1453.77 Z" fill="#000000" fill-rule="nonzero" fill-opacity="1"></path><path clip-path="url(#clip980)" d="M1124.74 1458.35 L1130.95 1458.35 L1130.95 1436.93 L1124.2 1438.28 L1124.2 1434.82 L1130.91 1433.47 L1134.71 1433.47 L1134.71 1458.35 L1140.92 1458.35 L1140.92 1461.55 L1124.74 1461.55 L1124.74 1458.35 Z" fill="#000000" fill-rule="nonzero" fill-opacity="1"></path><path clip-path="url(#clip980)" d="M1149.25 1458.35 L1155.46 1458.35 L1155.46 1436.93 L1148.7 1438.28 L1148.7 1434.82 L1155.42 1433.47 L1159.22 1433.47 L1159.22 1458.35 L1165.42 1458.35 L1165.42 1461.55 L1149.25 1461.55 L1149.25 1458.35 Z" fill="#000000" fill-rule="nonzero" fill-opacity="1"></path><path clip-path="url(#clip980)" d="M1431.55 1485.02 L1439.18 1485.02 L1439.18 1458.66 L1430.87 1460.32 L1430.87 1456.06 L1439.14 1454.4 L1443.81 1454.4 L1443.81 1485.02 L1451.45 1485.02 L1451.45 1488.96 L1431.55 1488.96 L1431.55 1485.02 Z" fill="#000000" fill-rule="nonzero" fill-opacity="1"></path><path clip-path="url(#clip980)" d="M1460.9 1483.08 L1465.78 1483.08 L1465.78 1488.96 L1460.9 1488.96 L1460.9 1483.08 Z" fill="#000000" fill-rule="nonzero" fill-opacity="1"></path><path clip-path="url(#clip980)" d="M1490.13 1470.32 Q1493.49 1471.04 1495.36 1473.31 Q1497.26 1475.58 1497.26 1478.91 Q1497.26 1484.03 1493.74 1486.83 Q1490.23 1489.63 1483.74 1489.63 Q1481.57 1489.63 1479.25 1489.19 Q1476.96 1488.77 1474.51 1487.91 L1474.51 1483.4 Q1476.45 1484.54 1478.77 1485.11 Q1481.08 1485.69 1483.61 1485.69 Q1488 1485.69 1490.29 1483.96 Q1492.61 1482.22 1492.61 1478.91 Q1492.61 1475.85 1490.46 1474.14 Q1488.33 1472.41 1484.51 1472.41 L1480.48 1472.41 L1480.48 1468.56 L1484.69 1468.56 Q1488.14 1468.56 1489.97 1467.2 Q1491.8 1465.81 1491.8 1463.22 Q1491.8 1460.55 1489.9 1459.14 Q1488.03 1457.71 1484.51 1457.71 Q1482.59 1457.71 1480.39 1458.12 Q1478.19 1458.54 1475.55 1459.42 L1475.55 1455.25 Q1478.21 1454.51 1480.53 1454.14 Q1482.86 1453.77 1484.92 1453.77 Q1490.25 1453.77 1493.35 1456.2 Q1496.45 1458.61 1496.45 1462.73 Q1496.45 1465.6 1494.81 1467.59 Q1493.17 1469.56 1490.13 1470.32 Z" fill="#000000" fill-rule="nonzero" fill-opacity="1"></path><path clip-path="url(#clip980)" d="M1518.98 1458.47 L1507.17 1476.92 L1518.98 1476.92 L1518.98 1458.47 M1517.75 1454.4 L1523.63 1454.4 L1523.63 1476.92 L1528.56 1476.92 L1528.56 1480.81 L1523.63 1480.81 L1523.63 1488.96 L1518.98 1488.96 L1518.98 1480.81 L1503.37 1480.81 L1503.37 1476.29 L1517.75 1454.4 Z" fill="#000000" fill-rule="nonzero" fill-opacity="1"></path><path clip-path="url(#clip980)" d="M1549.14 1458.47 L1537.33 1476.92 L1549.14 1476.92 L1549.14 1458.47 M1547.91 1454.4 L1553.79 1454.4 L1553.79 1476.92 L1558.72 1476.92 L1558.72 1480.81 L1553.79 1480.81 L1553.79 1488.96 L1549.14 1488.96 L1549.14 1480.81 L1533.54 1480.81 L1533.54 1476.29 L1547.91 1454.4 Z" fill="#000000" fill-rule="nonzero" fill-opacity="1"></path><path clip-path="url(#clip980)" d="M1570.48 1485.02 L1586.8 1485.02 L1586.8 1488.96 L1564.85 1488.96 L1564.85 1485.02 Q1567.52 1482.27 1572.1 1477.64 Q1576.71 1472.98 1577.89 1471.64 Q1580.13 1469.12 1581.01 1467.38 Q1581.91 1465.62 1581.91 1463.93 Q1581.91 1461.18 1579.97 1459.44 Q1578.05 1457.71 1574.95 1457.71 Q1572.75 1457.71 1570.29 1458.47 Q1567.86 1459.23 1565.09 1460.79 L1565.09 1456.06 Q1567.91 1454.93 1570.36 1454.35 Q1572.82 1453.77 1574.85 1453.77 Q1580.22 1453.77 1583.42 1456.46 Q1586.61 1459.14 1586.61 1463.63 Q1586.61 1465.76 1585.8 1467.68 Q1585.02 1469.58 1582.91 1472.17 Q1582.33 1472.85 1579.23 1476.06 Q1576.13 1479.26 1570.48 1485.02 Z" fill="#000000" fill-rule="nonzero" fill-opacity="1"></path><path clip-path="url(#clip980)" d="M1596.66 1454.4 L1615.02 1454.4 L1615.02 1458.33 L1600.94 1458.33 L1600.94 1466.8 Q1601.96 1466.46 1602.98 1466.29 Q1604 1466.11 1605.02 1466.11 Q1610.8 1466.11 1614.18 1469.28 Q1617.56 1472.45 1617.56 1477.87 Q1617.56 1483.45 1614.09 1486.55 Q1610.62 1489.63 1604.3 1489.63 Q1602.12 1489.63 1599.85 1489.26 Q1597.61 1488.89 1595.2 1488.15 L1595.2 1483.45 Q1597.29 1484.58 1599.51 1485.14 Q1601.73 1485.69 1604.21 1485.69 Q1608.21 1485.69 1610.55 1483.59 Q1612.89 1481.48 1612.89 1477.87 Q1612.89 1474.26 1610.55 1472.15 Q1608.21 1470.04 1604.21 1470.04 Q1602.33 1470.04 1600.46 1470.46 Q1598.6 1470.88 1596.66 1471.76 L1596.66 1454.4 Z" fill="#000000" fill-rule="nonzero" fill-opacity="1"></path><path clip-path="url(#clip980)" d="M1636.78 1457.48 Q1633.16 1457.48 1631.34 1461.04 Q1629.53 1464.58 1629.53 1471.71 Q1629.53 1478.82 1631.34 1482.38 Q1633.16 1485.92 1636.78 1485.92 Q1640.41 1485.92 1642.22 1482.38 Q1644.04 1478.82 1644.04 1471.71 Q1644.04 1464.58 1642.22 1461.04 Q1640.41 1457.48 1636.78 1457.48 M1636.78 1453.77 Q1642.59 1453.77 1645.64 1458.38 Q1648.72 1462.96 1648.72 1471.71 Q1648.72 1480.44 1645.64 1485.04 Q1642.59 1489.63 1636.78 1489.63 Q1630.97 1489.63 1627.89 1485.04 Q1624.83 1480.44 1624.83 1471.71 Q1624.83 1462.96 1627.89 1458.38 Q1630.97 1453.77 1636.78 1453.77 Z" fill="#000000" fill-rule="nonzero" fill-opacity="1"></path><path clip-path="url(#clip980)" d="M1685.11 1463.49 L1674.53 1474.12 L1685.11 1484.7 L1682.35 1487.5 L1671.73 1476.87 L1661.1 1487.5 L1658.37 1484.7 L1668.93 1474.12 L1658.37 1463.49 L1661.1 1460.69 L1671.73 1471.32 L1682.35 1460.69 L1685.11 1463.49 Z" fill="#000000" fill-rule="nonzero" fill-opacity="1"></path><path clip-path="url(#clip980)" d="M1697.47 1485.02 L1705.11 1485.02 L1705.11 1458.66 L1696.8 1460.32 L1696.8 1456.06 L1705.06 1454.4 L1709.74 1454.4 L1709.74 1485.02 L1717.38 1485.02 L1717.38 1488.96 L1697.47 1488.96 L1697.47 1485.02 Z" fill="#000000" fill-rule="nonzero" fill-opacity="1"></path><path clip-path="url(#clip980)" d="M1736.82 1457.48 Q1733.21 1457.48 1731.38 1461.04 Q1729.58 1464.58 1729.58 1471.71 Q1729.58 1478.82 1731.38 1482.38 Q1733.21 1485.92 1736.82 1485.92 Q1740.46 1485.92 1742.26 1482.38 Q1744.09 1478.82 1744.09 1471.71 Q1744.09 1464.58 1742.26 1461.04 Q1740.46 1457.48 1736.82 1457.48 M1736.82 1453.77 Q1742.63 1453.77 1745.69 1458.38 Q1748.77 1462.96 1748.77 1471.71 Q1748.77 1480.44 1745.69 1485.04 Q1742.63 1489.63 1736.82 1489.63 Q1731.01 1489.63 1727.93 1485.04 Q1724.88 1480.44 1724.88 1471.71 Q1724.88 1462.96 1727.93 1458.38 Q1731.01 1453.77 1736.82 1453.77 Z" fill="#000000" fill-rule="nonzero" fill-opacity="1"></path><path clip-path="url(#clip980)" d="M1749.31 1458.35 L1755.52 1458.35 L1755.52 1436.93 L1748.77 1438.28 L1748.77 1434.82 L1755.48 1433.47 L1759.28 1433.47 L1759.28 1458.35 L1765.49 1458.35 L1765.49 1461.55 L1749.31 1461.55 L1749.31 1458.35 Z" fill="#000000" fill-rule="nonzero" fill-opacity="1"></path><path clip-path="url(#clip980)" d="M1773.82 1458.35 L1780.02 1458.35 L1780.02 1436.93 L1773.27 1438.28 L1773.27 1434.82 L1779.99 1433.47 L1783.79 1433.47 L1783.79 1458.35 L1789.99 1458.35 L1789.99 1461.55 L1773.82 1461.55 L1773.82 1458.35 Z" fill="#000000" fill-rule="nonzero" fill-opacity="1"></path><path clip-path="url(#clip980)" d="M2056.11 1485.02 L2063.75 1485.02 L2063.75 1458.66 L2055.44 1460.32 L2055.44 1456.06 L2063.71 1454.4 L2068.38 1454.4 L2068.38 1485.02 L2076.02 1485.02 L2076.02 1488.96 L2056.11 1488.96 L2056.11 1485.02 Z" fill="#000000" fill-rule="nonzero" fill-opacity="1"></path><path clip-path="url(#clip980)" d="M2085.47 1483.08 L2090.35 1483.08 L2090.35 1488.96 L2085.47 1488.96 L2085.47 1483.08 Z" fill="#000000" fill-rule="nonzero" fill-opacity="1"></path><path clip-path="url(#clip980)" d="M2114.7 1470.32 Q2118.06 1471.04 2119.93 1473.31 Q2121.83 1475.58 2121.83 1478.91 Q2121.83 1484.03 2118.31 1486.83 Q2114.79 1489.63 2108.31 1489.63 Q2106.14 1489.63 2103.82 1489.19 Q2101.53 1488.77 2099.08 1487.91 L2099.08 1483.4 Q2101.02 1484.54 2103.34 1485.11 Q2105.65 1485.69 2108.17 1485.69 Q2112.57 1485.69 2114.86 1483.96 Q2117.18 1482.22 2117.18 1478.91 Q2117.18 1475.85 2115.03 1474.14 Q2112.9 1472.41 2109.08 1472.41 L2105.05 1472.41 L2105.05 1468.56 L2109.26 1468.56 Q2112.71 1468.56 2114.54 1467.2 Q2116.37 1465.81 2116.37 1463.22 Q2116.37 1460.55 2114.47 1459.14 Q2112.6 1457.71 2109.08 1457.71 Q2107.16 1457.71 2104.96 1458.12 Q2102.76 1458.54 2100.12 1459.42 L2100.12 1455.25 Q2102.78 1454.51 2105.1 1454.14 Q2107.43 1453.77 2109.49 1453.77 Q2114.82 1453.77 2117.92 1456.2 Q2121.02 1458.61 2121.02 1462.73 Q2121.02 1465.6 2119.38 1467.59 Q2117.73 1469.56 2114.7 1470.32 Z" fill="#000000" fill-rule="nonzero" fill-opacity="1"></path><path clip-path="url(#clip980)" d="M2143.54 1458.47 L2131.74 1476.92 L2143.54 1476.92 L2143.54 1458.47 M2142.32 1454.4 L2148.2 1454.4 L2148.2 1476.92 L2153.13 1476.92 L2153.13 1480.81 L2148.2 1480.81 L2148.2 1488.96 L2143.54 1488.96 L2143.54 1480.81 L2127.94 1480.81 L2127.94 1476.29 L2142.32 1454.4 Z" fill="#000000" fill-rule="nonzero" fill-opacity="1"></path><path clip-path="url(#clip980)" d="M2173.71 1458.47 L2161.9 1476.92 L2173.71 1476.92 L2173.71 1458.47 M2172.48 1454.4 L2178.36 1454.4 L2178.36 1476.92 L2183.29 1476.92 L2183.29 1480.81 L2178.36 1480.81 L2178.36 1488.96 L2173.71 1488.96 L2173.71 1480.81 L2158.1 1480.81 L2158.1 1476.29 L2172.48 1454.4 Z" fill="#000000" fill-rule="nonzero" fill-opacity="1"></path><path clip-path="url(#clip980)" d="M2195.05 1485.02 L2211.37 1485.02 L2211.37 1488.96 L2189.42 1488.96 L2189.42 1485.02 Q2192.09 1482.27 2196.67 1477.64 Q2201.28 1472.98 2202.46 1471.64 Q2204.7 1469.12 2205.58 1467.38 Q2206.48 1465.62 2206.48 1463.93 Q2206.48 1461.18 2204.54 1459.44 Q2202.62 1457.71 2199.52 1457.71 Q2197.32 1457.71 2194.86 1458.47 Q2192.43 1459.23 2189.66 1460.79 L2189.66 1456.06 Q2192.48 1454.93 2194.93 1454.35 Q2197.39 1453.77 2199.42 1453.77 Q2204.79 1453.77 2207.99 1456.46 Q2211.18 1459.14 2211.18 1463.63 Q2211.18 1465.76 2210.37 1467.68 Q2209.59 1469.58 2207.48 1472.17 Q2206.9 1472.85 2203.8 1476.06 Q2200.7 1479.26 2195.05 1485.02 Z" fill="#000000" fill-rule="nonzero" fill-opacity="1"></path><path clip-path="url(#clip980)" d="M2231.76 1469.81 Q2228.61 1469.81 2226.76 1471.97 Q2224.93 1474.12 2224.93 1477.87 Q2224.93 1481.6 2226.76 1483.77 Q2228.61 1485.92 2231.76 1485.92 Q2234.91 1485.92 2236.74 1483.77 Q2238.59 1481.6 2238.59 1477.87 Q2238.59 1474.12 2236.74 1471.97 Q2234.91 1469.81 2231.76 1469.81 M2241.04 1455.16 L2241.04 1459.42 Q2239.28 1458.59 2237.48 1458.15 Q2235.7 1457.71 2233.94 1457.71 Q2229.31 1457.71 2226.85 1460.83 Q2224.42 1463.96 2224.08 1470.28 Q2225.44 1468.26 2227.5 1467.2 Q2229.56 1466.11 2232.04 1466.11 Q2237.25 1466.11 2240.26 1469.28 Q2243.29 1472.43 2243.29 1477.87 Q2243.29 1483.19 2240.14 1486.41 Q2236.99 1489.63 2231.76 1489.63 Q2225.77 1489.63 2222.59 1485.04 Q2219.42 1480.44 2219.42 1471.71 Q2219.42 1463.52 2223.31 1458.66 Q2227.2 1453.77 2233.75 1453.77 Q2235.51 1453.77 2237.29 1454.12 Q2239.1 1454.47 2241.04 1455.16 Z" fill="#000000" fill-rule="nonzero" fill-opacity="1"></path><path clip-path="url(#clip980)" d="M2261.34 1457.48 Q2257.73 1457.48 2255.9 1461.04 Q2254.1 1464.58 2254.1 1471.71 Q2254.1 1478.82 2255.9 1482.38 Q2257.73 1485.92 2261.34 1485.92 Q2264.98 1485.92 2266.78 1482.38 Q2268.61 1478.82 2268.61 1471.71 Q2268.61 1464.58 2266.78 1461.04 Q2264.98 1457.48 2261.34 1457.48 M2261.34 1453.77 Q2267.15 1453.77 2270.21 1458.38 Q2273.29 1462.96 2273.29 1471.71 Q2273.29 1480.44 2270.21 1485.04 Q2267.15 1489.63 2261.34 1489.63 Q2255.53 1489.63 2252.46 1485.04 Q2249.4 1480.44 2249.4 1471.71 Q2249.4 1462.96 2252.46 1458.38 Q2255.53 1453.77 2261.34 1453.77 Z" fill="#000000" fill-rule="nonzero" fill-opacity="1"></path><path clip-path="url(#clip980)" d="M2309.68 1463.49 L2299.1 1474.12 L2309.68 1484.7 L2306.92 1487.5 L2296.3 1476.87 L2285.67 1487.5 L2282.94 1484.7 L2293.5 1474.12 L2282.94 1463.49 L2285.67 1460.69 L2296.3 1471.32 L2306.92 1460.69 L2309.68 1463.49 Z" fill="#000000" fill-rule="nonzero" fill-opacity="1"></path><path clip-path="url(#clip980)" d="M2322.04 1485.02 L2329.68 1485.02 L2329.68 1458.66 L2321.37 1460.32 L2321.37 1456.06 L2329.63 1454.4 L2334.31 1454.4 L2334.31 1485.02 L2341.95 1485.02 L2341.95 1488.96 L2322.04 1488.96 L2322.04 1485.02 Z" fill="#000000" fill-rule="nonzero" fill-opacity="1"></path><path clip-path="url(#clip980)" d="M2361.39 1457.48 Q2357.78 1457.48 2355.95 1461.04 Q2354.15 1464.58 2354.15 1471.71 Q2354.15 1478.82 2355.95 1482.38 Q2357.78 1485.92 2361.39 1485.92 Q2365.02 1485.92 2366.83 1482.38 Q2368.66 1478.82 2368.66 1471.71 Q2368.66 1464.58 2366.83 1461.04 Q2365.02 1457.48 2361.39 1457.48 M2361.39 1453.77 Q2367.2 1453.77 2370.26 1458.38 Q2373.33 1462.96 2373.33 1471.71 Q2373.33 1480.44 2370.26 1485.04 Q2367.2 1489.63 2361.39 1489.63 Q2355.58 1489.63 2352.5 1485.04 Q2349.45 1480.44 2349.45 1471.71 Q2349.45 1462.96 2352.5 1458.38 Q2355.58 1453.77 2361.39 1453.77 Z" fill="#000000" fill-rule="nonzero" fill-opacity="1"></path><path clip-path="url(#clip980)" d="M2373.88 1458.35 L2380.09 1458.35 L2380.09 1436.93 L2373.33 1438.28 L2373.33 1434.82 L2380.05 1433.47 L2383.85 1433.47 L2383.85 1458.35 L2390.05 1458.35 L2390.05 1461.55 L2373.88 1461.55 L2373.88 1458.35 Z" fill="#000000" fill-rule="nonzero" fill-opacity="1"></path><path clip-path="url(#clip980)" d="M2398.39 1458.35 L2404.59 1458.35 L2404.59 1436.93 L2397.84 1438.28 L2397.84 1434.82 L2404.56 1433.47 L2408.35 1433.47 L2408.35 1458.35 L2414.56 1458.35 L2414.56 1461.55 L2398.39 1461.55 L2398.39 1458.35 Z" fill="#000000" fill-rule="nonzero" fill-opacity="1"></path><path clip-path="url(#clip980)" d="M1054.58 1567.41 L1054.58 1554.64 L1044.08 1554.64 L1044.08 1549.36 L1060.95 1549.36 L1060.95 1569.76 Q1057.22 1572.4 1052.74 1573.77 Q1048.25 1575.11 1043.16 1575.11 Q1032.02 1575.11 1025.71 1568.62 Q1019.44 1562.09 1019.44 1550.47 Q1019.44 1538.82 1025.71 1532.33 Q1032.02 1525.81 1043.16 1525.81 Q1047.8 1525.81 1051.97 1526.95 Q1056.17 1528.1 1059.71 1530.33 L1059.71 1537.17 Q1056.14 1534.15 1052.13 1532.62 Q1048.12 1531.09 1043.7 1531.09 Q1034.98 1531.09 1030.58 1535.96 Q1026.22 1540.83 1026.22 1550.47 Q1026.22 1560.09 1030.58 1564.96 Q1034.98 1569.82 1043.7 1569.82 Q1047.1 1569.82 1049.78 1569.25 Q1052.45 1568.65 1054.58 1567.41 Z" fill="#000000" fill-rule="nonzero" fill-opacity="1"></path><path clip-path="url(#clip980)" d="M1079.12 1531.95 L1079.12 1549.8 L1087.21 1549.8 Q1091.69 1549.8 1094.14 1547.48 Q1096.6 1545.16 1096.6 1540.86 Q1096.6 1536.6 1094.14 1534.27 Q1091.69 1531.95 1087.21 1531.95 L1079.12 1531.95 M1072.69 1526.67 L1087.21 1526.67 Q1095.2 1526.67 1099.27 1530.29 Q1103.38 1533.89 1103.38 1540.86 Q1103.38 1547.9 1099.27 1551.49 Q1095.2 1555.09 1087.21 1555.09 L1079.12 1555.09 L1079.12 1574.19 L1072.69 1574.19 L1072.69 1526.67 Z" fill="#000000" fill-rule="nonzero" fill-opacity="1"></path><path clip-path="url(#clip980)" d="M1111.27 1526.67 L1117.73 1526.67 L1117.73 1555.53 Q1117.73 1563.17 1120.5 1566.55 Q1123.27 1569.89 1129.47 1569.89 Q1135.65 1569.89 1138.42 1566.55 Q1141.19 1563.17 1141.19 1555.53 L1141.19 1526.67 L1147.65 1526.67 L1147.65 1556.33 Q1147.65 1565.62 1143.03 1570.37 Q1138.45 1575.11 1129.47 1575.11 Q1120.47 1575.11 1115.85 1570.37 Q1111.27 1565.62 1111.27 1556.33 L1111.27 1526.67 Z" fill="#000000" fill-rule="nonzero" fill-opacity="1"></path><path clip-path="url(#clip980)" d="M1216.02 1530.33 L1216.02 1537.11 Q1212.77 1534.08 1209.08 1532.59 Q1205.42 1531.09 1201.28 1531.09 Q1193.13 1531.09 1188.8 1536.09 Q1184.47 1541.05 1184.47 1550.47 Q1184.47 1559.86 1188.8 1564.86 Q1193.13 1569.82 1201.28 1569.82 Q1205.42 1569.82 1209.08 1568.33 Q1212.77 1566.83 1216.02 1563.81 L1216.02 1570.53 Q1212.64 1572.82 1208.85 1573.96 Q1205.1 1575.11 1200.9 1575.11 Q1190.11 1575.11 1183.9 1568.52 Q1177.69 1561.9 1177.69 1550.47 Q1177.69 1539.01 1183.9 1532.43 Q1190.11 1525.81 1200.9 1525.81 Q1205.16 1525.81 1208.92 1526.95 Q1212.71 1528.07 1216.02 1530.33 Z" fill="#000000" fill-rule="nonzero" fill-opacity="1"></path><path clip-path="url(#clip980)" d="M1225.69 1524.66 L1231.55 1524.66 L1231.55 1574.19 L1225.69 1574.19 L1225.69 1524.66 Z" fill="#000000" fill-rule="nonzero" fill-opacity="1"></path><path clip-path="url(#clip980)" d="M1257.62 1542.64 Q1252.91 1542.64 1250.17 1546.34 Q1247.43 1550 1247.43 1556.39 Q1247.43 1562.79 1250.14 1566.48 Q1252.87 1570.14 1257.62 1570.14 Q1262.3 1570.14 1265.03 1566.45 Q1267.77 1562.76 1267.77 1556.39 Q1267.77 1550.06 1265.03 1546.37 Q1262.3 1542.64 1257.62 1542.64 M1257.62 1537.68 Q1265.26 1537.68 1269.62 1542.64 Q1273.98 1547.61 1273.98 1556.39 Q1273.98 1565.15 1269.62 1570.14 Q1265.26 1575.11 1257.62 1575.11 Q1249.95 1575.11 1245.59 1570.14 Q1241.26 1565.15 1241.26 1556.39 Q1241.26 1547.61 1245.59 1542.64 Q1249.95 1537.68 1257.62 1537.68 Z" fill="#000000" fill-rule="nonzero" fill-opacity="1"></path><path clip-path="url(#clip980)" d="M1309.34 1539.91 L1309.34 1545.38 Q1306.85 1544.01 1304.34 1543.34 Q1301.86 1542.64 1299.31 1542.64 Q1293.61 1542.64 1290.46 1546.27 Q1287.31 1549.87 1287.31 1556.39 Q1287.31 1562.92 1290.46 1566.55 Q1293.61 1570.14 1299.31 1570.14 Q1301.86 1570.14 1304.34 1569.47 Q1306.85 1568.77 1309.34 1567.41 L1309.34 1572.82 Q1306.89 1573.96 1304.25 1574.54 Q1301.64 1575.11 1298.68 1575.11 Q1290.62 1575.11 1285.88 1570.05 Q1281.14 1564.99 1281.14 1556.39 Q1281.14 1547.67 1285.91 1542.68 Q1290.72 1537.68 1299.06 1537.68 Q1301.76 1537.68 1304.34 1538.25 Q1306.92 1538.79 1309.34 1539.91 Z" fill="#000000" fill-rule="nonzero" fill-opacity="1"></path><path clip-path="url(#clip980)" d="M1319.3 1524.66 L1325.19 1524.66 L1325.19 1553.91 L1342.66 1538.54 L1350.14 1538.54 L1331.24 1555.22 L1350.94 1574.19 L1343.3 1574.19 L1325.19 1556.78 L1325.19 1574.19 L1319.3 1574.19 L1319.3 1524.66 Z" fill="#000000" fill-rule="nonzero" fill-opacity="1"></path><path clip-path="url(#clip980)" d="M1413.83 1530.33 L1413.83 1537.11 Q1410.58 1534.08 1406.89 1532.59 Q1403.23 1531.09 1399.09 1531.09 Q1390.95 1531.09 1386.62 1536.09 Q1382.29 1541.05 1382.29 1550.47 Q1382.29 1559.86 1386.62 1564.86 Q1390.95 1569.82 1399.09 1569.82 Q1403.23 1569.82 1406.89 1568.33 Q1410.58 1566.83 1413.83 1563.81 L1413.83 1570.53 Q1410.46 1572.82 1406.67 1573.96 Q1402.91 1575.11 1398.71 1575.11 Q1387.92 1575.11 1381.72 1568.52 Q1375.51 1561.9 1375.51 1550.47 Q1375.51 1539.01 1381.72 1532.43 Q1387.92 1525.81 1398.71 1525.81 Q1402.98 1525.81 1406.73 1526.95 Q1410.52 1528.07 1413.83 1530.33 Z" fill="#000000" fill-rule="nonzero" fill-opacity="1"></path><path clip-path="url(#clip980)" d="M1438.34 1577.5 Q1435.86 1583.86 1433.5 1585.8 Q1431.15 1587.74 1427.2 1587.74 L1422.52 1587.74 L1422.52 1582.84 L1425.96 1582.84 Q1428.38 1582.84 1429.71 1581.7 Q1431.05 1580.55 1432.67 1576.29 L1433.72 1573.61 L1419.31 1538.54 L1425.51 1538.54 L1436.65 1566.42 L1447.79 1538.54 L1454 1538.54 L1438.34 1577.5 Z" fill="#000000" fill-rule="nonzero" fill-opacity="1"></path><path clip-path="url(#clip980)" d="M1487.74 1539.91 L1487.74 1545.38 Q1485.25 1544.01 1482.74 1543.34 Q1480.26 1542.64 1477.71 1542.64 Q1472.01 1542.64 1468.86 1546.27 Q1465.71 1549.87 1465.71 1556.39 Q1465.71 1562.92 1468.86 1566.55 Q1472.01 1570.14 1477.71 1570.14 Q1480.26 1570.14 1482.74 1569.47 Q1485.25 1568.77 1487.74 1567.41 L1487.74 1572.82 Q1485.29 1573.96 1482.64 1574.54 Q1480.03 1575.11 1477.07 1575.11 Q1469.02 1575.11 1464.28 1570.05 Q1459.54 1564.99 1459.54 1556.39 Q1459.54 1547.67 1464.31 1542.68 Q1469.12 1537.68 1477.46 1537.68 Q1480.16 1537.68 1482.74 1538.25 Q1485.32 1538.79 1487.74 1539.91 Z" fill="#000000" fill-rule="nonzero" fill-opacity="1"></path><path clip-path="url(#clip980)" d="M1497.92 1524.66 L1503.78 1524.66 L1503.78 1574.19 L1497.92 1574.19 L1497.92 1524.66 Z" fill="#000000" fill-rule="nonzero" fill-opacity="1"></path><path clip-path="url(#clip980)" d="M1546.52 1554.9 L1546.52 1557.76 L1519.6 1557.76 Q1519.98 1563.81 1523.23 1566.99 Q1526.5 1570.14 1532.33 1570.14 Q1535.7 1570.14 1538.85 1569.32 Q1542.04 1568.49 1545.16 1566.83 L1545.16 1572.37 Q1542 1573.71 1538.69 1574.41 Q1535.38 1575.11 1531.98 1575.11 Q1523.45 1575.11 1518.45 1570.14 Q1513.49 1565.18 1513.49 1556.71 Q1513.49 1547.96 1518.2 1542.83 Q1522.94 1537.68 1530.96 1537.68 Q1538.15 1537.68 1542.32 1542.33 Q1546.52 1546.94 1546.52 1554.9 M1540.67 1553.18 Q1540.6 1548.37 1537.96 1545.51 Q1535.35 1542.64 1531.02 1542.64 Q1526.12 1542.64 1523.16 1545.41 Q1520.23 1548.18 1519.79 1553.21 L1540.67 1553.18 Z" fill="#000000" fill-rule="nonzero" fill-opacity="1"></path><path clip-path="url(#clip980)" d="M1578.86 1539.59 L1578.86 1545.13 Q1576.38 1543.85 1573.71 1543.22 Q1571.03 1542.58 1568.17 1542.58 Q1563.81 1542.58 1561.61 1543.92 Q1559.45 1545.25 1559.45 1547.93 Q1559.45 1549.96 1561.01 1551.14 Q1562.57 1552.29 1567.28 1553.34 L1569.28 1553.78 Q1575.52 1555.12 1578.13 1557.57 Q1580.77 1559.99 1580.77 1564.35 Q1580.77 1569.32 1576.82 1572.21 Q1572.91 1575.11 1566.03 1575.11 Q1563.17 1575.11 1560.05 1574.54 Q1556.96 1573.99 1553.53 1572.88 L1553.53 1566.83 Q1556.77 1568.52 1559.92 1569.38 Q1563.07 1570.21 1566.16 1570.21 Q1570.3 1570.21 1572.53 1568.81 Q1574.76 1567.37 1574.76 1564.8 Q1574.76 1562.41 1573.13 1561.14 Q1571.54 1559.86 1566.1 1558.68 L1564.06 1558.21 Q1558.62 1557.06 1556.2 1554.71 Q1553.78 1552.32 1553.78 1548.18 Q1553.78 1543.15 1557.35 1540.42 Q1560.91 1537.68 1567.47 1537.68 Q1570.71 1537.68 1573.58 1538.16 Q1576.44 1538.63 1578.86 1539.59 Z" fill="#000000" fill-rule="nonzero" fill-opacity="1"></path><polyline clip-path="url(#clip982)" style="stroke:#000000; stroke-linecap:round; stroke-linejoin:round; stroke-width:2; stroke-opacity:0.1; fill:none" points="247.459,1372.3 2352.76,1372.3 "></polyline>
<polyline clip-path="url(#clip982)" style="stroke:#000000; stroke-linecap:round; stroke-linejoin:round; stroke-width:2; stroke-opacity:0.1; fill:none" points="247.459,1079.92 2352.76,1079.92 "></polyline>
<polyline clip-path="url(#clip982)" style="stroke:#000000; stroke-linecap:round; stroke-linejoin:round; stroke-width:2; stroke-opacity:0.1; fill:none" points="247.459,787.546 2352.76,787.546 "></polyline>
<polyline clip-path="url(#clip982)" style="stroke:#000000; stroke-linecap:round; stroke-linejoin:round; stroke-width:2; stroke-opacity:0.1; fill:none" points="247.459,495.168 2352.76,495.168 "></polyline>
<polyline clip-path="url(#clip982)" style="stroke:#000000; stroke-linecap:round; stroke-linejoin:round; stroke-width:2; stroke-opacity:0.1; fill:none" points="247.459,202.789 2352.76,202.789 "></polyline>
<polyline clip-path="url(#clip980)" style="stroke:#000000; stroke-linecap:round; stroke-linejoin:round; stroke-width:4; stroke-opacity:1; fill:none" points="247.459,1410.9 247.459,47.2441 "></polyline>
<polyline clip-path="url(#clip980)" style="stroke:#000000; stroke-linecap:round; stroke-linejoin:round; stroke-width:4; stroke-opacity:1; fill:none" points="247.459,1372.3 266.356,1372.3 "></polyline>
<polyline clip-path="url(#clip980)" style="stroke:#000000; stroke-linecap:round; stroke-linejoin:round; stroke-width:4; stroke-opacity:1; fill:none" points="247.459,1079.92 266.356,1079.92 "></polyline>
<polyline clip-path="url(#clip980)" style="stroke:#000000; stroke-linecap:round; stroke-linejoin:round; stroke-width:4; stroke-opacity:1; fill:none" points="247.459,787.546 266.356,787.546 "></polyline>
<polyline clip-path="url(#clip980)" style="stroke:#000000; stroke-linecap:round; stroke-linejoin:round; stroke-width:4; stroke-opacity:1; fill:none" points="247.459,495.168 266.356,495.168 "></polyline>
<polyline clip-path="url(#clip980)" style="stroke:#000000; stroke-linecap:round; stroke-linejoin:round; stroke-width:4; stroke-opacity:1; fill:none" points="247.459,202.789 266.356,202.789 "></polyline>
<path clip-path="url(#clip980)" d="M154.283 1358.1 Q150.672 1358.1 148.843 1361.67 Q147.038 1365.21 147.038 1372.34 Q147.038 1379.44 148.843 1383.01 Q150.672 1386.55 154.283 1386.55 Q157.917 1386.55 159.723 1383.01 Q161.552 1379.44 161.552 1372.34 Q161.552 1365.21 159.723 1361.67 Q157.917 1358.1 154.283 1358.1 M154.283 1354.4 Q160.093 1354.4 163.149 1359 Q166.227 1363.59 166.227 1372.34 Q166.227 1381.06 163.149 1385.67 Q160.093 1390.25 154.283 1390.25 Q148.473 1390.25 145.394 1385.67 Q142.339 1381.06 142.339 1372.34 Q142.339 1363.59 145.394 1359 Q148.473 1354.4 154.283 1354.4 Z" fill="#000000" fill-rule="nonzero" fill-opacity="1"></path><path clip-path="url(#clip980)" d="M174.445 1383.7 L179.329 1383.7 L179.329 1389.58 L174.445 1389.58 L174.445 1383.7 Z" fill="#000000" fill-rule="nonzero" fill-opacity="1"></path><path clip-path="url(#clip980)" d="M199.514 1358.1 Q195.903 1358.1 194.075 1361.67 Q192.269 1365.21 192.269 1372.34 Q192.269 1379.44 194.075 1383.01 Q195.903 1386.55 199.514 1386.55 Q203.149 1386.55 204.954 1383.01 Q206.783 1379.44 206.783 1372.34 Q206.783 1365.21 204.954 1361.67 Q203.149 1358.1 199.514 1358.1 M199.514 1354.4 Q205.324 1354.4 208.38 1359 Q211.459 1363.59 211.459 1372.34 Q211.459 1381.06 208.38 1385.67 Q205.324 1390.25 199.514 1390.25 Q193.704 1390.25 190.625 1385.67 Q187.57 1381.06 187.57 1372.34 Q187.57 1363.59 190.625 1359 Q193.704 1354.4 199.514 1354.4 Z" fill="#000000" fill-rule="nonzero" fill-opacity="1"></path><path clip-path="url(#clip980)" d="M149.306 1093.27 L165.626 1093.27 L165.626 1097.2 L143.681 1097.2 L143.681 1093.27 Q146.343 1090.51 150.927 1085.88 Q155.533 1081.23 156.714 1079.89 Q158.959 1077.37 159.839 1075.63 Q160.741 1073.87 160.741 1072.18 Q160.741 1069.43 158.797 1067.69 Q156.876 1065.95 153.774 1065.95 Q151.575 1065.95 149.121 1066.72 Q146.691 1067.48 143.913 1069.03 L143.913 1064.31 Q146.737 1063.18 149.191 1062.6 Q151.644 1062.02 153.681 1062.02 Q159.052 1062.02 162.246 1064.7 Q165.44 1067.39 165.44 1071.88 Q165.44 1074.01 164.63 1075.93 Q163.843 1077.83 161.737 1080.42 Q161.158 1081.09 158.056 1084.31 Q154.954 1087.51 149.306 1093.27 Z" fill="#000000" fill-rule="nonzero" fill-opacity="1"></path><path clip-path="url(#clip980)" d="M175.44 1091.32 L180.325 1091.32 L180.325 1097.2 L175.44 1097.2 L175.44 1091.32 Z" fill="#000000" fill-rule="nonzero" fill-opacity="1"></path><path clip-path="url(#clip980)" d="M190.556 1062.64 L208.912 1062.64 L208.912 1066.58 L194.838 1066.58 L194.838 1075.05 Q195.857 1074.7 196.875 1074.54 Q197.894 1074.36 198.912 1074.36 Q204.699 1074.36 208.079 1077.53 Q211.459 1080.7 211.459 1086.12 Q211.459 1091.7 207.987 1094.8 Q204.514 1097.88 198.195 1097.88 Q196.019 1097.88 193.75 1097.51 Q191.505 1097.13 189.098 1096.39 L189.098 1091.7 Q191.181 1092.83 193.403 1093.38 Q195.625 1093.94 198.102 1093.94 Q202.107 1093.94 204.445 1091.83 Q206.783 1089.73 206.783 1086.12 Q206.783 1082.51 204.445 1080.4 Q202.107 1078.29 198.102 1078.29 Q196.227 1078.29 194.352 1078.71 Q192.5 1079.13 190.556 1080.01 L190.556 1062.64 Z" fill="#000000" fill-rule="nonzero" fill-opacity="1"></path><path clip-path="url(#clip980)" d="M144.329 770.266 L162.686 770.266 L162.686 774.201 L148.612 774.201 L148.612 782.673 Q149.63 782.326 150.649 782.164 Q151.667 781.979 152.686 781.979 Q158.473 781.979 161.852 785.15 Q165.232 788.321 165.232 793.738 Q165.232 799.317 161.76 802.419 Q158.288 805.497 151.968 805.497 Q149.792 805.497 147.524 805.127 Q145.279 804.757 142.871 804.016 L142.871 799.317 Q144.954 800.451 147.177 801.007 Q149.399 801.562 151.876 801.562 Q155.88 801.562 158.218 799.456 Q160.556 797.349 160.556 793.738 Q160.556 790.127 158.218 788.021 Q155.88 785.914 151.876 785.914 Q150.001 785.914 148.126 786.331 Q146.274 786.747 144.329 787.627 L144.329 770.266 Z" fill="#000000" fill-rule="nonzero" fill-opacity="1"></path><path clip-path="url(#clip980)" d="M174.445 798.946 L179.329 798.946 L179.329 804.826 L174.445 804.826 L174.445 798.946 Z" fill="#000000" fill-rule="nonzero" fill-opacity="1"></path><path clip-path="url(#clip980)" d="M199.514 773.345 Q195.903 773.345 194.075 776.91 Q192.269 780.451 192.269 787.581 Q192.269 794.687 194.075 798.252 Q195.903 801.794 199.514 801.794 Q203.149 801.794 204.954 798.252 Q206.783 794.687 206.783 787.581 Q206.783 780.451 204.954 776.91 Q203.149 773.345 199.514 773.345 M199.514 769.641 Q205.324 769.641 208.38 774.247 Q211.459 778.831 211.459 787.581 Q211.459 796.308 208.38 800.914 Q205.324 805.497 199.514 805.497 Q193.704 805.497 190.625 800.914 Q187.57 796.308 187.57 787.581 Q187.57 778.831 190.625 774.247 Q193.704 769.641 199.514 769.641 Z" fill="#000000" fill-rule="nonzero" fill-opacity="1"></path><path clip-path="url(#clip980)" d="M144.098 477.888 L166.32 477.888 L166.32 479.878 L153.774 512.448 L148.89 512.448 L160.695 481.823 L144.098 481.823 L144.098 477.888 Z" fill="#000000" fill-rule="nonzero" fill-opacity="1"></path><path clip-path="url(#clip980)" d="M175.44 506.568 L180.325 506.568 L180.325 512.448 L175.44 512.448 L175.44 506.568 Z" fill="#000000" fill-rule="nonzero" fill-opacity="1"></path><path clip-path="url(#clip980)" d="M190.556 477.888 L208.912 477.888 L208.912 481.823 L194.838 481.823 L194.838 490.295 Q195.857 489.948 196.875 489.786 Q197.894 489.601 198.912 489.601 Q204.699 489.601 208.079 492.772 Q211.459 495.943 211.459 501.36 Q211.459 506.938 207.987 510.04 Q204.514 513.119 198.195 513.119 Q196.019 513.119 193.75 512.749 Q191.505 512.378 189.098 511.638 L189.098 506.938 Q191.181 508.073 193.403 508.628 Q195.625 509.184 198.102 509.184 Q202.107 509.184 204.445 507.077 Q206.783 504.971 206.783 501.36 Q206.783 497.749 204.445 495.642 Q202.107 493.536 198.102 493.536 Q196.227 493.536 194.352 493.952 Q192.5 494.369 190.556 495.249 L190.556 477.888 Z" fill="#000000" fill-rule="nonzero" fill-opacity="1"></path><path clip-path="url(#clip980)" d="M114.931 216.134 L122.57 216.134 L122.57 189.769 L114.26 191.435 L114.26 187.176 L122.524 185.509 L127.2 185.509 L127.2 216.134 L134.839 216.134 L134.839 220.069 L114.931 220.069 L114.931 216.134 Z" fill="#000000" fill-rule="nonzero" fill-opacity="1"></path><path clip-path="url(#clip980)" d="M154.283 188.588 Q150.672 188.588 148.843 192.153 Q147.038 195.694 147.038 202.824 Q147.038 209.931 148.843 213.495 Q150.672 217.037 154.283 217.037 Q157.917 217.037 159.723 213.495 Q161.552 209.931 161.552 202.824 Q161.552 195.694 159.723 192.153 Q157.917 188.588 154.283 188.588 M154.283 184.884 Q160.093 184.884 163.149 189.491 Q166.227 194.074 166.227 202.824 Q166.227 211.551 163.149 216.157 Q160.093 220.741 154.283 220.741 Q148.473 220.741 145.394 216.157 Q142.339 211.551 142.339 202.824 Q142.339 194.074 145.394 189.491 Q148.473 184.884 154.283 184.884 Z" fill="#000000" fill-rule="nonzero" fill-opacity="1"></path><path clip-path="url(#clip980)" d="M174.445 214.19 L179.329 214.19 L179.329 220.069 L174.445 220.069 L174.445 214.19 Z" fill="#000000" fill-rule="nonzero" fill-opacity="1"></path><path clip-path="url(#clip980)" d="M199.514 188.588 Q195.903 188.588 194.075 192.153 Q192.269 195.694 192.269 202.824 Q192.269 209.931 194.075 213.495 Q195.903 217.037 199.514 217.037 Q203.149 217.037 204.954 213.495 Q206.783 209.931 206.783 202.824 Q206.783 195.694 204.954 192.153 Q203.149 188.588 199.514 188.588 M199.514 184.884 Q205.324 184.884 208.38 189.491 Q211.459 194.074 211.459 202.824 Q211.459 211.551 208.38 216.157 Q205.324 220.741 199.514 220.741 Q193.704 220.741 190.625 216.157 Q187.57 211.551 187.57 202.824 Q187.57 194.074 190.625 189.491 Q193.704 184.884 199.514 184.884 Z" fill="#000000" fill-rule="nonzero" fill-opacity="1"></path><path clip-path="url(#clip980)" d="M16.4842 893.274 L16.4842 865.965 L21.895 865.965 L21.895 886.844 L35.8996 886.844 L35.8996 868.002 L41.3104 868.002 L41.3104 886.844 L64.0042 886.844 L64.0042 893.274 L16.4842 893.274 Z" fill="#000000" fill-rule="nonzero" fill-opacity="1"></path><path clip-path="url(#clip980)" d="M33.8307 840.12 Q33.2578 841.107 33.0032 842.284 Q32.7167 843.43 32.7167 844.831 Q32.7167 849.796 35.9632 852.47 Q39.1779 855.111 45.2253 855.111 L64.0042 855.111 L64.0042 861 L28.3562 861 L28.3562 855.111 L33.8944 855.111 Q30.6479 853.265 29.0883 850.305 Q27.4968 847.345 27.4968 843.112 Q27.4968 842.507 27.5923 841.775 Q27.656 841.043 27.8151 840.152 L33.8307 840.12 Z" fill="#000000" fill-rule="nonzero" fill-opacity="1"></path><path clip-path="url(#clip980)" d="M44.7161 804.918 L47.5806 804.918 L47.5806 831.845 Q53.6281 831.463 56.8109 828.216 Q59.9619 824.938 59.9619 819.113 Q59.9619 815.739 59.1344 812.588 Q58.3069 809.406 56.6518 806.286 L62.1899 806.286 Q63.5267 809.437 64.227 812.748 Q64.9272 816.058 64.9272 819.463 Q64.9272 827.993 59.9619 832.991 Q54.9967 837.956 46.5303 837.956 Q37.7774 837.956 32.6531 833.245 Q27.4968 828.503 27.4968 820.482 Q27.4968 813.289 32.1438 809.119 Q36.7589 804.918 44.7161 804.918 M42.9973 810.774 Q38.1912 810.838 35.3266 813.48 Q32.4621 816.09 32.4621 820.418 Q32.4621 825.32 35.2312 828.28 Q38.0002 831.208 43.0292 831.654 L42.9973 810.774 Z" fill="#000000" fill-rule="nonzero" fill-opacity="1"></path><path clip-path="url(#clip980)" d="M46.212 791.804 Q52.6732 791.804 56.3653 789.163 Q60.0256 786.489 60.0256 781.842 Q60.0256 777.195 56.3653 774.522 Q52.6732 771.848 46.212 771.848 Q39.7508 771.848 36.0905 774.522 Q32.3984 777.195 32.3984 781.842 Q32.3984 786.489 36.0905 789.163 Q39.7508 791.804 46.212 791.804 M58.657 771.848 Q61.8398 773.694 63.3994 776.527 Q64.9272 779.328 64.9272 783.274 Q64.9272 789.736 59.771 793.81 Q54.6147 797.852 46.212 797.852 Q37.8093 797.852 32.6531 793.81 Q27.4968 789.736 27.4968 783.274 Q27.4968 779.328 29.0564 776.527 Q30.5842 773.694 33.7671 771.848 L28.3562 771.848 L28.3562 765.991 L77.5631 765.991 L77.5631 771.848 L58.657 771.848 Z" fill="#000000" fill-rule="nonzero" fill-opacity="1"></path><path clip-path="url(#clip980)" d="M49.9359 754.533 L28.3562 754.533 L28.3562 748.677 L49.7131 748.677 Q54.7739 748.677 57.3202 746.703 Q59.8346 744.73 59.8346 740.783 Q59.8346 736.041 56.8109 733.304 Q53.7872 730.534 48.5673 730.534 L28.3562 730.534 L28.3562 724.678 L64.0042 724.678 L64.0042 730.534 L58.5296 730.534 Q61.7762 732.667 63.3676 735.5 Q64.9272 738.301 64.9272 742.025 Q64.9272 748.167 61.1078 751.35 Q57.2883 754.533 49.9359 754.533 M27.4968 739.797 L27.4968 739.797 Z" fill="#000000" fill-rule="nonzero" fill-opacity="1"></path><path clip-path="url(#clip980)" d="M44.7161 682.123 L47.5806 682.123 L47.5806 709.05 Q53.6281 708.668 56.8109 705.422 Q59.9619 702.143 59.9619 696.319 Q59.9619 692.945 59.1344 689.794 Q58.3069 686.611 56.6518 683.492 L62.1899 683.492 Q63.5267 686.643 64.227 689.953 Q64.9272 693.263 64.9272 696.669 Q64.9272 705.199 59.9619 710.196 Q54.9967 715.161 46.5303 715.161 Q37.7774 715.161 32.6531 710.451 Q27.4968 705.708 27.4968 697.687 Q27.4968 690.494 32.1438 686.325 Q36.7589 682.123 44.7161 682.123 M42.9973 687.98 Q38.1912 688.043 35.3266 690.685 Q32.4621 693.295 32.4621 697.624 Q32.4621 702.525 35.2312 705.485 Q38.0002 708.414 43.0292 708.859 L42.9973 687.98 Z" fill="#000000" fill-rule="nonzero" fill-opacity="1"></path><path clip-path="url(#clip980)" d="M42.4881 642.879 L64.0042 642.879 L64.0042 648.735 L42.679 648.735 Q37.6183 648.735 35.1038 650.709 Q32.5894 652.682 32.5894 656.629 Q32.5894 661.371 35.6131 664.108 Q38.6368 666.846 43.8567 666.846 L64.0042 666.846 L64.0042 672.734 L28.3562 672.734 L28.3562 666.846 L33.8944 666.846 Q30.6797 664.745 29.0883 661.912 Q27.4968 659.048 27.4968 655.324 Q27.4968 649.181 31.3163 646.03 Q35.1038 642.879 42.4881 642.879 Z" fill="#000000" fill-rule="nonzero" fill-opacity="1"></path><path clip-path="url(#clip980)" d="M29.7248 605.544 L35.1993 605.544 Q33.8307 608.026 33.1623 610.541 Q32.4621 613.024 32.4621 615.57 Q32.4621 621.267 36.0905 624.418 Q39.6872 627.569 46.212 627.569 Q52.7369 627.569 56.3653 624.418 Q59.9619 621.267 59.9619 615.57 Q59.9619 613.024 59.2935 610.541 Q58.5933 608.026 57.2247 605.544 L62.6355 605.544 Q63.7814 607.995 64.3543 610.636 Q64.9272 613.246 64.9272 616.206 Q64.9272 624.259 59.8664 629.001 Q54.8057 633.744 46.212 633.744 Q37.491 633.744 32.4939 628.97 Q27.4968 624.164 27.4968 615.824 Q27.4968 613.119 28.0697 610.541 Q28.6108 607.963 29.7248 605.544 Z" fill="#000000" fill-rule="nonzero" fill-opacity="1"></path><path clip-path="url(#clip980)" d="M67.3143 580.527 Q73.68 583.009 75.6216 585.365 Q77.5631 587.72 77.5631 591.667 L77.5631 596.345 L72.6615 596.345 L72.6615 592.908 Q72.6615 590.489 71.5157 589.152 Q70.3699 587.815 66.1048 586.192 L63.4312 585.142 L28.3562 599.56 L28.3562 593.354 L56.238 582.214 L28.3562 571.074 L28.3562 564.867 L67.3143 580.527 Z" fill="#000000" fill-rule="nonzero" fill-opacity="1"></path><path clip-path="url(#clip982)" d="M363.254 1138.4 L363.254 1372.3 L675.538 1372.3 L675.538 1138.4 L363.254 1138.4 L363.254 1138.4  Z" fill="#009af9" fill-rule="evenodd" fill-opacity="1"></path>
<polyline clip-path="url(#clip982)" style="stroke:#000000; stroke-linecap:round; stroke-linejoin:round; stroke-width:4; stroke-opacity:1; fill:none" points="363.254,1138.4 363.254,1372.3 675.538,1372.3 675.538,1138.4 363.254,1138.4 "></polyline>
<path clip-path="url(#clip982)" d="M675.538 1021.45 L675.538 1372.3 L987.823 1372.3 L987.823 1021.45 L675.538 1021.45 L675.538 1021.45  Z" fill="#009af9" fill-rule="evenodd" fill-opacity="1"></path>
<polyline clip-path="url(#clip982)" style="stroke:#000000; stroke-linecap:round; stroke-linejoin:round; stroke-width:4; stroke-opacity:1; fill:none" points="675.538,1021.45 675.538,1372.3 987.823,1372.3 987.823,1021.45 675.538,1021.45 "></polyline>
<path clip-path="url(#clip982)" d="M987.823 1021.45 L987.823 1372.3 L1300.11 1372.3 L1300.11 1021.45 L987.823 1021.45 L987.823 1021.45  Z" fill="#009af9" fill-rule="evenodd" fill-opacity="1"></path>
<polyline clip-path="url(#clip982)" style="stroke:#000000; stroke-linecap:round; stroke-linejoin:round; stroke-width:4; stroke-opacity:1; fill:none" points="987.823,1021.45 987.823,1372.3 1300.11,1372.3 1300.11,1021.45 987.823,1021.45 "></polyline>
<path clip-path="url(#clip982)" d="M1300.11 553.643 L1300.11 1372.3 L1612.39 1372.3 L1612.39 553.643 L1300.11 553.643 L1300.11 553.643  Z" fill="#009af9" fill-rule="evenodd" fill-opacity="1"></path>
<polyline clip-path="url(#clip982)" style="stroke:#000000; stroke-linecap:round; stroke-linejoin:round; stroke-width:4; stroke-opacity:1; fill:none" points="1300.11,553.643 1300.11,1372.3 1612.39,1372.3 1612.39,553.643 1300.11,553.643 "></polyline>
<path clip-path="url(#clip982)" d="M1612.39 85.838 L1612.39 1372.3 L1924.68 1372.3 L1924.68 85.838 L1612.39 85.838 L1612.39 85.838  Z" fill="#009af9" fill-rule="evenodd" fill-opacity="1"></path>
<polyline clip-path="url(#clip982)" style="stroke:#000000; stroke-linecap:round; stroke-linejoin:round; stroke-width:4; stroke-opacity:1; fill:none" points="1612.39,85.838 1612.39,1372.3 1924.68,1372.3 1924.68,85.838 1612.39,85.838 "></polyline>
<path clip-path="url(#clip982)" d="M1924.68 670.595 L1924.68 1372.3 L2236.96 1372.3 L2236.96 670.595 L1924.68 670.595 L1924.68 670.595  Z" fill="#009af9" fill-rule="evenodd" fill-opacity="1"></path>
<polyline clip-path="url(#clip982)" style="stroke:#000000; stroke-linecap:round; stroke-linejoin:round; stroke-width:4; stroke-opacity:1; fill:none" points="1924.68,670.595 1924.68,1372.3 2236.96,1372.3 2236.96,670.595 1924.68,670.595 "></polyline>
<circle clip-path="url(#clip982)" style="fill:#009af9; stroke:none; fill-opacity:0" cx="519.396" cy="1138.4" r="2"></circle>
<circle clip-path="url(#clip982)" style="fill:#009af9; stroke:none; fill-opacity:0" cx="831.681" cy="1021.45" r="2"></circle>
<circle clip-path="url(#clip982)" style="fill:#009af9; stroke:none; fill-opacity:0" cx="1143.97" cy="1021.45" r="2"></circle>
<circle clip-path="url(#clip982)" style="fill:#009af9; stroke:none; fill-opacity:0" cx="1456.25" cy="553.643" r="2"></circle>
<circle clip-path="url(#clip982)" style="fill:#009af9; stroke:none; fill-opacity:0" cx="1768.53" cy="85.838" r="2"></circle>
<circle clip-path="url(#clip982)" style="fill:#009af9; stroke:none; fill-opacity:0" cx="2080.82" cy="670.595" r="2"></circle>
</svg>