<svg xmlns="http://www.w3.org/2000/svg" xmlns:xlink="http://www.w3.org/1999/xlink" width="600" height="400" viewBox="0 0 2400 1600">
<defs>
  <clipPath id="clip150">
    <rect x="0" y="0" width="2400" height="1600"></rect>
  </clipPath>
</defs>
<path clip-path="url(#clip150)" d="M0 1600 L2400 1600 L2400 0 L0 0  Z" fill="#ffffff" fill-rule="evenodd" fill-opacity="1"></path>
<defs>
  <clipPath id="clip151">
    <rect x="480" y="0" width="1681" height="1600"></rect>
  </clipPath>
</defs>
<path clip-path="url(#clip150)" d="M201.019 1486.45 L2352.76 1486.45 L2352.76 47.2441 L201.019 47.2441  Z" fill="#ffffff" fill-rule="evenodd" fill-opacity="1"></path>
<defs>
  <clipPath id="clip152">
    <rect x="201" y="47" width="2153" height="1440"></rect>
  </clipPath>
</defs>
<polyline clip-path="url(#clip152)" style="stroke:#000000; stroke-linecap:round; stroke-linejoin:round; stroke-width:2; stroke-opacity:0.1; fill:none" points="523.845,1486.45 523.845,47.2441 "></polyline>
<polyline clip-path="url(#clip152)" style="stroke:#000000; stroke-linecap:round; stroke-linejoin:round; stroke-width:2; stroke-opacity:0.1; fill:none" points="851.255,1486.45 851.255,47.2441 "></polyline>
<polyline clip-path="url(#clip152)" style="stroke:#000000; stroke-linecap:round; stroke-linejoin:round; stroke-width:2; stroke-opacity:0.1; fill:none" points="1178.66,1486.45 1178.66,47.2441 "></polyline>
<polyline clip-path="url(#clip152)" style="stroke:#000000; stroke-linecap:round; stroke-linejoin:round; stroke-width:2; stroke-opacity:0.1; fill:none" points="1506.07,1486.45 1506.07,47.2441 "></polyline>
<polyline clip-path="url(#clip152)" style="stroke:#000000; stroke-linecap:round; stroke-linejoin:round; stroke-width:2; stroke-opacity:0.1; fill:none" points="1833.48,1486.45 1833.48,47.2441 "></polyline>
<polyline clip-path="url(#clip152)" style="stroke:#000000; stroke-linecap:round; stroke-linejoin:round; stroke-width:2; stroke-opacity:0.1; fill:none" points="2160.89,1486.45 2160.89,47.2441 "></polyline>
<polyline clip-path="url(#clip150)" style="stroke:#000000; stroke-linecap:round; stroke-linejoin:round; stroke-width:4; stroke-opacity:1; fill:none" points="201.019,1486.45 2352.76,1486.45 "></polyline>
<polyline clip-path="url(#clip150)" style="stroke:#000000; stroke-linecap:round; stroke-linejoin:round; stroke-width:4; stroke-opacity:1; fill:none" points="523.845,1486.45 523.845,1467.55 "></polyline>
<polyline clip-path="url(#clip150)" style="stroke:#000000; stroke-linecap:round; stroke-linejoin:round; stroke-width:4; stroke-opacity:1; fill:none" points="851.255,1486.45 851.255,1467.55 "></polyline>
<polyline clip-path="url(#clip150)" style="stroke:#000000; stroke-linecap:round; stroke-linejoin:round; stroke-width:4; stroke-opacity:1; fill:none" points="1178.66,1486.45 1178.66,1467.55 "></polyline>
<polyline clip-path="url(#clip150)" style="stroke:#000000; stroke-linecap:round; stroke-linejoin:round; stroke-width:4; stroke-opacity:1; fill:none" points="1506.07,1486.45 1506.07,1467.55 "></polyline>
<polyline clip-path="url(#clip150)" style="stroke:#000000; stroke-linecap:round; stroke-linejoin:round; stroke-width:4; stroke-opacity:1; fill:none" points="1833.48,1486.45 1833.48,1467.55 "></polyline>
<polyline clip-path="url(#clip150)" style="stroke:#000000; stroke-linecap:round; stroke-linejoin:round; stroke-width:4; stroke-opacity:1; fill:none" points="2160.89,1486.45 2160.89,1467.55 "></polyline>
<path clip-path="url(#clip150)" d="M514.123 1514.29 L532.479 1514.29 L532.479 1518.22 L518.405 1518.22 L518.405 1526.7 Q519.424 1526.35 520.443 1526.19 Q521.461 1526 522.48 1526 Q528.267 1526 531.646 1529.17 Q535.026 1532.34 535.026 1537.76 Q535.026 1543.34 531.554 1546.44 Q528.081 1549.52 521.762 1549.52 Q519.586 1549.52 517.318 1549.15 Q515.072 1548.78 512.665 1548.04 L512.665 1543.34 Q514.748 1544.47 516.97 1545.03 Q519.193 1545.58 521.669 1545.58 Q525.674 1545.58 528.012 1543.48 Q530.35 1541.37 530.35 1537.76 Q530.35 1534.15 528.012 1532.04 Q525.674 1529.94 521.669 1529.94 Q519.794 1529.94 517.919 1530.35 Q516.068 1530.77 514.123 1531.65 L514.123 1514.29 Z" fill="#000000" fill-rule="nonzero" fill-opacity="1"></path><path clip-path="url(#clip150)" d="M825.943 1544.91 L833.581 1544.91 L833.581 1518.55 L825.271 1520.21 L825.271 1515.95 L833.535 1514.29 L838.211 1514.29 L838.211 1544.91 L845.85 1544.91 L845.85 1548.85 L825.943 1548.85 L825.943 1544.91 Z" fill="#000000" fill-rule="nonzero" fill-opacity="1"></path><path clip-path="url(#clip150)" d="M865.294 1517.37 Q861.683 1517.37 859.854 1520.93 Q858.049 1524.47 858.049 1531.6 Q858.049 1538.71 859.854 1542.27 Q861.683 1545.82 865.294 1545.82 Q868.928 1545.82 870.734 1542.27 Q872.563 1538.71 872.563 1531.6 Q872.563 1524.47 870.734 1520.93 Q868.928 1517.37 865.294 1517.37 M865.294 1513.66 Q871.104 1513.66 874.16 1518.27 Q877.239 1522.85 877.239 1531.6 Q877.239 1540.33 874.16 1544.94 Q871.104 1549.52 865.294 1549.52 Q859.484 1549.52 856.405 1544.94 Q853.35 1540.33 853.35 1531.6 Q853.35 1522.85 856.405 1518.27 Q859.484 1513.66 865.294 1513.66 Z" fill="#000000" fill-rule="nonzero" fill-opacity="1"></path><path clip-path="url(#clip150)" d="M1153.85 1544.91 L1161.49 1544.91 L1161.49 1518.55 L1153.18 1520.21 L1153.18 1515.95 L1161.44 1514.29 L1166.12 1514.29 L1166.12 1544.91 L1173.76 1544.91 L1173.76 1548.85 L1153.85 1548.85 L1153.85 1544.91 Z" fill="#000000" fill-rule="nonzero" fill-opacity="1"></path><path clip-path="url(#clip150)" d="M1183.25 1514.29 L1201.6 1514.29 L1201.6 1518.22 L1187.53 1518.22 L1187.53 1526.7 Q1188.55 1526.35 1189.57 1526.19 Q1190.59 1526 1191.6 1526 Q1197.39 1526 1200.77 1529.17 Q1204.15 1532.34 1204.15 1537.76 Q1204.15 1543.34 1200.68 1546.44 Q1197.21 1549.52 1190.89 1549.52 Q1188.71 1549.52 1186.44 1549.15 Q1184.2 1548.78 1181.79 1548.04 L1181.79 1543.34 Q1183.87 1544.47 1186.1 1545.03 Q1188.32 1545.58 1190.79 1545.58 Q1194.8 1545.58 1197.14 1543.48 Q1199.47 1541.37 1199.47 1537.76 Q1199.47 1534.15 1197.14 1532.04 Q1194.8 1529.94 1190.79 1529.94 Q1188.92 1529.94 1187.04 1530.35 Q1185.19 1530.77 1183.25 1531.65 L1183.25 1514.29 Z" fill="#000000" fill-rule="nonzero" fill-opacity="1"></path><path clip-path="url(#clip150)" d="M1484.85 1544.91 L1501.17 1544.91 L1501.17 1548.85 L1479.22 1548.85 L1479.22 1544.91 Q1481.88 1542.16 1486.47 1537.53 Q1491.07 1532.88 1492.26 1531.53 Q1494.5 1529.01 1495.38 1527.27 Q1496.28 1525.51 1496.28 1523.82 Q1496.28 1521.07 1494.34 1519.33 Q1492.42 1517.6 1489.32 1517.6 Q1487.12 1517.6 1484.66 1518.36 Q1482.23 1519.13 1479.45 1520.68 L1479.45 1515.95 Q1482.28 1514.82 1484.73 1514.24 Q1487.19 1513.66 1489.22 1513.66 Q1494.59 1513.66 1497.79 1516.35 Q1500.98 1519.03 1500.98 1523.52 Q1500.98 1525.65 1500.17 1527.57 Q1499.38 1529.47 1497.28 1532.07 Q1496.7 1532.74 1493.6 1535.95 Q1490.5 1539.15 1484.85 1544.91 Z" fill="#000000" fill-rule="nonzero" fill-opacity="1"></path><path clip-path="url(#clip150)" d="M1520.98 1517.37 Q1517.37 1517.37 1515.54 1520.93 Q1513.74 1524.47 1513.74 1531.6 Q1513.74 1538.71 1515.54 1542.27 Q1517.37 1545.82 1520.98 1545.82 Q1524.62 1545.82 1526.42 1542.27 Q1528.25 1538.71 1528.25 1531.6 Q1528.25 1524.47 1526.42 1520.93 Q1524.62 1517.37 1520.98 1517.37 M1520.98 1513.66 Q1526.79 1513.66 1529.85 1518.27 Q1532.93 1522.85 1532.93 1531.6 Q1532.93 1540.33 1529.85 1544.94 Q1526.79 1549.52 1520.98 1549.52 Q1515.17 1549.52 1512.09 1544.94 Q1509.04 1540.33 1509.04 1531.6 Q1509.04 1522.85 1512.09 1518.27 Q1515.17 1513.66 1520.98 1513.66 Z" fill="#000000" fill-rule="nonzero" fill-opacity="1"></path><path clip-path="url(#clip150)" d="M1812.76 1544.91 L1829.07 1544.91 L1829.07 1548.85 L1807.13 1548.85 L1807.13 1544.91 Q1809.79 1542.16 1814.38 1537.53 Q1818.98 1532.88 1820.16 1531.53 Q1822.41 1529.01 1823.29 1527.27 Q1824.19 1525.51 1824.19 1523.82 Q1824.19 1521.07 1822.25 1519.33 Q1820.32 1517.6 1817.22 1517.6 Q1815.02 1517.6 1812.57 1518.36 Q1810.14 1519.13 1807.36 1520.68 L1807.36 1515.95 Q1810.19 1514.82 1812.64 1514.24 Q1815.09 1513.66 1817.13 1513.66 Q1822.5 1513.66 1825.69 1516.35 Q1828.89 1519.03 1828.89 1523.52 Q1828.89 1525.65 1828.08 1527.57 Q1827.29 1529.47 1825.19 1532.07 Q1824.61 1532.74 1821.51 1535.95 Q1818.4 1539.15 1812.76 1544.91 Z" fill="#000000" fill-rule="nonzero" fill-opacity="1"></path><path clip-path="url(#clip150)" d="M1838.94 1514.29 L1857.29 1514.29 L1857.29 1518.22 L1843.22 1518.22 L1843.22 1526.7 Q1844.24 1526.35 1845.25 1526.19 Q1846.27 1526 1847.29 1526 Q1853.08 1526 1856.46 1529.17 Q1859.84 1532.34 1859.84 1537.76 Q1859.84 1543.34 1856.37 1546.44 Q1852.89 1549.52 1846.57 1549.52 Q1844.4 1549.52 1842.13 1549.15 Q1839.88 1548.78 1837.48 1548.04 L1837.48 1543.34 Q1839.56 1544.47 1841.78 1545.03 Q1844 1545.58 1846.48 1545.58 Q1850.49 1545.58 1852.82 1543.48 Q1855.16 1541.37 1855.16 1537.76 Q1855.16 1534.15 1852.82 1532.04 Q1850.49 1529.94 1846.48 1529.94 Q1844.61 1529.94 1842.73 1530.35 Q1840.88 1530.77 1838.94 1531.65 L1838.94 1514.29 Z" fill="#000000" fill-rule="nonzero" fill-opacity="1"></path><path clip-path="url(#clip150)" d="M2149.74 1530.21 Q2153.09 1530.93 2154.97 1533.2 Q2156.87 1535.47 2156.87 1538.8 Q2156.87 1543.92 2153.35 1546.72 Q2149.83 1549.52 2143.35 1549.52 Q2141.17 1549.52 2138.86 1549.08 Q2136.57 1548.66 2134.11 1547.81 L2134.11 1543.29 Q2136.06 1544.43 2138.37 1545.01 Q2140.69 1545.58 2143.21 1545.58 Q2147.61 1545.58 2149.9 1543.85 Q2152.21 1542.11 2152.21 1538.8 Q2152.21 1535.75 2150.06 1534.03 Q2147.93 1532.3 2144.11 1532.3 L2140.08 1532.3 L2140.08 1528.45 L2144.3 1528.45 Q2147.75 1528.45 2149.57 1527.09 Q2151.4 1525.7 2151.4 1523.11 Q2151.4 1520.45 2149.5 1519.03 Q2147.63 1517.6 2144.11 1517.6 Q2142.19 1517.6 2139.99 1518.01 Q2137.79 1518.43 2135.15 1519.31 L2135.15 1515.14 Q2137.82 1514.4 2140.13 1514.03 Q2142.47 1513.66 2144.53 1513.66 Q2149.85 1513.66 2152.95 1516.09 Q2156.06 1518.5 2156.06 1522.62 Q2156.06 1525.49 2154.41 1527.48 Q2152.77 1529.45 2149.74 1530.21 Z" fill="#000000" fill-rule="nonzero" fill-opacity="1"></path><path clip-path="url(#clip150)" d="M2175.73 1517.37 Q2172.12 1517.37 2170.29 1520.93 Q2168.49 1524.47 2168.49 1531.6 Q2168.49 1538.71 2170.29 1542.27 Q2172.12 1545.82 2175.73 1545.82 Q2179.37 1545.82 2181.17 1542.27 Q2183 1538.71 2183 1531.6 Q2183 1524.47 2181.17 1520.93 Q2179.37 1517.37 2175.73 1517.37 M2175.73 1513.66 Q2181.54 1513.66 2184.6 1518.27 Q2187.68 1522.85 2187.68 1531.6 Q2187.68 1540.33 2184.6 1544.94 Q2181.54 1549.52 2175.73 1549.52 Q2169.92 1549.52 2166.84 1544.94 Q2163.79 1540.33 2163.79 1531.6 Q2163.79 1522.85 2166.84 1518.27 Q2169.92 1513.66 2175.73 1513.66 Z" fill="#000000" fill-rule="nonzero" fill-opacity="1"></path><polyline clip-path="url(#clip152)" style="stroke:#000000; stroke-linecap:round; stroke-linejoin:round; stroke-width:2; stroke-opacity:0.1; fill:none" points="201.019,1240.1 2352.76,1240.1 "></polyline>
<polyline clip-path="url(#clip152)" style="stroke:#000000; stroke-linecap:round; stroke-linejoin:round; stroke-width:2; stroke-opacity:0.1; fill:none" points="201.019,957.477 2352.76,957.477 "></polyline>
<polyline clip-path="url(#clip152)" style="stroke:#000000; stroke-linecap:round; stroke-linejoin:round; stroke-width:2; stroke-opacity:0.1; fill:none" points="201.019,674.85 2352.76,674.85 "></polyline>
<polyline clip-path="url(#clip152)" style="stroke:#000000; stroke-linecap:round; stroke-linejoin:round; stroke-width:2; stroke-opacity:0.1; fill:none" points="201.019,392.223 2352.76,392.223 "></polyline>
<polyline clip-path="url(#clip152)" style="stroke:#000000; stroke-linecap:round; stroke-linejoin:round; stroke-width:2; stroke-opacity:0.1; fill:none" points="201.019,109.596 2352.76,109.596 "></polyline>
<polyline clip-path="url(#clip150)" style="stroke:#000000; stroke-linecap:round; stroke-linejoin:round; stroke-width:4; stroke-opacity:1; fill:none" points="201.019,1486.45 201.019,47.2441 "></polyline>
<polyline clip-path="url(#clip150)" style="stroke:#000000; stroke-linecap:round; stroke-linejoin:round; stroke-width:4; stroke-opacity:1; fill:none" points="201.019,1240.1 219.917,1240.1 "></polyline>
<polyline clip-path="url(#clip150)" style="stroke:#000000; stroke-linecap:round; stroke-linejoin:round; stroke-width:4; stroke-opacity:1; fill:none" points="201.019,957.477 219.917,957.477 "></polyline>
<polyline clip-path="url(#clip150)" style="stroke:#000000; stroke-linecap:round; stroke-linejoin:round; stroke-width:4; stroke-opacity:1; fill:none" points="201.019,674.85 219.917,674.85 "></polyline>
<polyline clip-path="url(#clip150)" style="stroke:#000000; stroke-linecap:round; stroke-linejoin:round; stroke-width:4; stroke-opacity:1; fill:none" points="201.019,392.223 219.917,392.223 "></polyline>
<polyline clip-path="url(#clip150)" style="stroke:#000000; stroke-linecap:round; stroke-linejoin:round; stroke-width:4; stroke-opacity:1; fill:none" points="201.019,109.596 219.917,109.596 "></polyline>
<path clip-path="url(#clip150)" d="M53.3995 1253.45 L61.0384 1253.45 L61.0384 1227.08 L52.7282 1228.75 L52.7282 1224.49 L60.9921 1222.82 L65.668 1222.82 L65.668 1253.45 L73.3068 1253.45 L73.3068 1257.38 L53.3995 1257.38 L53.3995 1253.45 Z" fill="#000000" fill-rule="nonzero" fill-opacity="1"></path><path clip-path="url(#clip150)" d="M92.7512 1225.9 Q89.1401 1225.9 87.3114 1229.47 Q85.5058 1233.01 85.5058 1240.14 Q85.5058 1247.25 87.3114 1250.81 Q89.1401 1254.35 92.7512 1254.35 Q96.3854 1254.35 98.1909 1250.81 Q100.02 1247.25 100.02 1240.14 Q100.02 1233.01 98.1909 1229.47 Q96.3854 1225.9 92.7512 1225.9 M92.7512 1222.2 Q98.5613 1222.2 101.617 1226.81 Q104.696 1231.39 104.696 1240.14 Q104.696 1248.87 101.617 1253.47 Q98.5613 1258.06 92.7512 1258.06 Q86.941 1258.06 83.8623 1253.47 Q80.8068 1248.87 80.8068 1240.14 Q80.8068 1231.39 83.8623 1226.81 Q86.941 1222.2 92.7512 1222.2 Z" fill="#000000" fill-rule="nonzero" fill-opacity="1"></path><path clip-path="url(#clip150)" d="M122.913 1225.9 Q119.302 1225.9 117.473 1229.47 Q115.668 1233.01 115.668 1240.14 Q115.668 1247.25 117.473 1250.81 Q119.302 1254.35 122.913 1254.35 Q126.547 1254.35 128.353 1250.81 Q130.182 1247.25 130.182 1240.14 Q130.182 1233.01 128.353 1229.47 Q126.547 1225.9 122.913 1225.9 M122.913 1222.2 Q128.723 1222.2 131.779 1226.81 Q134.857 1231.39 134.857 1240.14 Q134.857 1248.87 131.779 1253.47 Q128.723 1258.06 122.913 1258.06 Q117.103 1258.06 114.024 1253.47 Q110.969 1248.87 110.969 1240.14 Q110.969 1231.39 114.024 1226.81 Q117.103 1222.2 122.913 1222.2 Z" fill="#000000" fill-rule="nonzero" fill-opacity="1"></path><path clip-path="url(#clip150)" d="M153.075 1225.9 Q149.464 1225.9 147.635 1229.47 Q145.83 1233.01 145.83 1240.14 Q145.83 1247.25 147.635 1250.81 Q149.464 1254.35 153.075 1254.35 Q156.709 1254.35 158.515 1250.81 Q160.343 1247.25 160.343 1240.14 Q160.343 1233.01 158.515 1229.47 Q156.709 1225.9 153.075 1225.9 M153.075 1222.2 Q158.885 1222.2 161.941 1226.81 Q165.019 1231.39 165.019 1240.14 Q165.019 1248.87 161.941 1253.47 Q158.885 1258.06 153.075 1258.06 Q147.265 1258.06 144.186 1253.47 Q141.131 1248.87 141.131 1240.14 Q141.131 1231.39 144.186 1226.81 Q147.265 1222.2 153.075 1222.2 Z" fill="#000000" fill-rule="nonzero" fill-opacity="1"></path><path clip-path="url(#clip150)" d="M53.3995 970.822 L61.0384 970.822 L61.0384 944.457 L52.7282 946.123 L52.7282 941.864 L60.9921 940.197 L65.668 940.197 L65.668 970.822 L73.3068 970.822 L73.3068 974.757 L53.3995 974.757 L53.3995 970.822 Z" fill="#000000" fill-rule="nonzero" fill-opacity="1"></path><path clip-path="url(#clip150)" d="M82.7975 940.197 L101.154 940.197 L101.154 944.133 L87.0799 944.133 L87.0799 952.605 Q88.0984 952.258 89.1169 952.095 Q90.1354 951.91 91.1539 951.91 Q96.941 951.91 100.321 955.082 Q103.7 958.253 103.7 963.669 Q103.7 969.248 100.228 972.35 Q96.7558 975.429 90.4364 975.429 Q88.2604 975.429 85.9919 975.058 Q83.7466 974.688 81.3392 973.947 L81.3392 969.248 Q83.4225 970.382 85.6447 970.938 Q87.8669 971.494 90.3438 971.494 Q94.3484 971.494 96.6863 969.387 Q99.0243 967.281 99.0243 963.669 Q99.0243 960.058 96.6863 957.952 Q94.3484 955.845 90.3438 955.845 Q88.4688 955.845 86.5938 956.262 Q84.7419 956.679 82.7975 957.558 L82.7975 940.197 Z" fill="#000000" fill-rule="nonzero" fill-opacity="1"></path><path clip-path="url(#clip150)" d="M122.913 943.276 Q119.302 943.276 117.473 946.841 Q115.668 950.383 115.668 957.512 Q115.668 964.619 117.473 968.183 Q119.302 971.725 122.913 971.725 Q126.547 971.725 128.353 968.183 Q130.182 964.619 130.182 957.512 Q130.182 950.383 128.353 946.841 Q126.547 943.276 122.913 943.276 M122.913 939.572 Q128.723 939.572 131.779 944.179 Q134.857 948.762 134.857 957.512 Q134.857 966.239 131.779 970.845 Q128.723 975.429 122.913 975.429 Q117.103 975.429 114.024 970.845 Q110.969 966.239 110.969 957.512 Q110.969 948.762 114.024 944.179 Q117.103 939.572 122.913 939.572 Z" fill="#000000" fill-rule="nonzero" fill-opacity="1"></path><path clip-path="url(#clip150)" d="M153.075 943.276 Q149.464 943.276 147.635 946.841 Q145.83 950.383 145.83 957.512 Q145.83 964.619 147.635 968.183 Q149.464 971.725 153.075 971.725 Q156.709 971.725 158.515 968.183 Q160.343 964.619 160.343 957.512 Q160.343 950.383 158.515 946.841 Q156.709 943.276 153.075 943.276 M153.075 939.572 Q158.885 939.572 161.941 944.179 Q165.019 948.762 165.019 957.512 Q165.019 966.239 161.941 970.845 Q158.885 975.429 153.075 975.429 Q147.265 975.429 144.186 970.845 Q141.131 966.239 141.131 957.512 Q141.131 948.762 144.186 944.179 Q147.265 939.572 153.075 939.572 Z" fill="#000000" fill-rule="nonzero" fill-opacity="1"></path><path clip-path="url(#clip150)" d="M56.6171 688.195 L72.9365 688.195 L72.9365 692.13 L50.9921 692.13 L50.9921 688.195 Q53.6541 685.441 58.2375 680.811 Q62.8439 676.158 64.0245 674.816 Q66.2698 672.292 67.1494 670.556 Q68.0522 668.797 68.0522 667.107 Q68.0522 664.353 66.1078 662.617 Q64.1865 660.88 61.0847 660.88 Q58.8856 660.88 56.4319 661.644 Q54.0014 662.408 51.2236 663.959 L51.2236 659.237 Q54.0477 658.103 56.5014 657.524 Q58.955 656.945 60.9921 656.945 Q66.3624 656.945 69.5568 659.63 Q72.7513 662.316 72.7513 666.806 Q72.7513 668.936 71.9411 670.857 Q71.1541 672.755 69.0476 675.348 Q68.4689 676.019 65.367 679.237 Q62.2652 682.431 56.6171 688.195 Z" fill="#000000" fill-rule="nonzero" fill-opacity="1"></path><path clip-path="url(#clip150)" d="M92.7512 660.649 Q89.1401 660.649 87.3114 664.214 Q85.5058 667.755 85.5058 674.885 Q85.5058 681.991 87.3114 685.556 Q89.1401 689.098 92.7512 689.098 Q96.3854 689.098 98.1909 685.556 Q100.02 681.991 100.02 674.885 Q100.02 667.755 98.1909 664.214 Q96.3854 660.649 92.7512 660.649 M92.7512 656.945 Q98.5613 656.945 101.617 661.552 Q104.696 666.135 104.696 674.885 Q104.696 683.612 101.617 688.218 Q98.5613 692.802 92.7512 692.802 Q86.941 692.802 83.8623 688.218 Q80.8068 683.612 80.8068 674.885 Q80.8068 666.135 83.8623 661.552 Q86.941 656.945 92.7512 656.945 Z" fill="#000000" fill-rule="nonzero" fill-opacity="1"></path><path clip-path="url(#clip150)" d="M122.913 660.649 Q119.302 660.649 117.473 664.214 Q115.668 667.755 115.668 674.885 Q115.668 681.991 117.473 685.556 Q119.302 689.098 122.913 689.098 Q126.547 689.098 128.353 685.556 Q130.182 681.991 130.182 674.885 Q130.182 667.755 128.353 664.214 Q126.547 660.649 122.913 660.649 M122.913 656.945 Q128.723 656.945 131.779 661.552 Q134.857 666.135 134.857 674.885 Q134.857 683.612 131.779 688.218 Q128.723 692.802 122.913 692.802 Q117.103 692.802 114.024 688.218 Q110.969 683.612 110.969 674.885 Q110.969 666.135 114.024 661.552 Q117.103 656.945 122.913 656.945 Z" fill="#000000" fill-rule="nonzero" fill-opacity="1"></path><path clip-path="url(#clip150)" d="M153.075 660.649 Q149.464 660.649 147.635 664.214 Q145.83 667.755 145.83 674.885 Q145.83 681.991 147.635 685.556 Q149.464 689.098 153.075 689.098 Q156.709 689.098 158.515 685.556 Q160.343 681.991 160.343 674.885 Q160.343 667.755 158.515 664.214 Q156.709 660.649 153.075 660.649 M153.075 656.945 Q158.885 656.945 161.941 661.552 Q165.019 666.135 165.019 674.885 Q165.019 683.612 161.941 688.218 Q158.885 692.802 153.075 692.802 Q147.265 692.802 144.186 688.218 Q141.131 683.612 141.131 674.885 Q141.131 666.135 144.186 661.552 Q147.265 656.945 153.075 656.945 Z" fill="#000000" fill-rule="nonzero" fill-opacity="1"></path><path clip-path="url(#clip150)" d="M56.6171 405.568 L72.9365 405.568 L72.9365 409.503 L50.9921 409.503 L50.9921 405.568 Q53.6541 402.813 58.2375 398.184 Q62.8439 393.531 64.0245 392.189 Q66.2698 389.665 67.1494 387.929 Q68.0522 386.17 68.0522 384.48 Q68.0522 381.726 66.1078 379.989 Q64.1865 378.253 61.0847 378.253 Q58.8856 378.253 56.4319 379.017 Q54.0014 379.781 51.2236 381.332 L51.2236 376.61 Q54.0477 375.476 56.5014 374.897 Q58.955 374.318 60.9921 374.318 Q66.3624 374.318 69.5568 377.003 Q72.7513 379.689 72.7513 384.179 Q72.7513 386.309 71.9411 388.23 Q71.1541 390.128 69.0476 392.721 Q68.4689 393.392 65.367 396.61 Q62.2652 399.804 56.6171 405.568 Z" fill="#000000" fill-rule="nonzero" fill-opacity="1"></path><path clip-path="url(#clip150)" d="M82.7975 374.943 L101.154 374.943 L101.154 378.878 L87.0799 378.878 L87.0799 387.351 Q88.0984 387.003 89.1169 386.841 Q90.1354 386.656 91.1539 386.656 Q96.941 386.656 100.321 389.827 Q103.7 392.999 103.7 398.415 Q103.7 403.994 100.228 407.096 Q96.7558 410.175 90.4364 410.175 Q88.2604 410.175 85.9919 409.804 Q83.7466 409.434 81.3392 408.693 L81.3392 403.994 Q83.4225 405.128 85.6447 405.684 Q87.8669 406.239 90.3438 406.239 Q94.3484 406.239 96.6863 404.133 Q99.0243 402.026 99.0243 398.415 Q99.0243 394.804 96.6863 392.698 Q94.3484 390.591 90.3438 390.591 Q88.4688 390.591 86.5938 391.008 Q84.7419 391.425 82.7975 392.304 L82.7975 374.943 Z" fill="#000000" fill-rule="nonzero" fill-opacity="1"></path><path clip-path="url(#clip150)" d="M122.913 378.022 Q119.302 378.022 117.473 381.587 Q115.668 385.128 115.668 392.258 Q115.668 399.364 117.473 402.929 Q119.302 406.471 122.913 406.471 Q126.547 406.471 128.353 402.929 Q130.182 399.364 130.182 392.258 Q130.182 385.128 128.353 381.587 Q126.547 378.022 122.913 378.022 M122.913 374.318 Q128.723 374.318 131.779 378.925 Q134.857 383.508 134.857 392.258 Q134.857 400.985 131.779 405.591 Q128.723 410.175 122.913 410.175 Q117.103 410.175 114.024 405.591 Q110.969 400.985 110.969 392.258 Q110.969 383.508 114.024 378.925 Q117.103 374.318 122.913 374.318 Z" fill="#000000" fill-rule="nonzero" fill-opacity="1"></path><path clip-path="url(#clip150)" d="M153.075 378.022 Q149.464 378.022 147.635 381.587 Q145.83 385.128 145.83 392.258 Q145.83 399.364 147.635 402.929 Q149.464 406.471 153.075 406.471 Q156.709 406.471 158.515 402.929 Q160.343 399.364 160.343 392.258 Q160.343 385.128 158.515 381.587 Q156.709 378.022 153.075 378.022 M153.075 374.318 Q158.885 374.318 161.941 378.925 Q165.019 383.508 165.019 392.258 Q165.019 400.985 161.941 405.591 Q158.885 410.175 153.075 410.175 Q147.265 410.175 144.186 405.591 Q141.131 400.985 141.131 392.258 Q141.131 383.508 144.186 378.925 Q147.265 374.318 153.075 374.318 Z" fill="#000000" fill-rule="nonzero" fill-opacity="1"></path><path clip-path="url(#clip150)" d="M66.7559 108.242 Q70.1124 108.96 71.9874 111.228 Q73.8855 113.497 73.8855 116.83 Q73.8855 121.946 70.367 124.747 Q66.8485 127.547 60.3671 127.547 Q58.1912 127.547 55.8764 127.108 Q53.5847 126.691 51.131 125.834 L51.131 121.321 Q53.0754 122.455 55.3903 123.034 Q57.7051 123.612 60.2282 123.612 Q64.6263 123.612 66.918 121.876 Q69.2328 120.14 69.2328 116.83 Q69.2328 113.774 67.08 112.061 Q64.9504 110.325 61.131 110.325 L57.1032 110.325 L57.1032 106.483 L61.3161 106.483 Q64.7652 106.483 66.5939 105.117 Q68.4226 103.728 68.4226 101.136 Q68.4226 98.4735 66.5245 97.0615 Q64.6495 95.6263 61.131 95.6263 Q59.2097 95.6263 57.0106 96.043 Q54.8115 96.4596 52.1727 97.3393 L52.1727 93.1726 Q54.8347 92.4319 57.1495 92.0615 Q59.4875 91.6911 61.5476 91.6911 Q66.8717 91.6911 69.9735 94.1217 Q73.0753 96.5291 73.0753 100.649 Q73.0753 103.52 71.4318 105.511 Q69.7883 107.478 66.7559 108.242 Z" fill="#000000" fill-rule="nonzero" fill-opacity="1"></path><path clip-path="url(#clip150)" d="M92.7512 95.3948 Q89.1401 95.3948 87.3114 98.9596 Q85.5058 102.501 85.5058 109.631 Q85.5058 116.737 87.3114 120.302 Q89.1401 123.844 92.7512 123.844 Q96.3854 123.844 98.1909 120.302 Q100.02 116.737 100.02 109.631 Q100.02 102.501 98.1909 98.9596 Q96.3854 95.3948 92.7512 95.3948 M92.7512 91.6911 Q98.5613 91.6911 101.617 96.2976 Q104.696 100.881 104.696 109.631 Q104.696 118.358 101.617 122.964 Q98.5613 127.547 92.7512 127.547 Q86.941 127.547 83.8623 122.964 Q80.8068 118.358 80.8068 109.631 Q80.8068 100.881 83.8623 96.2976 Q86.941 91.6911 92.7512 91.6911 Z" fill="#000000" fill-rule="nonzero" fill-opacity="1"></path><path clip-path="url(#clip150)" d="M122.913 95.3948 Q119.302 95.3948 117.473 98.9596 Q115.668 102.501 115.668 109.631 Q115.668 116.737 117.473 120.302 Q119.302 123.844 122.913 123.844 Q126.547 123.844 128.353 120.302 Q130.182 116.737 130.182 109.631 Q130.182 102.501 128.353 98.9596 Q126.547 95.3948 122.913 95.3948 M122.913 91.6911 Q128.723 91.6911 131.779 96.2976 Q134.857 100.881 134.857 109.631 Q134.857 118.358 131.779 122.964 Q128.723 127.547 122.913 127.547 Q117.103 127.547 114.024 122.964 Q110.969 118.358 110.969 109.631 Q110.969 100.881 114.024 96.2976 Q117.103 91.6911 122.913 91.6911 Z" fill="#000000" fill-rule="nonzero" fill-opacity="1"></path><path clip-path="url(#clip150)" d="M153.075 95.3948 Q149.464 95.3948 147.635 98.9596 Q145.83 102.501 145.83 109.631 Q145.83 116.737 147.635 120.302 Q149.464 123.844 153.075 123.844 Q156.709 123.844 158.515 120.302 Q160.343 116.737 160.343 109.631 Q160.343 102.501 158.515 98.9596 Q156.709 95.3948 153.075 95.3948 M153.075 91.6911 Q158.885 91.6911 161.941 96.2976 Q165.019 100.881 165.019 109.631 Q165.019 118.358 161.941 122.964 Q158.885 127.547 153.075 127.547 Q147.265 127.547 144.186 122.964 Q141.131 118.358 141.131 109.631 Q141.131 100.881 144.186 96.2976 Q147.265 91.6911 153.075 91.6911 Z" fill="#000000" fill-rule="nonzero" fill-opacity="1"></path><circle clip-path="url(#clip152)" cx="261.917" cy="1445.22" r="14.4" fill="#009af9" fill-rule="evenodd" fill-opacity="1" stroke="#000000" stroke-opacity="1" stroke-width="3.2"></circle>
<circle clip-path="url(#clip152)" cx="327.399" cy="1443.72" r="14.4" fill="#009af9" fill-rule="evenodd" fill-opacity="1" stroke="#000000" stroke-opacity="1" stroke-width="3.2"></circle>
<circle clip-path="url(#clip152)" cx="392.881" cy="1445.02" r="14.4" fill="#009af9" fill-rule="evenodd" fill-opacity="1" stroke="#000000" stroke-opacity="1" stroke-width="3.2"></circle>
<circle clip-path="url(#clip152)" cx="458.363" cy="1354.36" r="14.4" fill="#009af9" fill-rule="evenodd" fill-opacity="1" stroke="#000000" stroke-opacity="1" stroke-width="3.2"></circle>
<circle clip-path="url(#clip152)" cx="523.845" cy="1445.08" r="14.4" fill="#009af9" fill-rule="evenodd" fill-opacity="1" stroke="#000000" stroke-opacity="1" stroke-width="3.2"></circle>
<circle clip-path="url(#clip152)" cx="589.327" cy="1444.02" r="14.4" fill="#009af9" fill-rule="evenodd" fill-opacity="1" stroke="#000000" stroke-opacity="1" stroke-width="3.2"></circle>
<circle clip-path="url(#clip152)" cx="654.809" cy="1445.13" r="14.4" fill="#009af9" fill-rule="evenodd" fill-opacity="1" stroke="#000000" stroke-opacity="1" stroke-width="3.2"></circle>
<circle clip-path="url(#clip152)" cx="720.291" cy="1173.23" r="14.4" fill="#009af9" fill-rule="evenodd" fill-opacity="1" stroke="#000000" stroke-opacity="1" stroke-width="3.2"></circle>
<circle clip-path="url(#clip152)" cx="785.773" cy="1445.06" r="14.4" fill="#009af9" fill-rule="evenodd" fill-opacity="1" stroke="#000000" stroke-opacity="1" stroke-width="3.2"></circle>
<circle clip-path="url(#clip152)" cx="851.255" cy="1444.14" r="14.4" fill="#009af9" fill-rule="evenodd" fill-opacity="1" stroke="#000000" stroke-opacity="1" stroke-width="3.2"></circle>
<circle clip-path="url(#clip152)" cx="916.737" cy="1445.63" r="14.4" fill="#009af9" fill-rule="evenodd" fill-opacity="1" stroke="#000000" stroke-opacity="1" stroke-width="3.2"></circle>
<circle clip-path="url(#clip152)" cx="982.219" cy="1355.03" r="14.4" fill="#009af9" fill-rule="evenodd" fill-opacity="1" stroke="#000000" stroke-opacity="1" stroke-width="3.2"></circle>
<circle clip-path="url(#clip152)" cx="1047.7" cy="1445.5" r="14.4" fill="#009af9" fill-rule="evenodd" fill-opacity="1" stroke="#000000" stroke-opacity="1" stroke-width="3.2"></circle>
<circle clip-path="url(#clip152)" cx="1113.18" cy="1444.28" r="14.4" fill="#009af9" fill-rule="evenodd" fill-opacity="1" stroke="#000000" stroke-opacity="1" stroke-width="3.2"></circle>
<circle clip-path="url(#clip152)" cx="1178.66" cy="1445.1" r="14.4" fill="#009af9" fill-rule="evenodd" fill-opacity="1" stroke="#000000" stroke-opacity="1" stroke-width="3.2"></circle>
<circle clip-path="url(#clip152)" cx="1244.15" cy="812.904" r="14.4" fill="#009af9" fill-rule="evenodd" fill-opacity="1" stroke="#000000" stroke-opacity="1" stroke-width="3.2"></circle>
<circle clip-path="url(#clip152)" cx="1309.63" cy="1444.43" r="14.4" fill="#009af9" fill-rule="evenodd" fill-opacity="1" stroke="#000000" stroke-opacity="1" stroke-width="3.2"></circle>
<circle clip-path="url(#clip152)" cx="1375.11" cy="1443.41" r="14.4" fill="#009af9" fill-rule="evenodd" fill-opacity="1" stroke="#000000" stroke-opacity="1" stroke-width="3.2"></circle>
<circle clip-path="url(#clip152)" cx="1440.59" cy="1444.58" r="14.4" fill="#009af9" fill-rule="evenodd" fill-opacity="1" stroke="#000000" stroke-opacity="1" stroke-width="3.2"></circle>
<circle clip-path="url(#clip152)" cx="1506.07" cy="1354.58" r="14.4" fill="#009af9" fill-rule="evenodd" fill-opacity="1" stroke="#000000" stroke-opacity="1" stroke-width="3.2"></circle>
<circle clip-path="url(#clip152)" cx="1571.56" cy="1445.08" r="14.4" fill="#009af9" fill-rule="evenodd" fill-opacity="1" stroke="#000000" stroke-opacity="1" stroke-width="3.2"></circle>
<circle clip-path="url(#clip152)" cx="1637.04" cy="1444.15" r="14.4" fill="#009af9" fill-rule="evenodd" fill-opacity="1" stroke="#000000" stroke-opacity="1" stroke-width="3.2"></circle>
<circle clip-path="url(#clip152)" cx="1702.52" cy="1445.04" r="14.4" fill="#009af9" fill-rule="evenodd" fill-opacity="1" stroke="#000000" stroke-opacity="1" stroke-width="3.2"></circle>
<circle clip-path="url(#clip152)" cx="1768" cy="1173.73" r="14.4" fill="#009af9" fill-rule="evenodd" fill-opacity="1" stroke="#000000" stroke-opacity="1" stroke-width="3.2"></circle>
<circle clip-path="url(#clip152)" cx="1833.48" cy="1445.03" r="14.4" fill="#009af9" fill-rule="evenodd" fill-opacity="1" stroke="#000000" stroke-opacity="1" stroke-width="3.2"></circle>
<circle clip-path="url(#clip152)" cx="1898.97" cy="1443.82" r="14.4" fill="#009af9" fill-rule="evenodd" fill-opacity="1" stroke="#000000" stroke-opacity="1" stroke-width="3.2"></circle>
<circle clip-path="url(#clip152)" cx="1964.45" cy="1444.24" r="14.4" fill="#009af9" fill-rule="evenodd" fill-opacity="1" stroke="#000000" stroke-opacity="1" stroke-width="3.2"></circle>
<circle clip-path="url(#clip152)" cx="2029.93" cy="1354.41" r="14.4" fill="#009af9" fill-rule="evenodd" fill-opacity="1" stroke="#000000" stroke-opacity="1" stroke-width="3.2"></circle>
<circle clip-path="url(#clip152)" cx="2095.41" cy="1445.72" r="14.4" fill="#009af9" fill-rule="evenodd" fill-opacity="1" stroke="#000000" stroke-opacity="1" stroke-width="3.2"></circle>
<circle clip-path="url(#clip152)" cx="2160.89" cy="1444.06" r="14.4" fill="#009af9" fill-rule="evenodd" fill-opacity="1" stroke="#000000" stroke-opacity="1" stroke-width="3.2"></circle>
<circle clip-path="url(#clip152)" cx="2226.38" cy="1445.43" r="14.4" fill="#009af9" fill-rule="evenodd" fill-opacity="1" stroke="#000000" stroke-opacity="1" stroke-width="3.2"></circle>
<circle clip-path="url(#clip152)" cx="2291.86" cy="87.9763" r="14.4" fill="#009af9" fill-rule="evenodd" fill-opacity="1" stroke="#000000" stroke-opacity="1" stroke-width="3.2"></circle>
<path clip-path="url(#clip150)" d="M272.744 198.898 L540.348 198.898 L540.348 95.2176 L272.744 95.2176  Z" fill="#ffffff" fill-rule="evenodd" fill-opacity="1"></path>
<polyline clip-path="url(#clip150)" style="stroke:#000000; stroke-linecap:round; stroke-linejoin:round; stroke-width:4; stroke-opacity:1; fill:none" points="272.744,198.898 540.348,198.898 540.348,95.2176 272.744,95.2176 272.744,198.898 "></polyline>
<circle clip-path="url(#clip150)" cx="368.377" cy="147.058" r="20.48" fill="#009af9" fill-rule="evenodd" fill-opacity="1" stroke="#000000" stroke-opacity="1" stroke-width="4.55111"></circle>
<path clip-path="url(#clip150)" d="M477.852 166.745 Q476.046 171.375 474.333 172.787 Q472.62 174.199 469.75 174.199 L466.347 174.199 L466.347 170.634 L468.847 170.634 Q470.607 170.634 471.579 169.8 Q472.551 168.967 473.731 165.865 L474.495 163.921 L464.009 138.412 L468.523 138.412 L476.625 158.689 L484.727 138.412 L489.241 138.412 L477.852 166.745 Z" fill="#000000" fill-rule="nonzero" fill-opacity="1"></path><path clip-path="url(#clip150)" d="M496.532 160.402 L504.171 160.402 L504.171 134.037 L495.861 135.703 L495.861 131.444 L504.125 129.778 L508.801 129.778 L508.801 160.402 L516.44 160.402 L516.44 164.338 L496.532 164.338 L496.532 160.402 Z" fill="#000000" fill-rule="nonzero" fill-opacity="1"></path></svg>