<svg xmlns="http://www.w3.org/2000/svg" xmlns:xlink="http://www.w3.org/1999/xlink" width="600" height="400" viewBox="0 0 2400 1600">
<defs>
  <clipPath id="clip230">
    <rect x="0" y="0" width="2400" height="1600"></rect>
  </clipPath>
</defs>
<path clip-path="url(#clip230)" d="M0 1600 L2400 1600 L2400 0 L0 0  Z" fill="#ffffff" fill-rule="evenodd" fill-opacity="1"></path>
<defs>
  <clipPath id="clip231">
    <rect x="480" y="0" width="1681" height="1600"></rect>
  </clipPath>
</defs>
<path clip-path="url(#clip230)" d="M264.287 1423.18 L2352.76 1423.18 L2352.76 47.2441 L264.287 47.2441  Z" fill="#ffffff" fill-rule="evenodd" fill-opacity="1"></path>
<defs>
  <clipPath id="clip232">
    <rect x="264" y="47" width="2089" height="1377"></rect>
  </clipPath>
</defs>
<polyline clip-path="url(#clip232)" style="stroke:#000000; stroke-linecap:round; stroke-linejoin:round; stroke-width:2; stroke-opacity:0.1; fill:none" points="577.621,1423.18 577.621,47.2441 "></polyline>
<polyline clip-path="url(#clip232)" style="stroke:#000000; stroke-linecap:round; stroke-linejoin:round; stroke-width:2; stroke-opacity:0.1; fill:none" points="895.404,1423.18 895.404,47.2441 "></polyline>
<polyline clip-path="url(#clip232)" style="stroke:#000000; stroke-linecap:round; stroke-linejoin:round; stroke-width:2; stroke-opacity:0.1; fill:none" points="1213.19,1423.18 1213.19,47.2441 "></polyline>
<polyline clip-path="url(#clip232)" style="stroke:#000000; stroke-linecap:round; stroke-linejoin:round; stroke-width:2; stroke-opacity:0.1; fill:none" points="1530.97,1423.18 1530.97,47.2441 "></polyline>
<polyline clip-path="url(#clip232)" style="stroke:#000000; stroke-linecap:round; stroke-linejoin:round; stroke-width:2; stroke-opacity:0.1; fill:none" points="1848.75,1423.18 1848.75,47.2441 "></polyline>
<polyline clip-path="url(#clip232)" style="stroke:#000000; stroke-linecap:round; stroke-linejoin:round; stroke-width:2; stroke-opacity:0.1; fill:none" points="2166.54,1423.18 2166.54,47.2441 "></polyline>
<polyline clip-path="url(#clip230)" style="stroke:#000000; stroke-linecap:round; stroke-linejoin:round; stroke-width:4; stroke-opacity:1; fill:none" points="264.287,1423.18 2352.76,1423.18 "></polyline>
<polyline clip-path="url(#clip230)" style="stroke:#000000; stroke-linecap:round; stroke-linejoin:round; stroke-width:4; stroke-opacity:1; fill:none" points="577.621,1423.18 577.621,1404.28 "></polyline>
<polyline clip-path="url(#clip230)" style="stroke:#000000; stroke-linecap:round; stroke-linejoin:round; stroke-width:4; stroke-opacity:1; fill:none" points="895.404,1423.18 895.404,1404.28 "></polyline>
<polyline clip-path="url(#clip230)" style="stroke:#000000; stroke-linecap:round; stroke-linejoin:round; stroke-width:4; stroke-opacity:1; fill:none" points="1213.19,1423.18 1213.19,1404.28 "></polyline>
<polyline clip-path="url(#clip230)" style="stroke:#000000; stroke-linecap:round; stroke-linejoin:round; stroke-width:4; stroke-opacity:1; fill:none" points="1530.97,1423.18 1530.97,1404.28 "></polyline>
<polyline clip-path="url(#clip230)" style="stroke:#000000; stroke-linecap:round; stroke-linejoin:round; stroke-width:4; stroke-opacity:1; fill:none" points="1848.75,1423.18 1848.75,1404.28 "></polyline>
<polyline clip-path="url(#clip230)" style="stroke:#000000; stroke-linecap:round; stroke-linejoin:round; stroke-width:4; stroke-opacity:1; fill:none" points="2166.54,1423.18 2166.54,1404.28 "></polyline>
<path clip-path="url(#clip230)" d="M567.899 1451.02 L586.255 1451.02 L586.255 1454.96 L572.181 1454.96 L572.181 1463.43 Q573.2 1463.08 574.218 1462.92 Q575.237 1462.73 576.255 1462.73 Q582.042 1462.73 585.422 1465.9 Q588.802 1469.08 588.802 1474.49 Q588.802 1480.07 585.329 1483.17 Q581.857 1486.25 575.538 1486.25 Q573.362 1486.25 571.093 1485.88 Q568.848 1485.51 566.441 1484.77 L566.441 1480.07 Q568.524 1481.2 570.746 1481.76 Q572.968 1482.32 575.445 1482.32 Q579.45 1482.32 581.788 1480.21 Q584.126 1478.1 584.126 1474.49 Q584.126 1470.88 581.788 1468.77 Q579.45 1466.67 575.445 1466.67 Q573.57 1466.67 571.695 1467.08 Q569.843 1467.5 567.899 1468.38 L567.899 1451.02 Z" fill="#000000" fill-rule="nonzero" fill-opacity="1"></path><path clip-path="url(#clip230)" d="M870.092 1481.64 L877.73 1481.64 L877.73 1455.28 L869.42 1456.95 L869.42 1452.69 L877.684 1451.02 L882.36 1451.02 L882.36 1481.64 L889.999 1481.64 L889.999 1485.58 L870.092 1485.58 L870.092 1481.64 Z" fill="#000000" fill-rule="nonzero" fill-opacity="1"></path><path clip-path="url(#clip230)" d="M909.443 1454.1 Q905.832 1454.1 904.003 1457.66 Q902.198 1461.2 902.198 1468.33 Q902.198 1475.44 904.003 1479.01 Q905.832 1482.55 909.443 1482.55 Q913.077 1482.55 914.883 1479.01 Q916.712 1475.44 916.712 1468.33 Q916.712 1461.2 914.883 1457.66 Q913.077 1454.1 909.443 1454.1 M909.443 1450.39 Q915.253 1450.39 918.309 1455 Q921.388 1459.58 921.388 1468.33 Q921.388 1477.06 918.309 1481.67 Q915.253 1486.25 909.443 1486.25 Q903.633 1486.25 900.554 1481.67 Q897.499 1477.06 897.499 1468.33 Q897.499 1459.58 900.554 1455 Q903.633 1450.39 909.443 1450.39 Z" fill="#000000" fill-rule="nonzero" fill-opacity="1"></path><path clip-path="url(#clip230)" d="M1188.37 1481.64 L1196.01 1481.64 L1196.01 1455.28 L1187.7 1456.95 L1187.7 1452.69 L1195.96 1451.02 L1200.64 1451.02 L1200.64 1481.64 L1208.28 1481.64 L1208.28 1485.58 L1188.37 1485.58 L1188.37 1481.64 Z" fill="#000000" fill-rule="nonzero" fill-opacity="1"></path><path clip-path="url(#clip230)" d="M1217.77 1451.02 L1236.13 1451.02 L1236.13 1454.96 L1222.05 1454.96 L1222.05 1463.43 Q1223.07 1463.08 1224.09 1462.92 Q1225.11 1462.73 1226.13 1462.73 Q1231.91 1462.73 1235.29 1465.9 Q1238.67 1469.08 1238.67 1474.49 Q1238.67 1480.07 1235.2 1483.17 Q1231.73 1486.25 1225.41 1486.25 Q1223.23 1486.25 1220.96 1485.88 Q1218.72 1485.51 1216.31 1484.77 L1216.31 1480.07 Q1218.4 1481.2 1220.62 1481.76 Q1222.84 1482.32 1225.32 1482.32 Q1229.32 1482.32 1231.66 1480.21 Q1234 1478.1 1234 1474.49 Q1234 1470.88 1231.66 1468.77 Q1229.32 1466.67 1225.32 1466.67 Q1223.44 1466.67 1221.57 1467.08 Q1219.71 1467.5 1217.77 1468.38 L1217.77 1451.02 Z" fill="#000000" fill-rule="nonzero" fill-opacity="1"></path><path clip-path="url(#clip230)" d="M1509.74 1481.64 L1526.06 1481.64 L1526.06 1485.58 L1504.12 1485.58 L1504.12 1481.64 Q1506.78 1478.89 1511.36 1474.26 Q1515.97 1469.61 1517.15 1468.27 Q1519.4 1465.74 1520.28 1464.01 Q1521.18 1462.25 1521.18 1460.56 Q1521.18 1457.8 1519.23 1456.07 Q1517.31 1454.33 1514.21 1454.33 Q1512.01 1454.33 1509.56 1455.09 Q1507.13 1455.86 1504.35 1457.41 L1504.35 1452.69 Q1507.17 1451.55 1509.63 1450.97 Q1512.08 1450.39 1514.12 1450.39 Q1519.49 1450.39 1522.68 1453.08 Q1525.88 1455.77 1525.88 1460.26 Q1525.88 1462.39 1525.07 1464.31 Q1524.28 1466.2 1522.17 1468.8 Q1521.59 1469.47 1518.49 1472.69 Q1515.39 1475.88 1509.74 1481.64 Z" fill="#000000" fill-rule="nonzero" fill-opacity="1"></path><path clip-path="url(#clip230)" d="M1545.88 1454.1 Q1542.27 1454.1 1540.44 1457.66 Q1538.63 1461.2 1538.63 1468.33 Q1538.63 1475.44 1540.44 1479.01 Q1542.27 1482.55 1545.88 1482.55 Q1549.51 1482.55 1551.32 1479.01 Q1553.15 1475.44 1553.15 1468.33 Q1553.15 1461.2 1551.32 1457.66 Q1549.51 1454.1 1545.88 1454.1 M1545.88 1450.39 Q1551.69 1450.39 1554.74 1455 Q1557.82 1459.58 1557.82 1468.33 Q1557.82 1477.06 1554.74 1481.67 Q1551.69 1486.25 1545.88 1486.25 Q1540.07 1486.25 1536.99 1481.67 Q1533.93 1477.06 1533.93 1468.33 Q1533.93 1459.58 1536.99 1455 Q1540.07 1450.39 1545.88 1450.39 Z" fill="#000000" fill-rule="nonzero" fill-opacity="1"></path><path clip-path="url(#clip230)" d="M1828.02 1481.64 L1844.34 1481.64 L1844.34 1485.58 L1822.4 1485.58 L1822.4 1481.64 Q1825.06 1478.89 1829.64 1474.26 Q1834.25 1469.61 1835.43 1468.27 Q1837.68 1465.74 1838.56 1464.01 Q1839.46 1462.25 1839.46 1460.56 Q1839.46 1457.8 1837.51 1456.07 Q1835.59 1454.33 1832.49 1454.33 Q1830.29 1454.33 1827.84 1455.09 Q1825.41 1455.86 1822.63 1457.41 L1822.63 1452.69 Q1825.45 1451.55 1827.91 1450.97 Q1830.36 1450.39 1832.4 1450.39 Q1837.77 1450.39 1840.96 1453.08 Q1844.16 1455.77 1844.16 1460.26 Q1844.16 1462.39 1843.35 1464.31 Q1842.56 1466.2 1840.45 1468.8 Q1839.88 1469.47 1836.77 1472.69 Q1833.67 1475.88 1828.02 1481.64 Z" fill="#000000" fill-rule="nonzero" fill-opacity="1"></path><path clip-path="url(#clip230)" d="M1854.2 1451.02 L1872.56 1451.02 L1872.56 1454.96 L1858.49 1454.96 L1858.49 1463.43 Q1859.5 1463.08 1860.52 1462.92 Q1861.54 1462.73 1862.56 1462.73 Q1868.35 1462.73 1871.73 1465.9 Q1875.11 1469.08 1875.11 1474.49 Q1875.11 1480.07 1871.63 1483.17 Q1868.16 1486.25 1861.84 1486.25 Q1859.67 1486.25 1857.4 1485.88 Q1855.15 1485.51 1852.75 1484.77 L1852.75 1480.07 Q1854.83 1481.2 1857.05 1481.76 Q1859.27 1482.32 1861.75 1482.32 Q1865.75 1482.32 1868.09 1480.21 Q1870.43 1478.1 1870.43 1474.49 Q1870.43 1470.88 1868.09 1468.77 Q1865.75 1466.67 1861.75 1466.67 Q1859.88 1466.67 1858 1467.08 Q1856.15 1467.5 1854.2 1468.38 L1854.2 1451.02 Z" fill="#000000" fill-rule="nonzero" fill-opacity="1"></path><path clip-path="url(#clip230)" d="M2155.38 1466.95 Q2158.73 1467.66 2160.61 1469.93 Q2162.51 1472.2 2162.51 1475.53 Q2162.51 1480.65 2158.99 1483.45 Q2155.47 1486.25 2148.99 1486.25 Q2146.81 1486.25 2144.5 1485.81 Q2142.21 1485.39 2139.75 1484.54 L2139.75 1480.02 Q2141.7 1481.16 2144.01 1481.74 Q2146.33 1482.32 2148.85 1482.32 Q2153.25 1482.32 2155.54 1480.58 Q2157.85 1478.84 2157.85 1475.53 Q2157.85 1472.48 2155.7 1470.77 Q2153.57 1469.03 2149.75 1469.03 L2145.73 1469.03 L2145.73 1465.19 L2149.94 1465.19 Q2153.39 1465.19 2155.22 1463.82 Q2157.04 1462.43 2157.04 1459.84 Q2157.04 1457.18 2155.15 1455.77 Q2153.27 1454.33 2149.75 1454.33 Q2147.83 1454.33 2145.63 1454.75 Q2143.43 1455.16 2140.79 1456.04 L2140.79 1451.88 Q2143.46 1451.14 2145.77 1450.77 Q2148.11 1450.39 2150.17 1450.39 Q2155.49 1450.39 2158.6 1452.83 Q2161.7 1455.23 2161.7 1459.35 Q2161.7 1462.22 2160.05 1464.21 Q2158.41 1466.18 2155.38 1466.95 Z" fill="#000000" fill-rule="nonzero" fill-opacity="1"></path><path clip-path="url(#clip230)" d="M2181.37 1454.1 Q2177.76 1454.1 2175.93 1457.66 Q2174.13 1461.2 2174.13 1468.33 Q2174.13 1475.44 2175.93 1479.01 Q2177.76 1482.55 2181.37 1482.55 Q2185.01 1482.55 2186.81 1479.01 Q2188.64 1475.44 2188.64 1468.33 Q2188.64 1461.2 2186.81 1457.66 Q2185.01 1454.1 2181.37 1454.1 M2181.37 1450.39 Q2187.18 1450.39 2190.24 1455 Q2193.32 1459.58 2193.32 1468.33 Q2193.32 1477.06 2190.24 1481.67 Q2187.18 1486.25 2181.37 1486.25 Q2175.56 1486.25 2172.48 1481.67 Q2169.43 1477.06 2169.43 1468.33 Q2169.43 1459.58 2172.48 1455 Q2175.56 1450.39 2181.37 1450.39 Z" fill="#000000" fill-rule="nonzero" fill-opacity="1"></path><path clip-path="url(#clip230)" d="M1146.47 1522.08 L1146.47 1528.35 Q1142.81 1526.6 1139.56 1525.74 Q1136.31 1524.88 1133.29 1524.88 Q1128.04 1524.88 1125.17 1526.92 Q1122.34 1528.96 1122.34 1532.71 Q1122.34 1535.87 1124.22 1537.49 Q1126.13 1539.08 1131.41 1540.07 L1135.29 1540.86 Q1142.49 1542.23 1145.89 1545.7 Q1149.33 1549.14 1149.33 1554.93 Q1149.33 1561.84 1144.68 1565.4 Q1140.07 1568.97 1131.13 1568.97 Q1127.75 1568.97 1123.93 1568.2 Q1120.14 1567.44 1116.07 1565.94 L1116.07 1559.32 Q1119.99 1561.52 1123.74 1562.63 Q1127.5 1563.75 1131.13 1563.75 Q1136.63 1563.75 1139.62 1561.58 Q1142.62 1559.42 1142.62 1555.41 Q1142.62 1551.91 1140.45 1549.93 Q1138.32 1547.96 1133.42 1546.97 L1129.5 1546.21 Q1122.31 1544.78 1119.09 1541.72 Q1115.88 1538.67 1115.88 1533.22 Q1115.88 1526.92 1120.3 1523.29 Q1124.76 1519.66 1132.56 1519.66 Q1135.9 1519.66 1139.37 1520.27 Q1142.84 1520.87 1146.47 1522.08 Z" fill="#000000" fill-rule="nonzero" fill-opacity="1"></path><path clip-path="url(#clip230)" d="M1164.9 1522.27 L1164.9 1532.4 L1176.96 1532.4 L1176.96 1536.95 L1164.9 1536.95 L1164.9 1556.3 Q1164.9 1560.66 1166.07 1561.9 Q1167.28 1563.14 1170.94 1563.14 L1176.96 1563.14 L1176.96 1568.04 L1170.94 1568.04 Q1164.16 1568.04 1161.59 1565.53 Q1159.01 1562.98 1159.01 1556.3 L1159.01 1536.95 L1154.71 1536.95 L1154.71 1532.4 L1159.01 1532.4 L1159.01 1522.27 L1164.9 1522.27 Z" fill="#000000" fill-rule="nonzero" fill-opacity="1"></path><path clip-path="url(#clip230)" d="M1205.32 1537.87 Q1204.33 1537.3 1203.15 1537.04 Q1202.01 1536.76 1200.61 1536.76 Q1195.64 1536.76 1192.97 1540 Q1190.33 1543.22 1190.33 1549.27 L1190.33 1568.04 L1184.44 1568.04 L1184.44 1532.4 L1190.33 1532.4 L1190.33 1537.93 Q1192.17 1534.69 1195.13 1533.13 Q1198.09 1531.54 1202.33 1531.54 Q1202.93 1531.54 1203.66 1531.63 Q1204.39 1531.7 1205.29 1531.85 L1205.32 1537.87 Z" fill="#000000" fill-rule="nonzero" fill-opacity="1"></path><path clip-path="url(#clip230)" d="M1211.46 1532.4 L1217.32 1532.4 L1217.32 1568.04 L1211.46 1568.04 L1211.46 1532.4 M1211.46 1518.52 L1217.32 1518.52 L1217.32 1525.93 L1211.46 1525.93 L1211.46 1518.52 Z" fill="#000000" fill-rule="nonzero" fill-opacity="1"></path><path clip-path="url(#clip230)" d="M1253.03 1537.81 L1253.03 1518.52 L1258.89 1518.52 L1258.89 1568.04 L1253.03 1568.04 L1253.03 1562.7 Q1251.18 1565.88 1248.35 1567.44 Q1245.55 1568.97 1241.6 1568.97 Q1235.14 1568.97 1231.07 1563.81 Q1227.02 1558.65 1227.02 1550.25 Q1227.02 1541.85 1231.07 1536.69 Q1235.14 1531.54 1241.6 1531.54 Q1245.55 1531.54 1248.35 1533.1 Q1251.18 1534.62 1253.03 1537.81 M1233.07 1550.25 Q1233.07 1556.71 1235.71 1560.4 Q1238.39 1564.07 1243.03 1564.07 Q1247.68 1564.07 1250.35 1560.4 Q1253.03 1556.71 1253.03 1550.25 Q1253.03 1543.79 1250.35 1540.13 Q1247.68 1536.44 1243.03 1536.44 Q1238.39 1536.44 1235.71 1540.13 Q1233.07 1543.79 1233.07 1550.25 Z" fill="#000000" fill-rule="nonzero" fill-opacity="1"></path><path clip-path="url(#clip230)" d="M1301.44 1548.76 L1301.44 1551.62 L1274.51 1551.62 Q1274.89 1557.67 1278.14 1560.85 Q1281.42 1564 1287.24 1564 Q1290.62 1564 1293.77 1563.17 Q1296.95 1562.35 1300.07 1560.69 L1300.07 1566.23 Q1296.92 1567.57 1293.61 1568.27 Q1290.3 1568.97 1286.89 1568.97 Q1278.36 1568.97 1273.37 1564 Q1268.4 1559.04 1268.4 1550.57 Q1268.4 1541.82 1273.11 1536.69 Q1277.85 1531.54 1285.88 1531.54 Q1293.07 1531.54 1297.24 1536.18 Q1301.44 1540.8 1301.44 1548.76 M1295.58 1547.04 Q1295.52 1542.23 1292.88 1539.37 Q1290.27 1536.5 1285.94 1536.5 Q1281.04 1536.5 1278.08 1539.27 Q1275.15 1542.04 1274.7 1547.07 L1295.58 1547.04 Z" fill="#000000" fill-rule="nonzero" fill-opacity="1"></path><path clip-path="url(#clip230)" d="M1344.28 1568.04 L1326.14 1520.52 L1332.85 1520.52 L1347.91 1560.53 L1363 1520.52 L1369.68 1520.52 L1351.57 1568.04 L1344.28 1568.04 Z" fill="#000000" fill-rule="nonzero" fill-opacity="1"></path><path clip-path="url(#clip230)" d="M1387.5 1550.12 Q1380.41 1550.12 1377.67 1551.75 Q1374.93 1553.37 1374.93 1557.29 Q1374.93 1560.4 1376.97 1562.25 Q1379.04 1564.07 1382.57 1564.07 Q1387.44 1564.07 1390.37 1560.63 Q1393.33 1557.16 1393.33 1551.43 L1393.33 1550.12 L1387.5 1550.12 M1399.19 1547.71 L1399.19 1568.04 L1393.33 1568.04 L1393.33 1562.63 Q1391.32 1565.88 1388.33 1567.44 Q1385.34 1568.97 1381.01 1568.97 Q1375.54 1568.97 1372.29 1565.91 Q1369.08 1562.82 1369.08 1557.67 Q1369.08 1551.65 1373.09 1548.6 Q1377.13 1545.54 1385.12 1545.54 L1393.33 1545.54 L1393.33 1544.97 Q1393.33 1540.93 1390.66 1538.73 Q1388.01 1536.5 1383.21 1536.5 Q1380.15 1536.5 1377.26 1537.23 Q1374.36 1537.97 1371.69 1539.43 L1371.69 1534.02 Q1374.9 1532.78 1377.92 1532.17 Q1380.95 1531.54 1383.81 1531.54 Q1391.55 1531.54 1395.37 1535.55 Q1399.19 1539.56 1399.19 1547.71 Z" fill="#000000" fill-rule="nonzero" fill-opacity="1"></path><path clip-path="url(#clip230)" d="M1411.25 1518.52 L1417.1 1518.52 L1417.1 1568.04 L1411.25 1568.04 L1411.25 1518.52 Z" fill="#000000" fill-rule="nonzero" fill-opacity="1"></path><path clip-path="url(#clip230)" d="M1428.75 1553.98 L1428.75 1532.4 L1434.61 1532.4 L1434.61 1553.75 Q1434.61 1558.81 1436.58 1561.36 Q1438.56 1563.87 1442.5 1563.87 Q1447.25 1563.87 1449.98 1560.85 Q1452.75 1557.83 1452.75 1552.61 L1452.75 1532.4 L1458.61 1532.4 L1458.61 1568.04 L1452.75 1568.04 L1452.75 1562.57 Q1450.62 1565.82 1447.79 1567.41 Q1444.99 1568.97 1441.26 1568.97 Q1435.12 1568.97 1431.94 1565.15 Q1428.75 1561.33 1428.75 1553.98 M1443.49 1531.54 L1443.49 1531.54 Z" fill="#000000" fill-rule="nonzero" fill-opacity="1"></path><path clip-path="url(#clip230)" d="M1501.16 1548.76 L1501.16 1551.62 L1474.24 1551.62 Q1474.62 1557.67 1477.87 1560.85 Q1481.14 1564 1486.97 1564 Q1490.34 1564 1493.49 1563.17 Q1496.68 1562.35 1499.8 1560.69 L1499.8 1566.23 Q1496.64 1567.57 1493.33 1568.27 Q1490.02 1568.97 1486.62 1568.97 Q1478.09 1568.97 1473.09 1564 Q1468.13 1559.04 1468.13 1550.57 Q1468.13 1541.82 1472.84 1536.69 Q1477.58 1531.54 1485.6 1531.54 Q1492.79 1531.54 1496.96 1536.18 Q1501.16 1540.8 1501.16 1548.76 M1495.31 1547.04 Q1495.24 1542.23 1492.6 1539.37 Q1489.99 1536.5 1485.66 1536.5 Q1480.76 1536.5 1477.8 1539.27 Q1474.87 1542.04 1474.43 1547.07 L1495.31 1547.04 Z" fill="#000000" fill-rule="nonzero" fill-opacity="1"></path><polyline clip-path="url(#clip232)" style="stroke:#000000; stroke-linecap:round; stroke-linejoin:round; stroke-width:2; stroke-opacity:0.1; fill:none" points="264.287,1186.79 2352.76,1186.79 "></polyline>
<polyline clip-path="url(#clip232)" style="stroke:#000000; stroke-linecap:round; stroke-linejoin:round; stroke-width:2; stroke-opacity:0.1; fill:none" points="264.287,916.479 2352.76,916.479 "></polyline>
<polyline clip-path="url(#clip232)" style="stroke:#000000; stroke-linecap:round; stroke-linejoin:round; stroke-width:2; stroke-opacity:0.1; fill:none" points="264.287,646.169 2352.76,646.169 "></polyline>
<polyline clip-path="url(#clip232)" style="stroke:#000000; stroke-linecap:round; stroke-linejoin:round; stroke-width:2; stroke-opacity:0.1; fill:none" points="264.287,375.859 2352.76,375.859 "></polyline>
<polyline clip-path="url(#clip232)" style="stroke:#000000; stroke-linecap:round; stroke-linejoin:round; stroke-width:2; stroke-opacity:0.1; fill:none" points="264.287,105.55 2352.76,105.55 "></polyline>
<polyline clip-path="url(#clip230)" style="stroke:#000000; stroke-linecap:round; stroke-linejoin:round; stroke-width:4; stroke-opacity:1; fill:none" points="264.287,1423.18 264.287,47.2441 "></polyline>
<polyline clip-path="url(#clip230)" style="stroke:#000000; stroke-linecap:round; stroke-linejoin:round; stroke-width:4; stroke-opacity:1; fill:none" points="264.287,1186.79 283.185,1186.79 "></polyline>
<polyline clip-path="url(#clip230)" style="stroke:#000000; stroke-linecap:round; stroke-linejoin:round; stroke-width:4; stroke-opacity:1; fill:none" points="264.287,916.479 283.185,916.479 "></polyline>
<polyline clip-path="url(#clip230)" style="stroke:#000000; stroke-linecap:round; stroke-linejoin:round; stroke-width:4; stroke-opacity:1; fill:none" points="264.287,646.169 283.185,646.169 "></polyline>
<polyline clip-path="url(#clip230)" style="stroke:#000000; stroke-linecap:round; stroke-linejoin:round; stroke-width:4; stroke-opacity:1; fill:none" points="264.287,375.859 283.185,375.859 "></polyline>
<polyline clip-path="url(#clip230)" style="stroke:#000000; stroke-linecap:round; stroke-linejoin:round; stroke-width:4; stroke-opacity:1; fill:none" points="264.287,105.55 283.185,105.55 "></polyline>
<path clip-path="url(#clip230)" d="M116.668 1200.13 L124.306 1200.13 L124.306 1173.77 L115.996 1175.43 L115.996 1171.18 L124.26 1169.51 L128.936 1169.51 L128.936 1200.13 L136.575 1200.13 L136.575 1204.07 L116.668 1204.07 L116.668 1200.13 Z" fill="#000000" fill-rule="nonzero" fill-opacity="1"></path><path clip-path="url(#clip230)" d="M156.019 1172.59 Q152.408 1172.59 150.579 1176.15 Q148.774 1179.69 148.774 1186.82 Q148.774 1193.93 150.579 1197.49 Q152.408 1201.04 156.019 1201.04 Q159.653 1201.04 161.459 1197.49 Q163.288 1193.93 163.288 1186.82 Q163.288 1179.69 161.459 1176.15 Q159.653 1172.59 156.019 1172.59 M156.019 1168.88 Q161.829 1168.88 164.885 1173.49 Q167.964 1178.07 167.964 1186.82 Q167.964 1195.55 164.885 1200.16 Q161.829 1204.74 156.019 1204.74 Q150.209 1204.74 147.13 1200.16 Q144.075 1195.55 144.075 1186.82 Q144.075 1178.07 147.13 1173.49 Q150.209 1168.88 156.019 1168.88 Z" fill="#000000" fill-rule="nonzero" fill-opacity="1"></path><path clip-path="url(#clip230)" d="M186.181 1172.59 Q182.57 1172.59 180.741 1176.15 Q178.936 1179.69 178.936 1186.82 Q178.936 1193.93 180.741 1197.49 Q182.57 1201.04 186.181 1201.04 Q189.815 1201.04 191.621 1197.49 Q193.45 1193.93 193.45 1186.82 Q193.45 1179.69 191.621 1176.15 Q189.815 1172.59 186.181 1172.59 M186.181 1168.88 Q191.991 1168.88 195.047 1173.49 Q198.125 1178.07 198.125 1186.82 Q198.125 1195.55 195.047 1200.16 Q191.991 1204.74 186.181 1204.74 Q180.371 1204.74 177.292 1200.16 Q174.237 1195.55 174.237 1186.82 Q174.237 1178.07 177.292 1173.49 Q180.371 1168.88 186.181 1168.88 Z" fill="#000000" fill-rule="nonzero" fill-opacity="1"></path><path clip-path="url(#clip230)" d="M216.343 1172.59 Q212.732 1172.59 210.903 1176.15 Q209.098 1179.69 209.098 1186.82 Q209.098 1193.93 210.903 1197.49 Q212.732 1201.04 216.343 1201.04 Q219.977 1201.04 221.783 1197.49 Q223.611 1193.93 223.611 1186.82 Q223.611 1179.69 221.783 1176.15 Q219.977 1172.59 216.343 1172.59 M216.343 1168.88 Q222.153 1168.88 225.209 1173.49 Q228.287 1178.07 228.287 1186.82 Q228.287 1195.55 225.209 1200.16 Q222.153 1204.74 216.343 1204.74 Q210.533 1204.74 207.454 1200.16 Q204.399 1195.55 204.399 1186.82 Q204.399 1178.07 207.454 1173.49 Q210.533 1168.88 216.343 1168.88 Z" fill="#000000" fill-rule="nonzero" fill-opacity="1"></path><path clip-path="url(#clip230)" d="M116.668 929.824 L124.306 929.824 L124.306 903.458 L115.996 905.125 L115.996 900.865 L124.26 899.199 L128.936 899.199 L128.936 929.824 L136.575 929.824 L136.575 933.759 L116.668 933.759 L116.668 929.824 Z" fill="#000000" fill-rule="nonzero" fill-opacity="1"></path><path clip-path="url(#clip230)" d="M146.066 899.199 L164.422 899.199 L164.422 903.134 L150.348 903.134 L150.348 911.606 Q151.366 911.259 152.385 911.097 Q153.403 910.912 154.422 910.912 Q160.209 910.912 163.589 914.083 Q166.968 917.254 166.968 922.671 Q166.968 928.249 163.496 931.351 Q160.024 934.43 153.704 934.43 Q151.528 934.43 149.26 934.06 Q147.015 933.689 144.607 932.949 L144.607 928.249 Q146.691 929.384 148.913 929.939 Q151.135 930.495 153.612 930.495 Q157.616 930.495 159.954 928.388 Q162.292 926.282 162.292 922.671 Q162.292 919.06 159.954 916.953 Q157.616 914.847 153.612 914.847 Q151.737 914.847 149.862 915.263 Q148.01 915.68 146.066 916.56 L146.066 899.199 Z" fill="#000000" fill-rule="nonzero" fill-opacity="1"></path><path clip-path="url(#clip230)" d="M186.181 902.277 Q182.57 902.277 180.741 905.842 Q178.936 909.384 178.936 916.513 Q178.936 923.62 180.741 927.185 Q182.57 930.726 186.181 930.726 Q189.815 930.726 191.621 927.185 Q193.45 923.62 193.45 916.513 Q193.45 909.384 191.621 905.842 Q189.815 902.277 186.181 902.277 M186.181 898.574 Q191.991 898.574 195.047 903.18 Q198.125 907.763 198.125 916.513 Q198.125 925.24 195.047 929.847 Q191.991 934.43 186.181 934.43 Q180.371 934.43 177.292 929.847 Q174.237 925.24 174.237 916.513 Q174.237 907.763 177.292 903.18 Q180.371 898.574 186.181 898.574 Z" fill="#000000" fill-rule="nonzero" fill-opacity="1"></path><path clip-path="url(#clip230)" d="M216.343 902.277 Q212.732 902.277 210.903 905.842 Q209.098 909.384 209.098 916.513 Q209.098 923.62 210.903 927.185 Q212.732 930.726 216.343 930.726 Q219.977 930.726 221.783 927.185 Q223.611 923.62 223.611 916.513 Q223.611 909.384 221.783 905.842 Q219.977 902.277 216.343 902.277 M216.343 898.574 Q222.153 898.574 225.209 903.18 Q228.287 907.763 228.287 916.513 Q228.287 925.24 225.209 929.847 Q222.153 934.43 216.343 934.43 Q210.533 934.43 207.454 929.847 Q204.399 925.24 204.399 916.513 Q204.399 907.763 207.454 903.18 Q210.533 898.574 216.343 898.574 Z" fill="#000000" fill-rule="nonzero" fill-opacity="1"></path><path clip-path="url(#clip230)" d="M119.885 659.514 L136.204 659.514 L136.204 663.449 L114.26 663.449 L114.26 659.514 Q116.922 656.759 121.505 652.13 Q126.112 647.477 127.292 646.134 Q129.538 643.611 130.417 641.875 Q131.32 640.116 131.32 638.426 Q131.32 635.671 129.376 633.935 Q127.455 632.199 124.353 632.199 Q122.154 632.199 119.7 632.963 Q117.269 633.727 114.492 635.278 L114.492 630.556 Q117.316 629.421 119.769 628.843 Q122.223 628.264 124.26 628.264 Q129.63 628.264 132.825 630.949 Q136.019 633.634 136.019 638.125 Q136.019 640.255 135.209 642.176 Q134.422 644.074 132.316 646.667 Q131.737 647.338 128.635 650.556 Q125.533 653.75 119.885 659.514 Z" fill="#000000" fill-rule="nonzero" fill-opacity="1"></path><path clip-path="url(#clip230)" d="M156.019 631.968 Q152.408 631.968 150.579 635.532 Q148.774 639.074 148.774 646.204 Q148.774 653.31 150.579 656.875 Q152.408 660.417 156.019 660.417 Q159.653 660.417 161.459 656.875 Q163.288 653.31 163.288 646.204 Q163.288 639.074 161.459 635.532 Q159.653 631.968 156.019 631.968 M156.019 628.264 Q161.829 628.264 164.885 632.87 Q167.964 637.454 167.964 646.204 Q167.964 654.931 164.885 659.537 Q161.829 664.12 156.019 664.12 Q150.209 664.12 147.13 659.537 Q144.075 654.931 144.075 646.204 Q144.075 637.454 147.13 632.87 Q150.209 628.264 156.019 628.264 Z" fill="#000000" fill-rule="nonzero" fill-opacity="1"></path><path clip-path="url(#clip230)" d="M186.181 631.968 Q182.57 631.968 180.741 635.532 Q178.936 639.074 178.936 646.204 Q178.936 653.31 180.741 656.875 Q182.57 660.417 186.181 660.417 Q189.815 660.417 191.621 656.875 Q193.45 653.31 193.45 646.204 Q193.45 639.074 191.621 635.532 Q189.815 631.968 186.181 631.968 M186.181 628.264 Q191.991 628.264 195.047 632.87 Q198.125 637.454 198.125 646.204 Q198.125 654.931 195.047 659.537 Q191.991 664.12 186.181 664.12 Q180.371 664.12 177.292 659.537 Q174.237 654.931 174.237 646.204 Q174.237 637.454 177.292 632.87 Q180.371 628.264 186.181 628.264 Z" fill="#000000" fill-rule="nonzero" fill-opacity="1"></path><path clip-path="url(#clip230)" d="M216.343 631.968 Q212.732 631.968 210.903 635.532 Q209.098 639.074 209.098 646.204 Q209.098 653.31 210.903 656.875 Q212.732 660.417 216.343 660.417 Q219.977 660.417 221.783 656.875 Q223.611 653.31 223.611 646.204 Q223.611 639.074 221.783 635.532 Q219.977 631.968 216.343 631.968 M216.343 628.264 Q222.153 628.264 225.209 632.87 Q228.287 637.454 228.287 646.204 Q228.287 654.931 225.209 659.537 Q222.153 664.12 216.343 664.12 Q210.533 664.12 207.454 659.537 Q204.399 654.931 204.399 646.204 Q204.399 637.454 207.454 632.87 Q210.533 628.264 216.343 628.264 Z" fill="#000000" fill-rule="nonzero" fill-opacity="1"></path><path clip-path="url(#clip230)" d="M119.885 389.204 L136.204 389.204 L136.204 393.139 L114.26 393.139 L114.26 389.204 Q116.922 386.45 121.505 381.82 Q126.112 377.167 127.292 375.825 Q129.538 373.301 130.417 371.565 Q131.32 369.806 131.32 368.116 Q131.32 365.362 129.376 363.626 Q127.455 361.889 124.353 361.889 Q122.154 361.889 119.7 362.653 Q117.269 363.417 114.492 364.968 L114.492 360.246 Q117.316 359.112 119.769 358.533 Q122.223 357.954 124.26 357.954 Q129.63 357.954 132.825 360.64 Q136.019 363.325 136.019 367.815 Q136.019 369.945 135.209 371.866 Q134.422 373.764 132.316 376.357 Q131.737 377.028 128.635 380.246 Q125.533 383.44 119.885 389.204 Z" fill="#000000" fill-rule="nonzero" fill-opacity="1"></path><path clip-path="url(#clip230)" d="M146.066 358.579 L164.422 358.579 L164.422 362.514 L150.348 362.514 L150.348 370.987 Q151.366 370.639 152.385 370.477 Q153.403 370.292 154.422 370.292 Q160.209 370.292 163.589 373.464 Q166.968 376.635 166.968 382.051 Q166.968 387.63 163.496 390.732 Q160.024 393.811 153.704 393.811 Q151.528 393.811 149.26 393.44 Q147.015 393.07 144.607 392.329 L144.607 387.63 Q146.691 388.764 148.913 389.32 Q151.135 389.875 153.612 389.875 Q157.616 389.875 159.954 387.769 Q162.292 385.663 162.292 382.051 Q162.292 378.44 159.954 376.334 Q157.616 374.227 153.612 374.227 Q151.737 374.227 149.862 374.644 Q148.01 375.061 146.066 375.94 L146.066 358.579 Z" fill="#000000" fill-rule="nonzero" fill-opacity="1"></path><path clip-path="url(#clip230)" d="M186.181 361.658 Q182.57 361.658 180.741 365.223 Q178.936 368.764 178.936 375.894 Q178.936 383 180.741 386.565 Q182.57 390.107 186.181 390.107 Q189.815 390.107 191.621 386.565 Q193.45 383 193.45 375.894 Q193.45 368.764 191.621 365.223 Q189.815 361.658 186.181 361.658 M186.181 357.954 Q191.991 357.954 195.047 362.561 Q198.125 367.144 198.125 375.894 Q198.125 384.621 195.047 389.227 Q191.991 393.811 186.181 393.811 Q180.371 393.811 177.292 389.227 Q174.237 384.621 174.237 375.894 Q174.237 367.144 177.292 362.561 Q180.371 357.954 186.181 357.954 Z" fill="#000000" fill-rule="nonzero" fill-opacity="1"></path><path clip-path="url(#clip230)" d="M216.343 361.658 Q212.732 361.658 210.903 365.223 Q209.098 368.764 209.098 375.894 Q209.098 383 210.903 386.565 Q212.732 390.107 216.343 390.107 Q219.977 390.107 221.783 386.565 Q223.611 383 223.611 375.894 Q223.611 368.764 221.783 365.223 Q219.977 361.658 216.343 361.658 M216.343 357.954 Q222.153 357.954 225.209 362.561 Q228.287 367.144 228.287 375.894 Q228.287 384.621 225.209 389.227 Q222.153 393.811 216.343 393.811 Q210.533 393.811 207.454 389.227 Q204.399 384.621 204.399 375.894 Q204.399 367.144 207.454 362.561 Q210.533 357.954 216.343 357.954 Z" fill="#000000" fill-rule="nonzero" fill-opacity="1"></path><path clip-path="url(#clip230)" d="M130.024 104.195 Q133.38 104.913 135.255 107.182 Q137.154 109.45 137.154 112.783 Q137.154 117.899 133.635 120.7 Q130.117 123.501 123.635 123.501 Q121.459 123.501 119.144 123.061 Q116.853 122.644 114.399 121.788 L114.399 117.274 Q116.343 118.408 118.658 118.987 Q120.973 119.566 123.496 119.566 Q127.894 119.566 130.186 117.83 Q132.501 116.094 132.501 112.783 Q132.501 109.728 130.348 108.015 Q128.218 106.279 124.399 106.279 L120.371 106.279 L120.371 102.436 L124.584 102.436 Q128.033 102.436 129.862 101.07 Q131.691 99.6816 131.691 97.089 Q131.691 94.427 129.792 93.015 Q127.917 91.5798 124.399 91.5798 Q122.478 91.5798 120.279 91.9965 Q118.08 92.4131 115.441 93.2928 L115.441 89.1261 Q118.103 88.3854 120.418 88.015 Q122.755 87.6446 124.816 87.6446 Q130.14 87.6446 133.242 90.0752 Q136.343 92.4826 136.343 96.6029 Q136.343 99.4733 134.7 101.464 Q133.056 103.432 130.024 104.195 Z" fill="#000000" fill-rule="nonzero" fill-opacity="1"></path><path clip-path="url(#clip230)" d="M156.019 91.3483 Q152.408 91.3483 150.579 94.9131 Q148.774 98.4548 148.774 105.584 Q148.774 112.691 150.579 116.256 Q152.408 119.797 156.019 119.797 Q159.653 119.797 161.459 116.256 Q163.288 112.691 163.288 105.584 Q163.288 98.4548 161.459 94.9131 Q159.653 91.3483 156.019 91.3483 M156.019 87.6446 Q161.829 87.6446 164.885 92.2511 Q167.964 96.8344 167.964 105.584 Q167.964 114.311 164.885 118.918 Q161.829 123.501 156.019 123.501 Q150.209 123.501 147.13 118.918 Q144.075 114.311 144.075 105.584 Q144.075 96.8344 147.13 92.2511 Q150.209 87.6446 156.019 87.6446 Z" fill="#000000" fill-rule="nonzero" fill-opacity="1"></path><path clip-path="url(#clip230)" d="M186.181 91.3483 Q182.57 91.3483 180.741 94.9131 Q178.936 98.4548 178.936 105.584 Q178.936 112.691 180.741 116.256 Q182.57 119.797 186.181 119.797 Q189.815 119.797 191.621 116.256 Q193.45 112.691 193.45 105.584 Q193.45 98.4548 191.621 94.9131 Q189.815 91.3483 186.181 91.3483 M186.181 87.6446 Q191.991 87.6446 195.047 92.2511 Q198.125 96.8344 198.125 105.584 Q198.125 114.311 195.047 118.918 Q191.991 123.501 186.181 123.501 Q180.371 123.501 177.292 118.918 Q174.237 114.311 174.237 105.584 Q174.237 96.8344 177.292 92.2511 Q180.371 87.6446 186.181 87.6446 Z" fill="#000000" fill-rule="nonzero" fill-opacity="1"></path><path clip-path="url(#clip230)" d="M216.343 91.3483 Q212.732 91.3483 210.903 94.9131 Q209.098 98.4548 209.098 105.584 Q209.098 112.691 210.903 116.256 Q212.732 119.797 216.343 119.797 Q219.977 119.797 221.783 116.256 Q223.611 112.691 223.611 105.584 Q223.611 98.4548 221.783 94.9131 Q219.977 91.3483 216.343 91.3483 M216.343 87.6446 Q222.153 87.6446 225.209 92.2511 Q228.287 96.8344 228.287 105.584 Q228.287 114.311 225.209 118.918 Q222.153 123.501 216.343 123.501 Q210.533 123.501 207.454 118.918 Q204.399 114.311 204.399 105.584 Q204.399 96.8344 207.454 92.2511 Q210.533 87.6446 216.343 87.6446 Z" fill="#000000" fill-rule="nonzero" fill-opacity="1"></path><path clip-path="url(#clip230)" d="M57.2247 980.737 L44.4614 980.737 L44.4614 991.241 L39.1779 991.241 L39.1779 974.372 L59.58 974.372 Q62.2218 978.096 63.5904 982.583 Q64.9272 987.071 64.9272 992.164 Q64.9272 1003.3 58.4342 1009.61 Q51.9093 1015.88 40.2919 1015.88 Q28.6427 1015.88 22.1496 1009.61 Q15.6248 1003.3 15.6248 992.164 Q15.6248 987.517 16.7706 983.347 Q17.9164 979.146 20.1444 975.613 L26.9876 975.613 Q23.9639 979.178 22.4361 983.188 Q20.9083 987.198 20.9083 991.623 Q20.9083 1000.34 25.7781 1004.74 Q30.6479 1009.1 40.2919 1009.1 Q49.9041 1009.1 54.7739 1004.74 Q59.6436 1000.34 59.6436 991.623 Q59.6436 988.217 59.0707 985.543 Q58.466 982.87 57.2247 980.737 Z" fill="#000000" fill-rule="nonzero" fill-opacity="1"></path><path clip-path="url(#clip230)" d="M21.7677 956.197 L39.6235 956.197 L39.6235 948.113 Q39.6235 943.625 37.3 941.174 Q34.9765 938.724 30.6797 938.724 Q26.4147 938.724 24.0912 941.174 Q21.7677 943.625 21.7677 948.113 L21.7677 956.197 M16.4842 962.627 L16.4842 948.113 Q16.4842 940.124 20.1126 936.05 Q23.7092 931.944 30.6797 931.944 Q37.7138 931.944 41.3104 936.05 Q44.907 940.124 44.907 948.113 L44.907 956.197 L64.0042 956.197 L64.0042 962.627 L16.4842 962.627 Z" fill="#000000" fill-rule="nonzero" fill-opacity="1"></path><path clip-path="url(#clip230)" d="M16.4842 924.051 L16.4842 917.589 L45.3526 917.589 Q52.9915 917.589 56.3653 914.82 Q59.7073 912.051 59.7073 905.845 Q59.7073 899.67 56.3653 896.901 Q52.9915 894.132 45.3526 894.132 L16.4842 894.132 L16.4842 887.671 L46.1484 887.671 Q55.4423 887.671 60.1847 892.286 Q64.9272 896.869 64.9272 905.845 Q64.9272 914.852 60.1847 919.467 Q55.4423 924.051 46.1484 924.051 L16.4842 924.051 Z" fill="#000000" fill-rule="nonzero" fill-opacity="1"></path><path clip-path="url(#clip230)" d="M20.1444 819.303 L26.9239 819.303 Q23.9002 822.549 22.4043 826.242 Q20.9083 829.902 20.9083 834.04 Q20.9083 842.188 25.9054 846.516 Q30.8707 850.845 40.2919 850.845 Q49.6813 850.845 54.6784 846.516 Q59.6436 842.188 59.6436 834.04 Q59.6436 829.902 58.1477 826.242 Q56.6518 822.549 53.6281 819.303 L60.3439 819.303 Q62.6355 822.677 63.7814 826.464 Q64.9272 830.22 64.9272 834.422 Q64.9272 845.211 58.3387 851.418 Q51.7183 857.625 40.2919 857.625 Q28.8336 857.625 22.2451 851.418 Q15.6248 845.211 15.6248 834.422 Q15.6248 830.156 16.7706 826.401 Q17.8846 822.613 20.1444 819.303 Z" fill="#000000" fill-rule="nonzero" fill-opacity="1"></path><path clip-path="url(#clip230)" d="M14.479 809.627 L14.479 803.771 L64.0042 803.771 L64.0042 809.627 L14.479 809.627 Z" fill="#000000" fill-rule="nonzero" fill-opacity="1"></path><path clip-path="url(#clip230)" d="M32.4621 777.703 Q32.4621 782.414 36.1542 785.151 Q39.8145 787.888 46.212 787.888 Q52.6095 787.888 56.3017 785.183 Q59.9619 782.446 59.9619 777.703 Q59.9619 773.024 56.2698 770.287 Q52.5777 767.55 46.212 767.55 Q39.8781 767.55 36.186 770.287 Q32.4621 773.024 32.4621 777.703 M27.4968 777.703 Q27.4968 770.064 32.4621 765.704 Q37.4273 761.343 46.212 761.343 Q54.9649 761.343 59.9619 765.704 Q64.9272 770.064 64.9272 777.703 Q64.9272 785.374 59.9619 789.734 Q54.9649 794.063 46.212 794.063 Q37.4273 794.063 32.4621 789.734 Q27.4968 785.374 27.4968 777.703 Z" fill="#000000" fill-rule="nonzero" fill-opacity="1"></path><path clip-path="url(#clip230)" d="M29.7248 725.982 L35.1993 725.982 Q33.8307 728.464 33.1623 730.979 Q32.4621 733.461 32.4621 736.008 Q32.4621 741.705 36.0905 744.856 Q39.6872 748.007 46.212 748.007 Q52.7369 748.007 56.3653 744.856 Q59.9619 741.705 59.9619 736.008 Q59.9619 733.461 59.2935 730.979 Q58.5933 728.464 57.2247 725.982 L62.6355 725.982 Q63.7814 728.432 64.3543 731.074 Q64.9272 733.684 64.9272 736.644 Q64.9272 744.697 59.8664 749.439 Q54.8057 754.182 46.212 754.182 Q37.491 754.182 32.4939 749.407 Q27.4968 744.601 27.4968 736.262 Q27.4968 733.557 28.0697 730.979 Q28.6108 728.401 29.7248 725.982 Z" fill="#000000" fill-rule="nonzero" fill-opacity="1"></path><path clip-path="url(#clip230)" d="M14.479 716.019 L14.479 710.131 L43.7294 710.131 L28.3562 692.657 L28.3562 685.178 L45.0344 704.084 L64.0042 684.382 L64.0042 692.021 L46.5939 710.131 L64.0042 710.131 L64.0042 716.019 L14.479 716.019 Z" fill="#000000" fill-rule="nonzero" fill-opacity="1"></path><path clip-path="url(#clip230)" d="M20.1444 621.489 L26.9239 621.489 Q23.9002 624.735 22.4043 628.427 Q20.9083 632.088 20.9083 636.225 Q20.9083 644.373 25.9054 648.702 Q30.8707 653.031 40.2919 653.031 Q49.6813 653.031 54.6784 648.702 Q59.6436 644.373 59.6436 636.225 Q59.6436 632.088 58.1477 628.427 Q56.6518 624.735 53.6281 621.489 L60.3439 621.489 Q62.6355 624.862 63.7814 628.65 Q64.9272 632.406 64.9272 636.607 Q64.9272 647.397 58.3387 653.604 Q51.7183 659.81 40.2919 659.81 Q28.8336 659.81 22.2451 653.604 Q15.6248 647.397 15.6248 636.607 Q15.6248 632.342 16.7706 628.586 Q17.8846 624.799 20.1444 621.489 Z" fill="#000000" fill-rule="nonzero" fill-opacity="1"></path><path clip-path="url(#clip230)" d="M67.3143 596.981 Q73.68 599.463 75.6216 601.819 Q77.5631 604.174 77.5631 608.121 L77.5631 612.799 L72.6615 612.799 L72.6615 609.362 Q72.6615 606.943 71.5157 605.606 Q70.3699 604.269 66.1048 602.646 L63.4312 601.596 L28.3562 616.014 L28.3562 609.808 L56.238 598.668 L28.3562 587.528 L28.3562 581.321 L67.3143 596.981 Z" fill="#000000" fill-rule="nonzero" fill-opacity="1"></path><path clip-path="url(#clip230)" d="M29.7248 547.583 L35.1993 547.583 Q33.8307 550.065 33.1623 552.58 Q32.4621 555.062 32.4621 557.609 Q32.4621 563.306 36.0905 566.457 Q39.6872 569.608 46.212 569.608 Q52.7369 569.608 56.3653 566.457 Q59.9619 563.306 59.9619 557.609 Q59.9619 555.062 59.2935 552.58 Q58.5933 550.065 57.2247 547.583 L62.6355 547.583 Q63.7814 550.034 64.3543 552.675 Q64.9272 555.285 64.9272 558.245 Q64.9272 566.298 59.8664 571.04 Q54.8057 575.783 46.212 575.783 Q37.491 575.783 32.4939 571.009 Q27.4968 566.202 27.4968 557.863 Q27.4968 555.158 28.0697 552.58 Q28.6108 550.002 29.7248 547.583 Z" fill="#000000" fill-rule="nonzero" fill-opacity="1"></path><path clip-path="url(#clip230)" d="M14.479 537.398 L14.479 531.541 L64.0042 531.541 L64.0042 537.398 L14.479 537.398 Z" fill="#000000" fill-rule="nonzero" fill-opacity="1"></path><path clip-path="url(#clip230)" d="M44.7161 488.795 L47.5806 488.795 L47.5806 515.722 Q53.6281 515.34 56.8109 512.094 Q59.9619 508.816 59.9619 502.991 Q59.9619 499.617 59.1344 496.466 Q58.3069 493.283 56.6518 490.164 L62.1899 490.164 Q63.5267 493.315 64.227 496.625 Q64.9272 499.935 64.9272 503.341 Q64.9272 511.871 59.9619 516.868 Q54.9967 521.833 46.5303 521.833 Q37.7774 521.833 32.6531 517.123 Q27.4968 512.38 27.4968 504.36 Q27.4968 497.166 32.1438 492.997 Q36.7589 488.795 44.7161 488.795 M42.9973 494.652 Q38.1912 494.716 35.3266 497.357 Q32.4621 499.967 32.4621 504.296 Q32.4621 509.198 35.2312 512.158 Q38.0002 515.086 43.0292 515.531 L42.9973 494.652 Z" fill="#000000" fill-rule="nonzero" fill-opacity="1"></path><path clip-path="url(#clip230)" d="M29.4065 456.458 L34.9447 456.458 Q33.6716 458.94 33.035 461.614 Q32.3984 464.287 32.3984 467.152 Q32.3984 471.513 33.7352 473.709 Q35.072 475.873 37.7456 475.873 Q39.7826 475.873 40.9603 474.313 Q42.1061 472.754 43.1565 468.043 L43.6021 466.038 Q44.9389 459.8 47.3897 457.19 Q49.8086 454.548 54.1691 454.548 Q59.1344 454.548 62.0308 458.495 Q64.9272 462.41 64.9272 469.285 Q64.9272 472.149 64.3543 475.268 Q63.8132 478.356 62.6992 481.793 L56.6518 481.793 Q58.3387 478.547 59.198 475.396 Q60.0256 472.245 60.0256 469.157 Q60.0256 465.02 58.6251 462.792 Q57.1929 460.564 54.6147 460.564 Q52.2276 460.564 50.9545 462.187 Q49.6813 463.778 48.5037 469.221 L48.0262 471.258 Q46.8804 476.701 44.5251 479.12 Q42.138 481.539 38.0002 481.539 Q32.9713 481.539 30.2341 477.974 Q27.4968 474.409 27.4968 467.852 Q27.4968 464.606 27.9743 461.741 Q28.4517 458.877 29.4065 456.458 Z" fill="#000000" fill-rule="nonzero" fill-opacity="1"></path><circle clip-path="url(#clip232)" cx="323.395" cy="1383.48" r="14.4" fill="#009af9" fill-rule="evenodd" fill-opacity="1" stroke="#000000" stroke-opacity="1" stroke-width="3.2"></circle>
<circle clip-path="url(#clip232)" cx="386.951" cy="1382.56" r="14.4" fill="#009af9" fill-rule="evenodd" fill-opacity="1" stroke="#000000" stroke-opacity="1" stroke-width="3.2"></circle>
<circle clip-path="url(#clip232)" cx="450.508" cy="1382.92" r="14.4" fill="#009af9" fill-rule="evenodd" fill-opacity="1" stroke="#000000" stroke-opacity="1" stroke-width="3.2"></circle>
<circle clip-path="url(#clip232)" cx="514.065" cy="1297.02" r="14.4" fill="#009af9" fill-rule="evenodd" fill-opacity="1" stroke="#000000" stroke-opacity="1" stroke-width="3.2"></circle>
<circle clip-path="url(#clip232)" cx="577.621" cy="1383.8" r="14.4" fill="#009af9" fill-rule="evenodd" fill-opacity="1" stroke="#000000" stroke-opacity="1" stroke-width="3.2"></circle>
<circle clip-path="url(#clip232)" cx="641.178" cy="1382.19" r="14.4" fill="#009af9" fill-rule="evenodd" fill-opacity="1" stroke="#000000" stroke-opacity="1" stroke-width="3.2"></circle>
<circle clip-path="url(#clip232)" cx="704.734" cy="1383.57" r="14.4" fill="#009af9" fill-rule="evenodd" fill-opacity="1" stroke="#000000" stroke-opacity="1" stroke-width="3.2"></circle>
<circle clip-path="url(#clip232)" cx="768.291" cy="1124.24" r="14.4" fill="#009af9" fill-rule="evenodd" fill-opacity="1" stroke="#000000" stroke-opacity="1" stroke-width="3.2"></circle>
<circle clip-path="url(#clip232)" cx="831.847" cy="1383.86" r="14.4" fill="#009af9" fill-rule="evenodd" fill-opacity="1" stroke="#000000" stroke-opacity="1" stroke-width="3.2"></circle>
<circle clip-path="url(#clip232)" cx="895.404" cy="1382.58" r="14.4" fill="#009af9" fill-rule="evenodd" fill-opacity="1" stroke="#000000" stroke-opacity="1" stroke-width="3.2"></circle>
<circle clip-path="url(#clip232)" cx="958.961" cy="1383.03" r="14.4" fill="#009af9" fill-rule="evenodd" fill-opacity="1" stroke="#000000" stroke-opacity="1" stroke-width="3.2"></circle>
<circle clip-path="url(#clip232)" cx="1022.52" cy="1297.49" r="14.4" fill="#009af9" fill-rule="evenodd" fill-opacity="1" stroke="#000000" stroke-opacity="1" stroke-width="3.2"></circle>
<circle clip-path="url(#clip232)" cx="1086.07" cy="1383.51" r="14.4" fill="#009af9" fill-rule="evenodd" fill-opacity="1" stroke="#000000" stroke-opacity="1" stroke-width="3.2"></circle>
<circle clip-path="url(#clip232)" cx="1149.63" cy="1383" r="14.4" fill="#009af9" fill-rule="evenodd" fill-opacity="1" stroke="#000000" stroke-opacity="1" stroke-width="3.2"></circle>
<circle clip-path="url(#clip232)" cx="1213.19" cy="1383.46" r="14.4" fill="#009af9" fill-rule="evenodd" fill-opacity="1" stroke="#000000" stroke-opacity="1" stroke-width="3.2"></circle>
<circle clip-path="url(#clip232)" cx="1276.74" cy="777.709" r="14.4" fill="#009af9" fill-rule="evenodd" fill-opacity="1" stroke="#000000" stroke-opacity="1" stroke-width="3.2"></circle>
<circle clip-path="url(#clip232)" cx="1340.3" cy="1383.4" r="14.4" fill="#009af9" fill-rule="evenodd" fill-opacity="1" stroke="#000000" stroke-opacity="1" stroke-width="3.2"></circle>
<circle clip-path="url(#clip232)" cx="1403.86" cy="1382.44" r="14.4" fill="#009af9" fill-rule="evenodd" fill-opacity="1" stroke="#000000" stroke-opacity="1" stroke-width="3.2"></circle>
<circle clip-path="url(#clip232)" cx="1467.41" cy="1383.01" r="14.4" fill="#009af9" fill-rule="evenodd" fill-opacity="1" stroke="#000000" stroke-opacity="1" stroke-width="3.2"></circle>
<circle clip-path="url(#clip232)" cx="1530.97" cy="1297.16" r="14.4" fill="#009af9" fill-rule="evenodd" fill-opacity="1" stroke="#000000" stroke-opacity="1" stroke-width="3.2"></circle>
<circle clip-path="url(#clip232)" cx="1594.53" cy="1384.24" r="14.4" fill="#009af9" fill-rule="evenodd" fill-opacity="1" stroke="#000000" stroke-opacity="1" stroke-width="3.2"></circle>
<circle clip-path="url(#clip232)" cx="1658.08" cy="1382.24" r="14.4" fill="#009af9" fill-rule="evenodd" fill-opacity="1" stroke="#000000" stroke-opacity="1" stroke-width="3.2"></circle>
<circle clip-path="url(#clip232)" cx="1721.64" cy="1383.07" r="14.4" fill="#009af9" fill-rule="evenodd" fill-opacity="1" stroke="#000000" stroke-opacity="1" stroke-width="3.2"></circle>
<circle clip-path="url(#clip232)" cx="1785.2" cy="1123.44" r="14.4" fill="#009af9" fill-rule="evenodd" fill-opacity="1" stroke="#000000" stroke-opacity="1" stroke-width="3.2"></circle>
<circle clip-path="url(#clip232)" cx="1848.75" cy="1384.24" r="14.4" fill="#009af9" fill-rule="evenodd" fill-opacity="1" stroke="#000000" stroke-opacity="1" stroke-width="3.2"></circle>
<circle clip-path="url(#clip232)" cx="1912.31" cy="1382.12" r="14.4" fill="#009af9" fill-rule="evenodd" fill-opacity="1" stroke="#000000" stroke-opacity="1" stroke-width="3.2"></circle>
<circle clip-path="url(#clip232)" cx="1975.87" cy="1383.35" r="14.4" fill="#009af9" fill-rule="evenodd" fill-opacity="1" stroke="#000000" stroke-opacity="1" stroke-width="3.2"></circle>
<circle clip-path="url(#clip232)" cx="2039.42" cy="1296.48" r="14.4" fill="#009af9" fill-rule="evenodd" fill-opacity="1" stroke="#000000" stroke-opacity="1" stroke-width="3.2"></circle>
<circle clip-path="url(#clip232)" cx="2102.98" cy="1383.06" r="14.4" fill="#009af9" fill-rule="evenodd" fill-opacity="1" stroke="#000000" stroke-opacity="1" stroke-width="3.2"></circle>
<circle clip-path="url(#clip232)" cx="2166.54" cy="1382.49" r="14.4" fill="#009af9" fill-rule="evenodd" fill-opacity="1" stroke="#000000" stroke-opacity="1" stroke-width="3.2"></circle>
<circle clip-path="url(#clip232)" cx="2230.09" cy="1383.15" r="14.4" fill="#009af9" fill-rule="evenodd" fill-opacity="1" stroke="#000000" stroke-opacity="1" stroke-width="3.2"></circle>
<circle clip-path="url(#clip232)" cx="2293.65" cy="86.1857" r="14.4" fill="#009af9" fill-rule="evenodd" fill-opacity="1" stroke="#000000" stroke-opacity="1" stroke-width="3.2"></circle>
<path clip-path="url(#clip230)" d="M333.903 196.789 L595.18 196.789 L595.18 93.1086 L333.903 93.1086  Z" fill="#ffffff" fill-rule="evenodd" fill-opacity="1"></path>
<polyline clip-path="url(#clip230)" style="stroke:#000000; stroke-linecap:round; stroke-linejoin:round; stroke-width:4; stroke-opacity:1; fill:none" points="333.903,196.789 595.18,196.789 595.18,93.1086 333.903,93.1086 333.903,196.789 "></polyline>
<circle clip-path="url(#clip230)" cx="426.724" cy="144.949" r="20.48" fill="#009af9" fill-rule="evenodd" fill-opacity="1" stroke="#000000" stroke-opacity="1" stroke-width="4.55111"></circle>
<path clip-path="url(#clip230)" d="M533.387 164.636 Q531.582 169.266 529.869 170.678 Q528.156 172.09 525.285 172.09 L521.883 172.09 L521.883 168.525 L524.383 168.525 Q526.142 168.525 527.114 167.692 Q528.086 166.858 529.267 163.756 L530.031 161.812 L519.545 136.303 L524.058 136.303 L532.16 156.581 L540.262 136.303 L544.776 136.303 L533.387 164.636 Z" fill="#000000" fill-rule="nonzero" fill-opacity="1"></path><path clip-path="url(#clip230)" d="M552.068 158.293 L559.706 158.293 L559.706 131.928 L551.396 133.595 L551.396 129.335 L559.66 127.669 L564.336 127.669 L564.336 158.293 L571.975 158.293 L571.975 162.229 L552.068 162.229 L552.068 158.293 Z" fill="#000000" fill-rule="nonzero" fill-opacity="1"></path></svg>